<?xml version="1.0" encoding="UTF-8" standalone="no"?>
<!DOCTYPE svg PUBLIC "-//W3C//DTD SVG 1.1//EN"
 "http://www.w3.org/Graphics/SVG/1.1/DTD/svg11.dtd">
<!-- Generated by graphviz version 2.40.1 (20161225.0304)
 -->
<!-- Title: auth.saml_providers Pages: 1 -->
<svg width="802pt" height="652pt"
 viewBox="0.00 0.00 801.50 652.00" xmlns="http://www.w3.org/2000/svg" xmlns:xlink="http://www.w3.org/1999/xlink">
<g id="graph0" class="graph" transform="scale(1 1) rotate(0) translate(4 648)">
<title>auth.saml_providers</title>
<polygon fill="#ffffff" stroke="transparent" points="-4,4 -4,-648 797.5,-648 797.5,4 -4,4"/>
<!-- auth.saml_providers -->
<g id="node1" class="node">
<title>auth.saml_providers</title>
<polygon fill="#efefef" stroke="transparent" points="445,-562.5 445,-597.5 748,-597.5 748,-562.5 445,-562.5"/>
<polygon fill="none" stroke="#000000" points="445,-562.5 445,-597.5 748,-597.5 748,-562.5 445,-562.5"/>
<text text-anchor="start" x="451.7034" y="-575.3" font-family="Arial Bold" font-size="18.00" fill="#000000">auth.saml_providers</text>
<text text-anchor="start" x="613.7286" y="-575.3" font-family="Arial" font-size="14.00" fill="#000000">    </text>
<text text-anchor="start" x="647.9334" y="-575.3" font-family="Arial" font-size="14.00" fill="#666666">[BASE TABLE]</text>
<polygon fill="none" stroke="#000000" points="445,-532.5 445,-562.5 748,-562.5 748,-532.5 445,-532.5"/>
<text text-anchor="start" x="452" y="-543.9" font-family="Arial" font-size="14.00" fill="#000000">id </text>
<text text-anchor="start" x="466.7798" y="-543.9" font-family="Arial" font-size="14.00" fill="#666666">[uuid]</text>
<polygon fill="none" stroke="#000000" points="445,-502.5 445,-532.5 748,-532.5 748,-502.5 445,-502.5"/>
<text text-anchor="start" x="452" y="-513.9" font-family="Arial" font-size="14.00" fill="#000000">sso_provider_id </text>
<text text-anchor="start" x="554.6858" y="-513.9" font-family="Arial" font-size="14.00" fill="#666666">[uuid]</text>
<polygon fill="none" stroke="#000000" points="445,-472.5 445,-502.5 748,-502.5 748,-472.5 445,-472.5"/>
<text text-anchor="start" x="452" y="-483.9" font-family="Arial" font-size="14.00" fill="#000000">entity_id </text>
<text text-anchor="start" x="508.0154" y="-483.9" font-family="Arial" font-size="14.00" fill="#666666">[text]</text>
<polygon fill="none" stroke="#000000" points="445,-442.5 445,-472.5 748,-472.5 748,-442.5 445,-442.5"/>
<text text-anchor="start" x="452" y="-453.9" font-family="Arial" font-size="14.00" fill="#000000">metadata_xml </text>
<text text-anchor="start" x="543.7952" y="-453.9" font-family="Arial" font-size="14.00" fill="#666666">[text]</text>
<polygon fill="none" stroke="#000000" points="445,-412.5 445,-442.5 748,-442.5 748,-412.5 445,-412.5"/>
<text text-anchor="start" x="452" y="-423.9" font-family="Arial" font-size="14.00" fill="#000000">metadata_url </text>
<text text-anchor="start" x="537.5778" y="-423.9" font-family="Arial" font-size="14.00" fill="#666666">[text]</text>
<polygon fill="none" stroke="#000000" points="445,-382.5 445,-412.5 748,-412.5 748,-382.5 445,-382.5"/>
<text text-anchor="start" x="452" y="-393.9" font-family="Arial" font-size="14.00" fill="#000000">attribute_mapping </text>
<text text-anchor="start" x="567.9228" y="-393.9" font-family="Arial" font-size="14.00" fill="#666666">[jsonb]</text>
<polygon fill="none" stroke="#000000" points="445,-352.5 445,-382.5 748,-382.5 748,-352.5 445,-352.5"/>
<text text-anchor="start" x="452" y="-363.9" font-family="Arial" font-size="14.00" fill="#000000">created_at </text>
<text text-anchor="start" x="522.028" y="-363.9" font-family="Arial" font-size="14.00" fill="#666666">[timestamp with time zone]</text>
<polygon fill="none" stroke="#000000" points="445,-322.5 445,-352.5 748,-352.5 748,-322.5 445,-322.5"/>
<text text-anchor="start" x="452" y="-333.9" font-family="Arial" font-size="14.00" fill="#000000">updated_at </text>
<text text-anchor="start" x="525.9326" y="-333.9" font-family="Arial" font-size="14.00" fill="#666666">[timestamp with time zone]</text>
<polygon fill="none" stroke="#000000" stroke-width="3" points="443,-321.5 443,-599.5 749,-599.5 749,-321.5 443,-321.5"/>
</g>
<!-- auth.sso_providers -->
<g id="node2" class="node">
<title>auth.sso_providers</title>
<polygon fill="#efefef" stroke="transparent" points="450,-162.5 450,-197.5 743,-197.5 743,-162.5 450,-162.5"/>
<polygon fill="none" stroke="#000000" points="450,-162.5 450,-197.5 743,-197.5 743,-162.5 450,-162.5"/>
<text text-anchor="start" x="456.6966" y="-175.3" font-family="Arial Bold" font-size="18.00" fill="#000000">auth.sso_providers</text>
<text text-anchor="start" x="608.7354" y="-175.3" font-family="Arial" font-size="14.00" fill="#000000">    </text>
<text text-anchor="start" x="642.9402" y="-175.3" font-family="Arial" font-size="14.00" fill="#666666">[BASE TABLE]</text>
<polygon fill="none" stroke="#000000" points="450,-132.5 450,-162.5 743,-162.5 743,-132.5 450,-132.5"/>
<text text-anchor="start" x="457" y="-143.9" font-family="Arial" font-size="14.00" fill="#000000">id    </text>
<text text-anchor="start" x="502.094" y="-143.9" font-family="Arial" font-size="14.00" fill="#666666">[uuid]</text>
<polygon fill="none" stroke="#000000" points="450,-102.5 450,-132.5 743,-132.5 743,-102.5 450,-102.5"/>
<text text-anchor="start" x="457" y="-113.9" font-family="Arial" font-size="14.00" fill="#000000">resource_id    </text>
<text text-anchor="start" x="564.3282" y="-113.9" font-family="Arial" font-size="14.00" fill="#666666">[text]</text>
<polygon fill="none" stroke="#000000" points="450,-72.5 450,-102.5 743,-102.5 743,-72.5 450,-72.5"/>
<text text-anchor="start" x="457" y="-83.9" font-family="Arial" font-size="14.00" fill="#000000">created_at    </text>
<text text-anchor="start" x="557.3422" y="-83.9" font-family="Arial" font-size="14.00" fill="#666666">[timestamp with time zone]</text>
<polygon fill="none" stroke="#000000" points="450,-42.5 450,-72.5 743,-72.5 743,-42.5 450,-42.5"/>
<text text-anchor="start" x="457" y="-53.9" font-family="Arial" font-size="14.00" fill="#000000">updated_at    </text>
<text text-anchor="start" x="561.2468" y="-53.9" font-family="Arial" font-size="14.00" fill="#666666">[timestamp with time zone]</text>
</g>
<!-- auth.saml_providers&#45;&gt;auth.sso_providers -->
<g id="edge1" class="edge">
<title>auth.saml_providers:sso_provider_id&#45;&gt;auth.sso_providers:id</title>
<path fill="none" stroke="#000000" d="M434.8824,-515.5093C363.3425,-486.3863 371.3036,-147.5 450,-147.5"/>
<polygon fill="#000000" stroke="#000000" points="435.1881,-515.5694 444.1312,-521.9153 440.0941,-516.5347 445,-517.5 445,-517.5 445,-517.5 440.0941,-516.5347 445.8688,-513.0847 435.1881,-515.5694 435.1881,-515.5694"/>
<text text-anchor="start" x="7.152" y="-527.5" font-family="Arial" font-size="10.00" fill="#000000">FOREIGN KEY (sso_provider_id) REFERENCES auth.sso_providers(id) ON DELETE CASCADE</text>
</g>
</g>
</svg>
