<?xml version="1.0" encoding="UTF-8" standalone="no"?>
<!DOCTYPE svg PUBLIC "-//W3C//DTD SVG 1.1//EN"
 "http://www.w3.org/Graphics/SVG/1.1/DTD/svg11.dtd">
<!-- Generated by graphviz version 2.40.1 (20161225.0304)
 -->
<!-- Title: auth.saml_relay_states Pages: 1 -->
<svg width="1195pt" height="892pt"
 viewBox="0.00 0.00 1195.00 892.00" xmlns="http://www.w3.org/2000/svg" xmlns:xlink="http://www.w3.org/1999/xlink">
<g id="graph0" class="graph" transform="scale(1 1) rotate(0) translate(4 888)">
<title>auth.saml_relay_states</title>
<polygon fill="#ffffff" stroke="transparent" points="-4,4 -4,-888 1191,-888 1191,4 -4,4"/>
<!-- auth.saml_relay_states -->
<g id="node1" class="node">
<title>auth.saml_relay_states</title>
<polygon fill="#efefef" stroke="transparent" points="445,-802.5 445,-837.5 771,-837.5 771,-802.5 445,-802.5"/>
<polygon fill="none" stroke="#000000" points="445,-802.5 445,-837.5 771,-837.5 771,-802.5 445,-802.5"/>
<text text-anchor="start" x="451.6942" y="-815.3" font-family="Arial Bold" font-size="18.00" fill="#000000">auth.saml_relay_states</text>
<text text-anchor="start" x="636.7378" y="-815.3" font-family="Arial" font-size="14.00" fill="#000000">    </text>
<text text-anchor="start" x="670.9426" y="-815.3" font-family="Arial" font-size="14.00" fill="#666666">[BASE TABLE]</text>
<polygon fill="none" stroke="#000000" points="445,-772.5 445,-802.5 771,-802.5 771,-772.5 445,-772.5"/>
<text text-anchor="start" x="452" y="-783.9" font-family="Arial" font-size="14.00" fill="#000000">id </text>
<text text-anchor="start" x="466.7798" y="-783.9" font-family="Arial" font-size="14.00" fill="#666666">[uuid]</text>
<polygon fill="none" stroke="#000000" points="445,-742.5 445,-772.5 771,-772.5 771,-742.5 445,-742.5"/>
<text text-anchor="start" x="452" y="-753.9" font-family="Arial" font-size="14.00" fill="#000000">sso_provider_id </text>
<text text-anchor="start" x="554.6858" y="-753.9" font-family="Arial" font-size="14.00" fill="#666666">[uuid]</text>
<polygon fill="none" stroke="#000000" points="445,-712.5 445,-742.5 771,-742.5 771,-712.5 445,-712.5"/>
<text text-anchor="start" x="452" y="-723.9" font-family="Arial" font-size="14.00" fill="#000000">request_id </text>
<text text-anchor="start" x="521.244" y="-723.9" font-family="Arial" font-size="14.00" fill="#666666">[text]</text>
<polygon fill="none" stroke="#000000" points="445,-682.5 445,-712.5 771,-712.5 771,-682.5 445,-682.5"/>
<text text-anchor="start" x="452" y="-693.9" font-family="Arial" font-size="14.00" fill="#000000">for_email </text>
<text text-anchor="start" x="513.446" y="-693.9" font-family="Arial" font-size="14.00" fill="#666666">[text]</text>
<polygon fill="none" stroke="#000000" points="445,-652.5 445,-682.5 771,-682.5 771,-652.5 445,-652.5"/>
<text text-anchor="start" x="452" y="-663.9" font-family="Arial" font-size="14.00" fill="#000000">redirect_to </text>
<text text-anchor="start" x="522.0126" y="-663.9" font-family="Arial" font-size="14.00" fill="#666666">[text]</text>
<polygon fill="none" stroke="#000000" points="445,-622.5 445,-652.5 771,-652.5 771,-622.5 445,-622.5"/>
<text text-anchor="start" x="452" y="-633.9" font-family="Arial" font-size="14.00" fill="#000000">from_ip_address </text>
<text text-anchor="start" x="560.1304" y="-633.9" font-family="Arial" font-size="14.00" fill="#666666">[inet]</text>
<polygon fill="none" stroke="#000000" points="445,-592.5 445,-622.5 771,-622.5 771,-592.5 445,-592.5"/>
<text text-anchor="start" x="452" y="-603.9" font-family="Arial" font-size="14.00" fill="#000000">created_at </text>
<text text-anchor="start" x="522.028" y="-603.9" font-family="Arial" font-size="14.00" fill="#666666">[timestamp with time zone]</text>
<polygon fill="none" stroke="#000000" points="445,-562.5 445,-592.5 771,-592.5 771,-562.5 445,-562.5"/>
<text text-anchor="start" x="452" y="-573.9" font-family="Arial" font-size="14.00" fill="#000000">updated_at </text>
<text text-anchor="start" x="525.9326" y="-573.9" font-family="Arial" font-size="14.00" fill="#666666">[timestamp with time zone]</text>
<polygon fill="none" stroke="#000000" points="445,-532.5 445,-562.5 771,-562.5 771,-532.5 445,-532.5"/>
<text text-anchor="start" x="452" y="-543.9" font-family="Arial" font-size="14.00" fill="#000000">flow_state_id </text>
<text text-anchor="start" x="537.5778" y="-543.9" font-family="Arial" font-size="14.00" fill="#666666">[uuid]</text>
<polygon fill="none" stroke="#000000" stroke-width="3" points="443.5,-531.5 443.5,-839.5 772.5,-839.5 772.5,-531.5 443.5,-531.5"/>
</g>
<!-- auth.sso_providers -->
<g id="node2" class="node">
<title>auth.sso_providers</title>
<polygon fill="#efefef" stroke="transparent" points="238,-267.5 238,-302.5 531,-302.5 531,-267.5 238,-267.5"/>
<polygon fill="none" stroke="#000000" points="238,-267.5 238,-302.5 531,-302.5 531,-267.5 238,-267.5"/>
<text text-anchor="start" x="244.6966" y="-280.3" font-family="Arial Bold" font-size="18.00" fill="#000000">auth.sso_providers</text>
<text text-anchor="start" x="396.7354" y="-280.3" font-family="Arial" font-size="14.00" fill="#000000">    </text>
<text text-anchor="start" x="430.9402" y="-280.3" font-family="Arial" font-size="14.00" fill="#666666">[BASE TABLE]</text>
<polygon fill="none" stroke="#000000" points="238,-237.5 238,-267.5 531,-267.5 531,-237.5 238,-237.5"/>
<text text-anchor="start" x="245" y="-248.9" font-family="Arial" font-size="14.00" fill="#000000">id    </text>
<text text-anchor="start" x="290.094" y="-248.9" font-family="Arial" font-size="14.00" fill="#666666">[uuid]</text>
<polygon fill="none" stroke="#000000" points="238,-207.5 238,-237.5 531,-237.5 531,-207.5 238,-207.5"/>
<text text-anchor="start" x="245" y="-218.9" font-family="Arial" font-size="14.00" fill="#000000">resource_id    </text>
<text text-anchor="start" x="352.3282" y="-218.9" font-family="Arial" font-size="14.00" fill="#666666">[text]</text>
<polygon fill="none" stroke="#000000" points="238,-177.5 238,-207.5 531,-207.5 531,-177.5 238,-177.5"/>
<text text-anchor="start" x="245" y="-188.9" font-family="Arial" font-size="14.00" fill="#000000">created_at    </text>
<text text-anchor="start" x="345.3422" y="-188.9" font-family="Arial" font-size="14.00" fill="#666666">[timestamp with time zone]</text>
<polygon fill="none" stroke="#000000" points="238,-147.5 238,-177.5 531,-177.5 531,-147.5 238,-147.5"/>
<text text-anchor="start" x="245" y="-158.9" font-family="Arial" font-size="14.00" fill="#000000">updated_at    </text>
<text text-anchor="start" x="349.2468" y="-158.9" font-family="Arial" font-size="14.00" fill="#666666">[timestamp with time zone]</text>
</g>
<!-- auth.saml_relay_states&#45;&gt;auth.sso_providers -->
<g id="edge1" class="edge">
<title>auth.saml_relay_states:sso_provider_id&#45;&gt;auth.sso_providers:id</title>
<path fill="none" stroke="#000000" d="M434.9624,-757.1064C329.8697,-748.4657 413.4403,-599.3517 445,-487 464.8508,-416.3318 511.1492,-416.6682 531,-346 542.238,-305.9929 572.5556,-252.5 531,-252.5"/>
<polygon fill="#000000" stroke="#000000" points="435.0077,-757.1081 444.8236,-761.9965 440.0038,-757.304 445,-757.5 445,-757.5 445,-757.5 440.0038,-757.304 445.1764,-753.0035 435.0077,-757.1081 435.0077,-757.1081"/>
<text text-anchor="start" x="7.152" y="-767.5" font-family="Arial" font-size="10.00" fill="#000000">FOREIGN KEY (sso_provider_id) REFERENCES auth.sso_providers(id) ON DELETE CASCADE</text>
</g>
<!-- auth.flow_state -->
<g id="node3" class="node">
<title>auth.flow_state</title>
<polygon fill="#efefef" stroke="transparent" points="635,-372.5 635,-407.5 1027,-407.5 1027,-372.5 635,-372.5"/>
<polygon fill="none" stroke="#000000" points="635,-372.5 635,-407.5 1027,-407.5 1027,-372.5 635,-372.5"/>
<text text-anchor="start" x="706.6946" y="-385.3" font-family="Arial Bold" font-size="18.00" fill="#000000">auth.flow_state</text>
<text text-anchor="start" x="827.7374" y="-385.3" font-family="Arial" font-size="14.00" fill="#000000">    </text>
<text text-anchor="start" x="861.9422" y="-385.3" font-family="Arial" font-size="14.00" fill="#666666">[BASE TABLE]</text>
<polygon fill="none" stroke="#000000" points="635,-342.5 635,-372.5 1027,-372.5 1027,-342.5 635,-342.5"/>
<text text-anchor="start" x="642" y="-353.9" font-family="Arial" font-size="14.00" fill="#000000">id    </text>
<text text-anchor="start" x="687.094" y="-353.9" font-family="Arial" font-size="14.00" fill="#666666">[uuid]</text>
<polygon fill="none" stroke="#000000" points="635,-312.5 635,-342.5 1027,-342.5 1027,-312.5 635,-312.5"/>
<text text-anchor="start" x="642" y="-323.9" font-family="Arial" font-size="14.00" fill="#000000">user_id    </text>
<text text-anchor="start" x="722.1024" y="-323.9" font-family="Arial" font-size="14.00" fill="#666666">[uuid]</text>
<polygon fill="none" stroke="#000000" points="635,-282.5 635,-312.5 1027,-312.5 1027,-282.5 635,-282.5"/>
<text text-anchor="start" x="642" y="-293.9" font-family="Arial" font-size="14.00" fill="#000000">auth_code    </text>
<text text-anchor="start" x="741.5736" y="-293.9" font-family="Arial" font-size="14.00" fill="#666666">[text]</text>
<polygon fill="none" stroke="#000000" points="635,-252.5 635,-282.5 1027,-282.5 1027,-252.5 635,-252.5"/>
<text text-anchor="start" x="641.9391" y="-263.9" font-family="Arial" font-size="14.00" fill="#000000">code_challenge_method    </text>
<text text-anchor="start" x="828.6473" y="-263.9" font-family="Arial" font-size="14.00" fill="#666666">[auth.code_challenge_method]</text>
<polygon fill="none" stroke="#000000" points="635,-222.5 635,-252.5 1027,-252.5 1027,-222.5 635,-222.5"/>
<text text-anchor="start" x="642" y="-233.9" font-family="Arial" font-size="14.00" fill="#000000">code_challenge    </text>
<text text-anchor="start" x="774.244" y="-233.9" font-family="Arial" font-size="14.00" fill="#666666">[text]</text>
<polygon fill="none" stroke="#000000" points="635,-192.5 635,-222.5 1027,-222.5 1027,-192.5 635,-192.5"/>
<text text-anchor="start" x="642" y="-203.9" font-family="Arial" font-size="14.00" fill="#000000">provider_type    </text>
<text text-anchor="start" x="761.0014" y="-203.9" font-family="Arial" font-size="14.00" fill="#666666">[text]</text>
<polygon fill="none" stroke="#000000" points="635,-162.5 635,-192.5 1027,-192.5 1027,-162.5 635,-162.5"/>
<text text-anchor="start" x="642" y="-173.9" font-family="Arial" font-size="14.00" fill="#000000">provider_access_token    </text>
<text text-anchor="start" x="820.1318" y="-173.9" font-family="Arial" font-size="14.00" fill="#666666">[text]</text>
<polygon fill="none" stroke="#000000" points="635,-132.5 635,-162.5 1027,-162.5 1027,-132.5 635,-132.5"/>
<text text-anchor="start" x="642" y="-143.9" font-family="Arial" font-size="14.00" fill="#000000">provider_refresh_token    </text>
<text text-anchor="start" x="820.1262" y="-143.9" font-family="Arial" font-size="14.00" fill="#666666">[text]</text>
<polygon fill="none" stroke="#000000" points="635,-102.5 635,-132.5 1027,-132.5 1027,-102.5 635,-102.5"/>
<text text-anchor="start" x="642" y="-113.9" font-family="Arial" font-size="14.00" fill="#000000">created_at    </text>
<text text-anchor="start" x="742.3422" y="-113.9" font-family="Arial" font-size="14.00" fill="#666666">[timestamp with time zone]</text>
<polygon fill="none" stroke="#000000" points="635,-72.5 635,-102.5 1027,-102.5 1027,-72.5 635,-72.5"/>
<text text-anchor="start" x="642" y="-83.9" font-family="Arial" font-size="14.00" fill="#000000">updated_at    </text>
<text text-anchor="start" x="746.2468" y="-83.9" font-family="Arial" font-size="14.00" fill="#666666">[timestamp with time zone]</text>
<polygon fill="none" stroke="#000000" points="635,-42.5 635,-72.5 1027,-72.5 1027,-42.5 635,-42.5"/>
<text text-anchor="start" x="642" y="-53.9" font-family="Arial" font-size="14.00" fill="#000000">authentication_method    </text>
<text text-anchor="start" x="817.8148" y="-53.9" font-family="Arial" font-size="14.00" fill="#666666">[text]</text>
</g>
<!-- auth.saml_relay_states&#45;&gt;auth.flow_state -->
<g id="edge2" class="edge">
<title>auth.saml_relay_states:flow_state_id&#45;&gt;auth.flow_state:id</title>
<path fill="none" stroke="#000000" d="M780.9866,-544.8472C794.4671,-535.689 784.8385,-504.9783 771,-487 732.8614,-437.4523 673.1386,-500.5477 635,-451 609.6527,-418.0701 593.4444,-357.5 635,-357.5"/>
<polygon fill="#000000" stroke="#000000" points="780.6648,-544.9326 769.8447,-543.1508 775.8324,-546.2163 771,-547.5 771,-547.5 771,-547.5 775.8324,-546.2163 772.1553,-551.8492 780.6648,-544.9326 780.6648,-544.9326"/>
<text text-anchor="start" x="777.872" y="-557.5" font-family="Arial" font-size="10.00" fill="#000000">FOREIGN KEY (flow_state_id) REFERENCES auth.flow_state(id) ON DELETE CASCADE</text>
</g>
</g>
</svg>
