<?xml version="1.0" encoding="UTF-8" standalone="no"?>
<!DOCTYPE svg PUBLIC "-//W3C//DTD SVG 1.1//EN"
 "http://www.w3.org/Graphics/SVG/1.1/DTD/svg11.dtd">
<!-- Generated by graphviz version 2.40.1 (20161225.0304)
 -->
<!-- Title: auth.sso_providers Pages: 1 -->
<svg width="1409pt" height="682pt"
 viewBox="0.00 0.00 1409.00 682.00" xmlns="http://www.w3.org/2000/svg" xmlns:xlink="http://www.w3.org/1999/xlink">
<g id="graph0" class="graph" transform="scale(1 1) rotate(0) translate(4 678)">
<title>auth.sso_providers</title>
<polygon fill="#ffffff" stroke="transparent" points="-4,4 -4,-678 1405,-678 1405,4 -4,4"/>
<!-- auth.sso_providers -->
<g id="node1" class="node">
<title>auth.sso_providers</title>
<polygon fill="#efefef" stroke="transparent" points="554,-165.5 554,-200.5 847,-200.5 847,-165.5 554,-165.5"/>
<polygon fill="none" stroke="#000000" points="554,-165.5 554,-200.5 847,-200.5 847,-165.5 554,-165.5"/>
<text text-anchor="start" x="560.6966" y="-178.3" font-family="Arial Bold" font-size="18.00" fill="#000000">auth.sso_providers</text>
<text text-anchor="start" x="712.7354" y="-178.3" font-family="Arial" font-size="14.00" fill="#000000">    </text>
<text text-anchor="start" x="746.9402" y="-178.3" font-family="Arial" font-size="14.00" fill="#666666">[BASE TABLE]</text>
<polygon fill="none" stroke="#000000" points="554,-135.5 554,-165.5 847,-165.5 847,-135.5 554,-135.5"/>
<text text-anchor="start" x="561" y="-146.9" font-family="Arial" font-size="14.00" fill="#000000">id </text>
<text text-anchor="start" x="575.7798" y="-146.9" font-family="Arial" font-size="14.00" fill="#666666">[uuid]</text>
<polygon fill="none" stroke="#000000" points="554,-105.5 554,-135.5 847,-135.5 847,-105.5 554,-105.5"/>
<text text-anchor="start" x="561" y="-116.9" font-family="Arial" font-size="14.00" fill="#000000">resource_id </text>
<text text-anchor="start" x="638.014" y="-116.9" font-family="Arial" font-size="14.00" fill="#666666">[text]</text>
<polygon fill="none" stroke="#000000" points="554,-75.5 554,-105.5 847,-105.5 847,-75.5 554,-75.5"/>
<text text-anchor="start" x="561" y="-86.9" font-family="Arial" font-size="14.00" fill="#000000">created_at </text>
<text text-anchor="start" x="631.028" y="-86.9" font-family="Arial" font-size="14.00" fill="#666666">[timestamp with time zone]</text>
<polygon fill="none" stroke="#000000" points="554,-45.5 554,-75.5 847,-75.5 847,-45.5 554,-45.5"/>
<text text-anchor="start" x="561" y="-56.9" font-family="Arial" font-size="14.00" fill="#000000">updated_at </text>
<text text-anchor="start" x="634.9326" y="-56.9" font-family="Arial" font-size="14.00" fill="#666666">[timestamp with time zone]</text>
<polygon fill="none" stroke="#000000" stroke-width="3" points="552,-44.5 552,-202.5 848,-202.5 848,-44.5 552,-44.5"/>
</g>
<!-- auth.sso_domains -->
<g id="node2" class="node">
<title>auth.sso_domains</title>
<polygon fill="#efefef" stroke="transparent" points="158,-535.5 158,-570.5 445,-570.5 445,-535.5 158,-535.5"/>
<polygon fill="none" stroke="#000000" points="158,-535.5 158,-570.5 445,-570.5 445,-535.5 158,-535.5"/>
<text text-anchor="start" x="164.6927" y="-548.3" font-family="Arial Bold" font-size="18.00" fill="#000000">auth.sso_domains</text>
<text text-anchor="start" x="310.7393" y="-548.3" font-family="Arial" font-size="14.00" fill="#000000">    </text>
<text text-anchor="start" x="344.9441" y="-548.3" font-family="Arial" font-size="14.00" fill="#666666">[BASE TABLE]</text>
<polygon fill="none" stroke="#000000" points="158,-505.5 158,-535.5 445,-535.5 445,-505.5 158,-505.5"/>
<text text-anchor="start" x="165" y="-516.9" font-family="Arial" font-size="14.00" fill="#000000">id    </text>
<text text-anchor="start" x="210.094" y="-516.9" font-family="Arial" font-size="14.00" fill="#666666">[uuid]</text>
<polygon fill="none" stroke="#000000" points="158,-475.5 158,-505.5 445,-505.5 445,-475.5 158,-475.5"/>
<text text-anchor="start" x="165" y="-486.9" font-family="Arial" font-size="14.00" fill="#000000">sso_provider_id    </text>
<text text-anchor="start" x="298" y="-486.9" font-family="Arial" font-size="14.00" fill="#666666">[uuid]</text>
<polygon fill="none" stroke="#000000" points="158,-445.5 158,-475.5 445,-475.5 445,-445.5 158,-445.5"/>
<text text-anchor="start" x="165" y="-456.9" font-family="Arial" font-size="14.00" fill="#000000">domain    </text>
<text text-anchor="start" x="245.1024" y="-456.9" font-family="Arial" font-size="14.00" fill="#666666">[text]</text>
<polygon fill="none" stroke="#000000" points="158,-415.5 158,-445.5 445,-445.5 445,-415.5 158,-415.5"/>
<text text-anchor="start" x="165" y="-426.9" font-family="Arial" font-size="14.00" fill="#000000">created_at    </text>
<text text-anchor="start" x="265.3422" y="-426.9" font-family="Arial" font-size="14.00" fill="#666666">[timestamp with time zone]</text>
<polygon fill="none" stroke="#000000" points="158,-385.5 158,-415.5 445,-415.5 445,-385.5 158,-385.5"/>
<text text-anchor="start" x="165" y="-396.9" font-family="Arial" font-size="14.00" fill="#000000">updated_at    </text>
<text text-anchor="start" x="269.2468" y="-396.9" font-family="Arial" font-size="14.00" fill="#666666">[timestamp with time zone]</text>
</g>
<!-- auth.sso_domains&#45;&gt;auth.sso_providers -->
<g id="edge1" class="edge">
<title>auth.sso_domains:sso_provider_id&#45;&gt;auth.sso_providers:id</title>
<path fill="none" stroke="#000000" d="M455.3697,-489.9705C534.3104,-481.3578 466.7045,-369.4272 496,-283 516.6364,-222.1187 489.7163,-150.5 554,-150.5"/>
<polygon fill="#000000" stroke="#000000" points="454.987,-489.99 444.7705,-486.0059 449.9935,-490.245 445,-490.5 445,-490.5 445,-490.5 449.9935,-490.245 445.2295,-494.9941 454.987,-489.99 454.987,-489.99"/>
<text text-anchor="start" x="7.152" y="-500.5" font-family="Arial" font-size="10.00" fill="#000000">FOREIGN KEY (sso_provider_id) REFERENCES auth.sso_providers(id) ON DELETE CASCADE</text>
</g>
<!-- auth.saml_providers -->
<g id="node3" class="node">
<title>auth.saml_providers</title>
<polygon fill="#efefef" stroke="transparent" points="549,-580.5 549,-615.5 852,-615.5 852,-580.5 549,-580.5"/>
<polygon fill="none" stroke="#000000" points="549,-580.5 549,-615.5 852,-615.5 852,-580.5 549,-580.5"/>
<text text-anchor="start" x="555.7034" y="-593.3" font-family="Arial Bold" font-size="18.00" fill="#000000">auth.saml_providers</text>
<text text-anchor="start" x="717.7286" y="-593.3" font-family="Arial" font-size="14.00" fill="#000000">    </text>
<text text-anchor="start" x="751.9334" y="-593.3" font-family="Arial" font-size="14.00" fill="#666666">[BASE TABLE]</text>
<polygon fill="none" stroke="#000000" points="549,-550.5 549,-580.5 852,-580.5 852,-550.5 549,-550.5"/>
<text text-anchor="start" x="556" y="-561.9" font-family="Arial" font-size="14.00" fill="#000000">id    </text>
<text text-anchor="start" x="601.094" y="-561.9" font-family="Arial" font-size="14.00" fill="#666666">[uuid]</text>
<polygon fill="none" stroke="#000000" points="549,-520.5 549,-550.5 852,-550.5 852,-520.5 549,-520.5"/>
<text text-anchor="start" x="556" y="-531.9" font-family="Arial" font-size="14.00" fill="#000000">sso_provider_id    </text>
<text text-anchor="start" x="689" y="-531.9" font-family="Arial" font-size="14.00" fill="#666666">[uuid]</text>
<polygon fill="none" stroke="#000000" points="549,-490.5 549,-520.5 852,-520.5 852,-490.5 549,-490.5"/>
<text text-anchor="start" x="556" y="-501.9" font-family="Arial" font-size="14.00" fill="#000000">entity_id    </text>
<text text-anchor="start" x="642.3296" y="-501.9" font-family="Arial" font-size="14.00" fill="#666666">[text]</text>
<polygon fill="none" stroke="#000000" points="549,-460.5 549,-490.5 852,-490.5 852,-460.5 549,-460.5"/>
<text text-anchor="start" x="556" y="-471.9" font-family="Arial" font-size="14.00" fill="#000000">metadata_xml    </text>
<text text-anchor="start" x="678.1094" y="-471.9" font-family="Arial" font-size="14.00" fill="#666666">[text]</text>
<polygon fill="none" stroke="#000000" points="549,-430.5 549,-460.5 852,-460.5 852,-430.5 549,-430.5"/>
<text text-anchor="start" x="556" y="-441.9" font-family="Arial" font-size="14.00" fill="#000000">metadata_url    </text>
<text text-anchor="start" x="671.892" y="-441.9" font-family="Arial" font-size="14.00" fill="#666666">[text]</text>
<polygon fill="none" stroke="#000000" points="549,-400.5 549,-430.5 852,-430.5 852,-400.5 549,-400.5"/>
<text text-anchor="start" x="556" y="-411.9" font-family="Arial" font-size="14.00" fill="#000000">attribute_mapping    </text>
<text text-anchor="start" x="702.237" y="-411.9" font-family="Arial" font-size="14.00" fill="#666666">[jsonb]</text>
<polygon fill="none" stroke="#000000" points="549,-370.5 549,-400.5 852,-400.5 852,-370.5 549,-370.5"/>
<text text-anchor="start" x="556" y="-381.9" font-family="Arial" font-size="14.00" fill="#000000">created_at    </text>
<text text-anchor="start" x="656.3422" y="-381.9" font-family="Arial" font-size="14.00" fill="#666666">[timestamp with time zone]</text>
<polygon fill="none" stroke="#000000" points="549,-340.5 549,-370.5 852,-370.5 852,-340.5 549,-340.5"/>
<text text-anchor="start" x="556" y="-351.9" font-family="Arial" font-size="14.00" fill="#000000">updated_at    </text>
<text text-anchor="start" x="660.2468" y="-351.9" font-family="Arial" font-size="14.00" fill="#666666">[timestamp with time zone]</text>
</g>
<!-- auth.saml_providers&#45;&gt;auth.sso_providers -->
<g id="edge2" class="edge">
<title>auth.saml_providers:sso_provider_id&#45;&gt;auth.sso_providers:id</title>
<path fill="none" stroke="#000000" d="M540.4699,-529.7588C507.1386,-481.8661 514.3102,-150.5 554,-150.5"/>
<polygon fill="#000000" stroke="#000000" points="540.704,-529.9163 546.4873,-539.2332 544.852,-532.7082 549,-535.5 549,-535.5 549,-535.5 544.852,-532.7082 551.5127,-531.7668 540.704,-529.9163 540.704,-529.9163"/>
<text text-anchor="start" x="556.152" y="-545.5" font-family="Arial" font-size="10.00" fill="#000000">FOREIGN KEY (sso_provider_id) REFERENCES auth.sso_providers(id) ON DELETE CASCADE</text>
</g>
<!-- auth.saml_relay_states -->
<g id="node4" class="node">
<title>auth.saml_relay_states</title>
<polygon fill="#efefef" stroke="transparent" points="956,-595.5 956,-630.5 1282,-630.5 1282,-595.5 956,-595.5"/>
<polygon fill="none" stroke="#000000" points="956,-595.5 956,-630.5 1282,-630.5 1282,-595.5 956,-595.5"/>
<text text-anchor="start" x="962.6942" y="-608.3" font-family="Arial Bold" font-size="18.00" fill="#000000">auth.saml_relay_states</text>
<text text-anchor="start" x="1147.7378" y="-608.3" font-family="Arial" font-size="14.00" fill="#000000">    </text>
<text text-anchor="start" x="1181.9426" y="-608.3" font-family="Arial" font-size="14.00" fill="#666666">[BASE TABLE]</text>
<polygon fill="none" stroke="#000000" points="956,-565.5 956,-595.5 1282,-595.5 1282,-565.5 956,-565.5"/>
<text text-anchor="start" x="963" y="-576.9" font-family="Arial" font-size="14.00" fill="#000000">id    </text>
<text text-anchor="start" x="1008.094" y="-576.9" font-family="Arial" font-size="14.00" fill="#666666">[uuid]</text>
<polygon fill="none" stroke="#000000" points="956,-535.5 956,-565.5 1282,-565.5 1282,-535.5 956,-535.5"/>
<text text-anchor="start" x="963" y="-546.9" font-family="Arial" font-size="14.00" fill="#000000">sso_provider_id    </text>
<text text-anchor="start" x="1096" y="-546.9" font-family="Arial" font-size="14.00" fill="#666666">[uuid]</text>
<polygon fill="none" stroke="#000000" points="956,-505.5 956,-535.5 1282,-535.5 1282,-505.5 956,-505.5"/>
<text text-anchor="start" x="963" y="-516.9" font-family="Arial" font-size="14.00" fill="#000000">request_id    </text>
<text text-anchor="start" x="1062.5582" y="-516.9" font-family="Arial" font-size="14.00" fill="#666666">[text]</text>
<polygon fill="none" stroke="#000000" points="956,-475.5 956,-505.5 1282,-505.5 1282,-475.5 956,-475.5"/>
<text text-anchor="start" x="963" y="-486.9" font-family="Arial" font-size="14.00" fill="#000000">for_email    </text>
<text text-anchor="start" x="1054.7602" y="-486.9" font-family="Arial" font-size="14.00" fill="#666666">[text]</text>
<polygon fill="none" stroke="#000000" points="956,-445.5 956,-475.5 1282,-475.5 1282,-445.5 956,-445.5"/>
<text text-anchor="start" x="963" y="-456.9" font-family="Arial" font-size="14.00" fill="#000000">redirect_to    </text>
<text text-anchor="start" x="1063.3268" y="-456.9" font-family="Arial" font-size="14.00" fill="#666666">[text]</text>
<polygon fill="none" stroke="#000000" points="956,-415.5 956,-445.5 1282,-445.5 1282,-415.5 956,-415.5"/>
<text text-anchor="start" x="963" y="-426.9" font-family="Arial" font-size="14.00" fill="#000000">from_ip_address    </text>
<text text-anchor="start" x="1101.4446" y="-426.9" font-family="Arial" font-size="14.00" fill="#666666">[inet]</text>
<polygon fill="none" stroke="#000000" points="956,-385.5 956,-415.5 1282,-415.5 1282,-385.5 956,-385.5"/>
<text text-anchor="start" x="963" y="-396.9" font-family="Arial" font-size="14.00" fill="#000000">created_at    </text>
<text text-anchor="start" x="1063.3422" y="-396.9" font-family="Arial" font-size="14.00" fill="#666666">[timestamp with time zone]</text>
<polygon fill="none" stroke="#000000" points="956,-355.5 956,-385.5 1282,-385.5 1282,-355.5 956,-355.5"/>
<text text-anchor="start" x="963" y="-366.9" font-family="Arial" font-size="14.00" fill="#000000">updated_at    </text>
<text text-anchor="start" x="1067.2468" y="-366.9" font-family="Arial" font-size="14.00" fill="#666666">[timestamp with time zone]</text>
<polygon fill="none" stroke="#000000" points="956,-325.5 956,-355.5 1282,-355.5 1282,-325.5 956,-325.5"/>
<text text-anchor="start" x="963" y="-336.9" font-family="Arial" font-size="14.00" fill="#000000">flow_state_id    </text>
<text text-anchor="start" x="1078.892" y="-336.9" font-family="Arial" font-size="14.00" fill="#666666">[uuid]</text>
</g>
<!-- auth.saml_relay_states&#45;&gt;auth.sso_providers -->
<g id="edge3" class="edge">
<title>auth.saml_relay_states:sso_provider_id&#45;&gt;auth.sso_providers:id</title>
<path fill="none" stroke="#000000" d="M945.9276,-548.2747C898.4778,-525.6712 920.7649,-337.3643 904,-283 885.1086,-221.74 911.1068,-150.5 847,-150.5"/>
<polygon fill="#000000" stroke="#000000" points="946.2355,-548.3427 955.0292,-554.894 951.1177,-549.4213 956,-550.5 956,-550.5 956,-550.5 951.1177,-549.4213 956.9708,-546.106 946.2355,-548.3427 946.2355,-548.3427"/>
<text text-anchor="start" x="963.152" y="-560.5" font-family="Arial" font-size="10.00" fill="#000000">FOREIGN KEY (sso_provider_id) REFERENCES auth.sso_providers(id) ON DELETE CASCADE</text>
</g>
</g>
</svg>
