<?xml version="1.0" encoding="UTF-8" standalone="no"?>
<!DOCTYPE svg PUBLIC "-//W3C//DTD SVG 1.1//EN"
 "http://www.w3.org/Graphics/SVG/1.1/DTD/svg11.dtd">
<!-- Generated by graphviz version 2.40.1 (20161225.0304)
 -->
<!-- Title: auth.refresh_tokens Pages: 1 -->
<svg width="605pt" height="862pt"
 viewBox="0.00 0.00 604.50 862.00" xmlns="http://www.w3.org/2000/svg" xmlns:xlink="http://www.w3.org/1999/xlink">
<g id="graph0" class="graph" transform="scale(1 1) rotate(0) translate(4 858)">
<title>auth.refresh_tokens</title>
<polygon fill="#ffffff" stroke="transparent" points="-4,4 -4,-858 600.5,-858 600.5,4 -4,4"/>
<!-- auth.refresh_tokens -->
<g id="node1" class="node">
<title>auth.refresh_tokens</title>
<polygon fill="#efefef" stroke="transparent" points="249,-772.5 249,-807.5 549,-807.5 549,-772.5 249,-772.5"/>
<polygon fill="none" stroke="#000000" points="249,-772.5 249,-807.5 549,-807.5 549,-772.5 249,-772.5"/>
<text text-anchor="start" x="255.6884" y="-785.3" font-family="Arial Bold" font-size="18.00" fill="#000000">auth.refresh_tokens</text>
<text text-anchor="start" x="414.7436" y="-785.3" font-family="Arial" font-size="14.00" fill="#000000">    </text>
<text text-anchor="start" x="448.9484" y="-785.3" font-family="Arial" font-size="14.00" fill="#666666">[BASE TABLE]</text>
<polygon fill="none" stroke="#000000" points="249,-742.5 249,-772.5 549,-772.5 549,-742.5 249,-742.5"/>
<text text-anchor="start" x="256" y="-753.9" font-family="Arial" font-size="14.00" fill="#000000">instance_id </text>
<text text-anchor="start" x="330.69" y="-753.9" font-family="Arial" font-size="14.00" fill="#666666">[uuid]</text>
<polygon fill="none" stroke="#000000" points="249,-712.5 249,-742.5 549,-742.5 549,-712.5 249,-712.5"/>
<text text-anchor="start" x="256" y="-723.9" font-family="Arial" font-size="14.00" fill="#000000">id </text>
<text text-anchor="start" x="270.7798" y="-723.9" font-family="Arial" font-size="14.00" fill="#666666">[bigint]</text>
<polygon fill="none" stroke="#000000" points="249,-682.5 249,-712.5 549,-712.5 549,-682.5 249,-682.5"/>
<text text-anchor="start" x="256" y="-693.9" font-family="Arial" font-size="14.00" fill="#000000">token </text>
<text text-anchor="start" x="294.129" y="-693.9" font-family="Arial" font-size="14.00" fill="#666666">[varchar(255)]</text>
<polygon fill="none" stroke="#000000" points="249,-652.5 249,-682.5 549,-682.5 549,-652.5 249,-652.5"/>
<text text-anchor="start" x="256" y="-663.9" font-family="Arial" font-size="14.00" fill="#000000">user_id </text>
<text text-anchor="start" x="305.7882" y="-663.9" font-family="Arial" font-size="14.00" fill="#666666">[varchar(255)]</text>
<polygon fill="none" stroke="#000000" points="249,-622.5 249,-652.5 549,-652.5 549,-622.5 249,-622.5"/>
<text text-anchor="start" x="256" y="-633.9" font-family="Arial" font-size="14.00" fill="#000000">revoked </text>
<text text-anchor="start" x="309.6816" y="-633.9" font-family="Arial" font-size="14.00" fill="#666666">[boolean]</text>
<polygon fill="none" stroke="#000000" points="249,-592.5 249,-622.5 549,-622.5 549,-592.5 249,-592.5"/>
<text text-anchor="start" x="256" y="-603.9" font-family="Arial" font-size="14.00" fill="#000000">created_at </text>
<text text-anchor="start" x="326.028" y="-603.9" font-family="Arial" font-size="14.00" fill="#666666">[timestamp with time zone]</text>
<polygon fill="none" stroke="#000000" points="249,-562.5 249,-592.5 549,-592.5 549,-562.5 249,-562.5"/>
<text text-anchor="start" x="256" y="-573.9" font-family="Arial" font-size="14.00" fill="#000000">updated_at </text>
<text text-anchor="start" x="329.9326" y="-573.9" font-family="Arial" font-size="14.00" fill="#666666">[timestamp with time zone]</text>
<polygon fill="none" stroke="#000000" points="249,-532.5 249,-562.5 549,-562.5 549,-532.5 249,-532.5"/>
<text text-anchor="start" x="256" y="-543.9" font-family="Arial" font-size="14.00" fill="#000000">parent </text>
<text text-anchor="start" x="299.5722" y="-543.9" font-family="Arial" font-size="14.00" fill="#666666">[varchar(255)]</text>
<polygon fill="none" stroke="#000000" points="249,-502.5 249,-532.5 549,-532.5 549,-502.5 249,-502.5"/>
<text text-anchor="start" x="256" y="-513.9" font-family="Arial" font-size="14.00" fill="#000000">session_id </text>
<text text-anchor="start" x="326.0168" y="-513.9" font-family="Arial" font-size="14.00" fill="#666666">[uuid]</text>
<polygon fill="none" stroke="#000000" stroke-width="3" points="247.5,-501.5 247.5,-809.5 550.5,-809.5 550.5,-501.5 247.5,-501.5"/>
</g>
<!-- auth.sessions -->
<g id="node2" class="node">
<title>auth.sessions</title>
<polygon fill="#efefef" stroke="transparent" points="243,-342.5 243,-377.5 554,-377.5 554,-342.5 243,-342.5"/>
<polygon fill="none" stroke="#000000" points="243,-342.5 243,-377.5 554,-377.5 554,-342.5 243,-342.5"/>
<text text-anchor="start" x="279.6981" y="-355.3" font-family="Arial Bold" font-size="18.00" fill="#000000">auth.sessions</text>
<text text-anchor="start" x="389.7339" y="-355.3" font-family="Arial" font-size="14.00" fill="#000000">    </text>
<text text-anchor="start" x="423.9387" y="-355.3" font-family="Arial" font-size="14.00" fill="#666666">[BASE TABLE]</text>
<polygon fill="none" stroke="#000000" points="243,-312.5 243,-342.5 554,-342.5 554,-312.5 243,-312.5"/>
<text text-anchor="start" x="250" y="-323.9" font-family="Arial" font-size="14.00" fill="#000000">id    </text>
<text text-anchor="start" x="295.094" y="-323.9" font-family="Arial" font-size="14.00" fill="#666666">[uuid]</text>
<polygon fill="none" stroke="#000000" points="243,-282.5 243,-312.5 554,-312.5 554,-282.5 243,-282.5"/>
<text text-anchor="start" x="250" y="-293.9" font-family="Arial" font-size="14.00" fill="#000000">user_id    </text>
<text text-anchor="start" x="330.1024" y="-293.9" font-family="Arial" font-size="14.00" fill="#666666">[uuid]</text>
<polygon fill="none" stroke="#000000" points="243,-252.5 243,-282.5 554,-282.5 554,-252.5 243,-252.5"/>
<text text-anchor="start" x="250" y="-263.9" font-family="Arial" font-size="14.00" fill="#000000">created_at    </text>
<text text-anchor="start" x="350.3422" y="-263.9" font-family="Arial" font-size="14.00" fill="#666666">[timestamp with time zone]</text>
<polygon fill="none" stroke="#000000" points="243,-222.5 243,-252.5 554,-252.5 554,-222.5 243,-222.5"/>
<text text-anchor="start" x="250" y="-233.9" font-family="Arial" font-size="14.00" fill="#000000">updated_at    </text>
<text text-anchor="start" x="354.2468" y="-233.9" font-family="Arial" font-size="14.00" fill="#666666">[timestamp with time zone]</text>
<polygon fill="none" stroke="#000000" points="243,-192.5 243,-222.5 554,-222.5 554,-192.5 243,-192.5"/>
<text text-anchor="start" x="250" y="-203.9" font-family="Arial" font-size="14.00" fill="#000000">factor_id    </text>
<text text-anchor="start" x="337.8836" y="-203.9" font-family="Arial" font-size="14.00" fill="#666666">[uuid]</text>
<polygon fill="none" stroke="#000000" points="243,-162.5 243,-192.5 554,-192.5 554,-162.5 243,-162.5"/>
<text text-anchor="start" x="250" y="-173.9" font-family="Arial" font-size="14.00" fill="#000000">aal    </text>
<text text-anchor="start" x="302.8766" y="-173.9" font-family="Arial" font-size="14.00" fill="#666666">[auth.aal_level]</text>
<polygon fill="none" stroke="#000000" points="243,-132.5 243,-162.5 554,-162.5 554,-132.5 243,-132.5"/>
<text text-anchor="start" x="250" y="-143.9" font-family="Arial" font-size="14.00" fill="#000000">not_after    </text>
<text text-anchor="start" x="339.4502" y="-143.9" font-family="Arial" font-size="14.00" fill="#666666">[timestamp with time zone]</text>
<polygon fill="none" stroke="#000000" points="243,-102.5 243,-132.5 554,-132.5 554,-102.5 243,-102.5"/>
<text text-anchor="start" x="249.5372" y="-113.9" font-family="Arial" font-size="14.00" fill="#000000">refreshed_at    </text>
<text text-anchor="start" x="362.3226" y="-113.9" font-family="Arial" font-size="14.00" fill="#666666">[timestamp without time zone]</text>
<polygon fill="none" stroke="#000000" points="243,-72.5 243,-102.5 554,-102.5 554,-72.5 243,-72.5"/>
<text text-anchor="start" x="250" y="-83.9" font-family="Arial" font-size="14.00" fill="#000000">user_agent    </text>
<text text-anchor="start" x="354.2342" y="-83.9" font-family="Arial" font-size="14.00" fill="#666666">[text]</text>
<polygon fill="none" stroke="#000000" points="243,-42.5 243,-72.5 554,-72.5 554,-42.5 243,-42.5"/>
<text text-anchor="start" x="250" y="-53.9" font-family="Arial" font-size="14.00" fill="#000000">ip    </text>
<text text-anchor="start" x="295.094" y="-53.9" font-family="Arial" font-size="14.00" fill="#666666">[inet]</text>
</g>
<!-- auth.refresh_tokens&#45;&gt;auth.sessions -->
<g id="edge1" class="edge">
<title>auth.refresh_tokens:session_id&#45;&gt;auth.sessions:id</title>
<path fill="none" stroke="#000000" d="M399.737,-492.4551C409.595,-430.2858 515.6463,-484.499 554,-421 575.4848,-385.4294 595.5556,-327.5 554,-327.5"/>
<polygon fill="#000000" stroke="#000000" points="399.7318,-492.5268 394.5121,-502.1707 399.3659,-497.5134 399,-502.5 399,-502.5 399,-502.5 399.3659,-497.5134 403.4879,-502.8293 399.7318,-492.5268 399.7318,-492.5268"/>
<text text-anchor="start" x="7.487" y="-512.5" font-family="Arial" font-size="10.00" fill="#000000">FOREIGN KEY (session_id) REFERENCES auth.sessions(id) ON DELETE CASCADE</text>
</g>
</g>
</svg>
