<?xml version="1.0" encoding="UTF-8" standalone="no"?>
<!DOCTYPE svg PUBLIC "-//W3C//DTD SVG 1.1//EN"
 "http://www.w3.org/Graphics/SVG/1.1/DTD/svg11.dtd">
<!-- Generated by graphviz version 2.40.1 (20161225.0304)
 -->
<!-- Title: auth.sso_providers Pages: 1 -->
<svg width="1433pt" height="682pt"
 viewBox="0.00 0.00 1433.00 682.00" xmlns="http://www.w3.org/2000/svg" xmlns:xlink="http://www.w3.org/1999/xlink">
<g id="graph0" class="graph" transform="scale(1 1) rotate(0) translate(4 678)">
<title>auth.sso_providers</title>
<polygon fill="#ffffff" stroke="transparent" points="-4,4 -4,-678 1429,-678 1429,4 -4,4"/>
<!-- auth.sso_providers -->
<g id="node1" class="node">
<title>auth.sso_providers</title>
<polygon fill="#efefef" stroke="transparent" points="565,-165.5 565,-200.5 858,-200.5 858,-165.5 565,-165.5"/>
<polygon fill="none" stroke="#000000" points="565,-165.5 565,-200.5 858,-200.5 858,-165.5 565,-165.5"/>
<text text-anchor="start" x="571.6966" y="-178.3" font-family="Arial Bold" font-size="18.00" fill="#000000">auth.sso_providers</text>
<text text-anchor="start" x="723.7354" y="-178.3" font-family="Arial" font-size="14.00" fill="#000000">    </text>
<text text-anchor="start" x="757.9402" y="-178.3" font-family="Arial" font-size="14.00" fill="#666666">[BASE TABLE]</text>
<polygon fill="none" stroke="#000000" points="565,-135.5 565,-165.5 858,-165.5 858,-135.5 565,-135.5"/>
<text text-anchor="start" x="572" y="-146.9" font-family="Arial" font-size="14.00" fill="#000000">id </text>
<text text-anchor="start" x="586.7798" y="-146.9" font-family="Arial" font-size="14.00" fill="#666666">[uuid]</text>
<polygon fill="none" stroke="#000000" points="565,-105.5 565,-135.5 858,-135.5 858,-105.5 565,-105.5"/>
<text text-anchor="start" x="572" y="-116.9" font-family="Arial" font-size="14.00" fill="#000000">resource_id </text>
<text text-anchor="start" x="649.014" y="-116.9" font-family="Arial" font-size="14.00" fill="#666666">[text]</text>
<polygon fill="none" stroke="#000000" points="565,-75.5 565,-105.5 858,-105.5 858,-75.5 565,-75.5"/>
<text text-anchor="start" x="572" y="-86.9" font-family="Arial" font-size="14.00" fill="#000000">created_at </text>
<text text-anchor="start" x="642.028" y="-86.9" font-family="Arial" font-size="14.00" fill="#666666">[timestamp with time zone]</text>
<polygon fill="none" stroke="#000000" points="565,-45.5 565,-75.5 858,-75.5 858,-45.5 565,-45.5"/>
<text text-anchor="start" x="572" y="-56.9" font-family="Arial" font-size="14.00" fill="#000000">updated_at </text>
<text text-anchor="start" x="645.9326" y="-56.9" font-family="Arial" font-size="14.00" fill="#666666">[timestamp with time zone]</text>
<polygon fill="none" stroke="#000000" stroke-width="3" points="563,-44.5 563,-202.5 859,-202.5 859,-44.5 563,-44.5"/>
</g>
<!-- auth.saml_providers -->
<g id="node2" class="node">
<title>auth.saml_providers</title>
<polygon fill="#efefef" stroke="transparent" points="142,-580.5 142,-615.5 445,-615.5 445,-580.5 142,-580.5"/>
<polygon fill="none" stroke="#000000" points="142,-580.5 142,-615.5 445,-615.5 445,-580.5 142,-580.5"/>
<text text-anchor="start" x="148.7034" y="-593.3" font-family="Arial Bold" font-size="18.00" fill="#000000">auth.saml_providers</text>
<text text-anchor="start" x="310.7286" y="-593.3" font-family="Arial" font-size="14.00" fill="#000000">    </text>
<text text-anchor="start" x="344.9334" y="-593.3" font-family="Arial" font-size="14.00" fill="#666666">[BASE TABLE]</text>
<polygon fill="none" stroke="#000000" points="142,-550.5 142,-580.5 445,-580.5 445,-550.5 142,-550.5"/>
<text text-anchor="start" x="149" y="-561.9" font-family="Arial" font-size="14.00" fill="#000000">id    </text>
<text text-anchor="start" x="194.094" y="-561.9" font-family="Arial" font-size="14.00" fill="#666666">[uuid]</text>
<polygon fill="none" stroke="#000000" points="142,-520.5 142,-550.5 445,-550.5 445,-520.5 142,-520.5"/>
<text text-anchor="start" x="149" y="-531.9" font-family="Arial" font-size="14.00" fill="#000000">sso_provider_id    </text>
<text text-anchor="start" x="282" y="-531.9" font-family="Arial" font-size="14.00" fill="#666666">[uuid]</text>
<polygon fill="none" stroke="#000000" points="142,-490.5 142,-520.5 445,-520.5 445,-490.5 142,-490.5"/>
<text text-anchor="start" x="149" y="-501.9" font-family="Arial" font-size="14.00" fill="#000000">entity_id    </text>
<text text-anchor="start" x="235.3296" y="-501.9" font-family="Arial" font-size="14.00" fill="#666666">[text]</text>
<polygon fill="none" stroke="#000000" points="142,-460.5 142,-490.5 445,-490.5 445,-460.5 142,-460.5"/>
<text text-anchor="start" x="149" y="-471.9" font-family="Arial" font-size="14.00" fill="#000000">metadata_xml    </text>
<text text-anchor="start" x="271.1094" y="-471.9" font-family="Arial" font-size="14.00" fill="#666666">[text]</text>
<polygon fill="none" stroke="#000000" points="142,-430.5 142,-460.5 445,-460.5 445,-430.5 142,-430.5"/>
<text text-anchor="start" x="149" y="-441.9" font-family="Arial" font-size="14.00" fill="#000000">metadata_url    </text>
<text text-anchor="start" x="264.892" y="-441.9" font-family="Arial" font-size="14.00" fill="#666666">[text]</text>
<polygon fill="none" stroke="#000000" points="142,-400.5 142,-430.5 445,-430.5 445,-400.5 142,-400.5"/>
<text text-anchor="start" x="149" y="-411.9" font-family="Arial" font-size="14.00" fill="#000000">attribute_mapping    </text>
<text text-anchor="start" x="295.237" y="-411.9" font-family="Arial" font-size="14.00" fill="#666666">[jsonb]</text>
<polygon fill="none" stroke="#000000" points="142,-370.5 142,-400.5 445,-400.5 445,-370.5 142,-370.5"/>
<text text-anchor="start" x="149" y="-381.9" font-family="Arial" font-size="14.00" fill="#000000">created_at    </text>
<text text-anchor="start" x="249.3422" y="-381.9" font-family="Arial" font-size="14.00" fill="#666666">[timestamp with time zone]</text>
<polygon fill="none" stroke="#000000" points="142,-340.5 142,-370.5 445,-370.5 445,-340.5 142,-340.5"/>
<text text-anchor="start" x="149" y="-351.9" font-family="Arial" font-size="14.00" fill="#000000">updated_at    </text>
<text text-anchor="start" x="253.2468" y="-351.9" font-family="Arial" font-size="14.00" fill="#666666">[timestamp with time zone]</text>
</g>
<!-- auth.saml_providers&#45;&gt;auth.sso_providers -->
<g id="edge1" class="edge">
<title>auth.saml_providers:sso_provider_id&#45;&gt;auth.sso_providers:id</title>
<path fill="none" stroke="#000000" d="M454.8158,-533.258C499.418,-511.2561 479.1585,-333.6581 497,-283 518.9884,-220.5677 498.8087,-150.5 565,-150.5"/>
<polygon fill="#000000" stroke="#000000" points="454.7489,-533.2731 443.9979,-531.113 449.8745,-534.3866 445,-535.5 445,-535.5 445,-535.5 449.8745,-534.3866 446.0021,-539.887 454.7489,-533.2731 454.7489,-533.2731"/>
<text text-anchor="start" x="7.152" y="-545.5" font-family="Arial" font-size="10.00" fill="#000000">FOREIGN KEY (sso_provider_id) REFERENCES auth.sso_providers(id) ON DELETE CASCADE</text>
</g>
<!-- auth.saml_relay_states -->
<g id="node3" class="node">
<title>auth.saml_relay_states</title>
<polygon fill="#efefef" stroke="transparent" points="549,-595.5 549,-630.5 875,-630.5 875,-595.5 549,-595.5"/>
<polygon fill="none" stroke="#000000" points="549,-595.5 549,-630.5 875,-630.5 875,-595.5 549,-595.5"/>
<text text-anchor="start" x="555.6942" y="-608.3" font-family="Arial Bold" font-size="18.00" fill="#000000">auth.saml_relay_states</text>
<text text-anchor="start" x="740.7378" y="-608.3" font-family="Arial" font-size="14.00" fill="#000000">    </text>
<text text-anchor="start" x="774.9426" y="-608.3" font-family="Arial" font-size="14.00" fill="#666666">[BASE TABLE]</text>
<polygon fill="none" stroke="#000000" points="549,-565.5 549,-595.5 875,-595.5 875,-565.5 549,-565.5"/>
<text text-anchor="start" x="556" y="-576.9" font-family="Arial" font-size="14.00" fill="#000000">id    </text>
<text text-anchor="start" x="601.094" y="-576.9" font-family="Arial" font-size="14.00" fill="#666666">[uuid]</text>
<polygon fill="none" stroke="#000000" points="549,-535.5 549,-565.5 875,-565.5 875,-535.5 549,-535.5"/>
<text text-anchor="start" x="556" y="-546.9" font-family="Arial" font-size="14.00" fill="#000000">sso_provider_id    </text>
<text text-anchor="start" x="689" y="-546.9" font-family="Arial" font-size="14.00" fill="#666666">[uuid]</text>
<polygon fill="none" stroke="#000000" points="549,-505.5 549,-535.5 875,-535.5 875,-505.5 549,-505.5"/>
<text text-anchor="start" x="556" y="-516.9" font-family="Arial" font-size="14.00" fill="#000000">request_id    </text>
<text text-anchor="start" x="655.5582" y="-516.9" font-family="Arial" font-size="14.00" fill="#666666">[text]</text>
<polygon fill="none" stroke="#000000" points="549,-475.5 549,-505.5 875,-505.5 875,-475.5 549,-475.5"/>
<text text-anchor="start" x="556" y="-486.9" font-family="Arial" font-size="14.00" fill="#000000">for_email    </text>
<text text-anchor="start" x="647.7602" y="-486.9" font-family="Arial" font-size="14.00" fill="#666666">[text]</text>
<polygon fill="none" stroke="#000000" points="549,-445.5 549,-475.5 875,-475.5 875,-445.5 549,-445.5"/>
<text text-anchor="start" x="556" y="-456.9" font-family="Arial" font-size="14.00" fill="#000000">redirect_to    </text>
<text text-anchor="start" x="656.3268" y="-456.9" font-family="Arial" font-size="14.00" fill="#666666">[text]</text>
<polygon fill="none" stroke="#000000" points="549,-415.5 549,-445.5 875,-445.5 875,-415.5 549,-415.5"/>
<text text-anchor="start" x="556" y="-426.9" font-family="Arial" font-size="14.00" fill="#000000">from_ip_address    </text>
<text text-anchor="start" x="694.4446" y="-426.9" font-family="Arial" font-size="14.00" fill="#666666">[inet]</text>
<polygon fill="none" stroke="#000000" points="549,-385.5 549,-415.5 875,-415.5 875,-385.5 549,-385.5"/>
<text text-anchor="start" x="556" y="-396.9" font-family="Arial" font-size="14.00" fill="#000000">created_at    </text>
<text text-anchor="start" x="656.3422" y="-396.9" font-family="Arial" font-size="14.00" fill="#666666">[timestamp with time zone]</text>
<polygon fill="none" stroke="#000000" points="549,-355.5 549,-385.5 875,-385.5 875,-355.5 549,-355.5"/>
<text text-anchor="start" x="556" y="-366.9" font-family="Arial" font-size="14.00" fill="#000000">updated_at    </text>
<text text-anchor="start" x="660.2468" y="-366.9" font-family="Arial" font-size="14.00" fill="#666666">[timestamp with time zone]</text>
<polygon fill="none" stroke="#000000" points="549,-325.5 549,-355.5 875,-355.5 875,-325.5 549,-325.5"/>
<text text-anchor="start" x="556" y="-336.9" font-family="Arial" font-size="14.00" fill="#000000">flow_state_id    </text>
<text text-anchor="start" x="671.892" y="-336.9" font-family="Arial" font-size="14.00" fill="#666666">[uuid]</text>
</g>
<!-- auth.saml_relay_states&#45;&gt;auth.sso_providers -->
<g id="edge2" class="edge">
<title>auth.saml_relay_states:sso_provider_id&#45;&gt;auth.sso_providers:id</title>
<path fill="none" stroke="#000000" d="M539.062,-548.1356C492.0394,-524.139 511.8665,-324.7109 549,-283 640.9354,-179.7318 766.0646,-350.2682 858,-247 886.5183,-214.9662 900.8889,-150.5 858,-150.5"/>
<polygon fill="#000000" stroke="#000000" points="539.2715,-548.1853 547.9584,-554.8778 544.1358,-549.3427 549,-550.5 549,-550.5 549,-550.5 544.1358,-549.3427 550.0416,-546.1222 539.2715,-548.1853 539.2715,-548.1853"/>
<text text-anchor="start" x="556.152" y="-560.5" font-family="Arial" font-size="10.00" fill="#000000">FOREIGN KEY (sso_provider_id) REFERENCES auth.sso_providers(id) ON DELETE CASCADE</text>
</g>
<!-- auth.sso_domains -->
<g id="node4" class="node">
<title>auth.sso_domains</title>
<polygon fill="#efefef" stroke="transparent" points="980,-535.5 980,-570.5 1267,-570.5 1267,-535.5 980,-535.5"/>
<polygon fill="none" stroke="#000000" points="980,-535.5 980,-570.5 1267,-570.5 1267,-535.5 980,-535.5"/>
<text text-anchor="start" x="986.6927" y="-548.3" font-family="Arial Bold" font-size="18.00" fill="#000000">auth.sso_domains</text>
<text text-anchor="start" x="1132.7393" y="-548.3" font-family="Arial" font-size="14.00" fill="#000000">    </text>
<text text-anchor="start" x="1166.9441" y="-548.3" font-family="Arial" font-size="14.00" fill="#666666">[BASE TABLE]</text>
<polygon fill="none" stroke="#000000" points="980,-505.5 980,-535.5 1267,-535.5 1267,-505.5 980,-505.5"/>
<text text-anchor="start" x="987" y="-516.9" font-family="Arial" font-size="14.00" fill="#000000">id    </text>
<text text-anchor="start" x="1032.094" y="-516.9" font-family="Arial" font-size="14.00" fill="#666666">[uuid]</text>
<polygon fill="none" stroke="#000000" points="980,-475.5 980,-505.5 1267,-505.5 1267,-475.5 980,-475.5"/>
<text text-anchor="start" x="987" y="-486.9" font-family="Arial" font-size="14.00" fill="#000000">sso_provider_id    </text>
<text text-anchor="start" x="1120" y="-486.9" font-family="Arial" font-size="14.00" fill="#666666">[uuid]</text>
<polygon fill="none" stroke="#000000" points="980,-445.5 980,-475.5 1267,-475.5 1267,-445.5 980,-445.5"/>
<text text-anchor="start" x="987" y="-456.9" font-family="Arial" font-size="14.00" fill="#000000">domain    </text>
<text text-anchor="start" x="1067.1024" y="-456.9" font-family="Arial" font-size="14.00" fill="#666666">[text]</text>
<polygon fill="none" stroke="#000000" points="980,-415.5 980,-445.5 1267,-445.5 1267,-415.5 980,-415.5"/>
<text text-anchor="start" x="987" y="-426.9" font-family="Arial" font-size="14.00" fill="#000000">created_at    </text>
<text text-anchor="start" x="1087.3422" y="-426.9" font-family="Arial" font-size="14.00" fill="#666666">[timestamp with time zone]</text>
<polygon fill="none" stroke="#000000" points="980,-385.5 980,-415.5 1267,-415.5 1267,-385.5 980,-385.5"/>
<text text-anchor="start" x="987" y="-396.9" font-family="Arial" font-size="14.00" fill="#000000">updated_at    </text>
<text text-anchor="start" x="1091.2468" y="-396.9" font-family="Arial" font-size="14.00" fill="#666666">[timestamp with time zone]</text>
</g>
<!-- auth.sso_domains&#45;&gt;auth.sso_providers -->
<g id="edge3" class="edge">
<title>auth.sso_domains:sso_provider_id&#45;&gt;auth.sso_providers:id</title>
<path fill="none" stroke="#000000" d="M969.6133,-489.966C890.5995,-481.2804 959.6564,-368.4365 927,-283 903.2944,-220.9807 924.3954,-150.5 858,-150.5"/>
<polygon fill="#000000" stroke="#000000" points="970.0132,-489.9864 979.7689,-494.9941 975.0066,-490.2432 980,-490.5 980,-490.5 980,-490.5 975.0066,-490.2432 980.2311,-486.0059 970.0132,-489.9864 970.0132,-489.9864"/>
<text text-anchor="start" x="987.152" y="-500.5" font-family="Arial" font-size="10.00" fill="#000000">FOREIGN KEY (sso_provider_id) REFERENCES auth.sso_providers(id) ON DELETE CASCADE</text>
</g>
</g>
</svg>
