<?xml version="1.0" encoding="UTF-8" standalone="no"?>
<!DOCTYPE svg PUBLIC "-//W3C//DTD SVG 1.1//EN"
 "http://www.w3.org/Graphics/SVG/1.1/DTD/svg11.dtd">
<!-- Generated by graphviz version 2.40.1 (20161225.0304)
 -->
<!-- Title: auth.sessions Pages: 1 -->
<svg width="953pt" height="1949pt"
 viewBox="0.00 0.00 953.00 1949.00" xmlns="http://www.w3.org/2000/svg" xmlns:xlink="http://www.w3.org/1999/xlink">
<g id="graph0" class="graph" transform="scale(1 1) rotate(0) translate(4 1945)">
<title>auth.sessions</title>
<polygon fill="#ffffff" stroke="transparent" points="-4,4 -4,-1945 949,-1945 949,4 -4,4"/>
<!-- auth.sessions -->
<g id="node1" class="node">
<title>auth.sessions</title>
<polygon fill="#efefef" stroke="transparent" points="370,-1432.5 370,-1467.5 623,-1467.5 623,-1432.5 370,-1432.5"/>
<polygon fill="none" stroke="#000000" points="370,-1432.5 370,-1467.5 623,-1467.5 623,-1432.5 370,-1432.5"/>
<text text-anchor="start" x="377.6981" y="-1445.3" font-family="Arial Bold" font-size="18.00" fill="#000000">auth.sessions</text>
<text text-anchor="start" x="487.7339" y="-1445.3" font-family="Arial" font-size="14.00" fill="#000000">    </text>
<text text-anchor="start" x="521.9387" y="-1445.3" font-family="Arial" font-size="14.00" fill="#666666">[BASE TABLE]</text>
<polygon fill="none" stroke="#000000" points="370,-1402.5 370,-1432.5 623,-1432.5 623,-1402.5 370,-1402.5"/>
<text text-anchor="start" x="377" y="-1413.9" font-family="Arial" font-size="14.00" fill="#000000">id </text>
<text text-anchor="start" x="391.7798" y="-1413.9" font-family="Arial" font-size="14.00" fill="#666666">[uuid]</text>
<polygon fill="none" stroke="#000000" points="370,-1372.5 370,-1402.5 623,-1402.5 623,-1372.5 370,-1372.5"/>
<text text-anchor="start" x="377" y="-1383.9" font-family="Arial" font-size="14.00" fill="#000000">user_id </text>
<text text-anchor="start" x="426.7882" y="-1383.9" font-family="Arial" font-size="14.00" fill="#666666">[uuid]</text>
<polygon fill="none" stroke="#000000" points="370,-1342.5 370,-1372.5 623,-1372.5 623,-1342.5 370,-1342.5"/>
<text text-anchor="start" x="377" y="-1353.9" font-family="Arial" font-size="14.00" fill="#000000">created_at </text>
<text text-anchor="start" x="447.028" y="-1353.9" font-family="Arial" font-size="14.00" fill="#666666">[timestamp with time zone]</text>
<polygon fill="none" stroke="#000000" points="370,-1312.5 370,-1342.5 623,-1342.5 623,-1312.5 370,-1312.5"/>
<text text-anchor="start" x="376.6915" y="-1323.9" font-family="Arial" font-size="14.00" fill="#000000">updated_at </text>
<text text-anchor="start" x="450.6241" y="-1323.9" font-family="Arial" font-size="14.00" fill="#666666">[timestamp with time zone]</text>
<polygon fill="none" stroke="#000000" points="370,-1282.5 370,-1312.5 623,-1312.5 623,-1282.5 370,-1282.5"/>
<text text-anchor="start" x="377" y="-1293.9" font-family="Arial" font-size="14.00" fill="#000000">factor_id </text>
<text text-anchor="start" x="434.5694" y="-1293.9" font-family="Arial" font-size="14.00" fill="#666666">[uuid]</text>
<polygon fill="none" stroke="#000000" points="370,-1252.5 370,-1282.5 623,-1282.5 623,-1252.5 370,-1252.5"/>
<text text-anchor="start" x="377" y="-1263.9" font-family="Arial" font-size="14.00" fill="#000000">aal </text>
<text text-anchor="start" x="399.5624" y="-1263.9" font-family="Arial" font-size="14.00" fill="#666666">[auth.aal_level]</text>
<polygon fill="none" stroke="#000000" points="370,-1222.5 370,-1252.5 623,-1252.5 623,-1222.5 370,-1222.5"/>
<text text-anchor="start" x="377" y="-1233.9" font-family="Arial" font-size="14.00" fill="#000000">not_after </text>
<text text-anchor="start" x="436.136" y="-1233.9" font-family="Arial" font-size="14.00" fill="#666666">[timestamp with time zone]</text>
<polygon fill="none" stroke="#000000" stroke-width="3" points="368,-1221.5 368,-1469.5 624,-1469.5 624,-1221.5 368,-1221.5"/>
</g>
<!-- auth.users -->
<g id="node4" class="node">
<title>auth.users</title>
<polygon fill="#efefef" stroke="transparent" points="313,-1062.5 313,-1097.5 680,-1097.5 680,-1062.5 313,-1062.5"/>
<polygon fill="none" stroke="#000000" points="313,-1062.5 313,-1097.5 680,-1097.5 680,-1062.5 313,-1062.5"/>
<text text-anchor="start" x="390.7022" y="-1075.3" font-family="Arial Bold" font-size="18.00" fill="#000000">auth.users</text>
<text text-anchor="start" x="474.7298" y="-1075.3" font-family="Arial" font-size="14.00" fill="#000000">    </text>
<text text-anchor="start" x="508.9346" y="-1075.3" font-family="Arial" font-size="14.00" fill="#666666">[BASE TABLE]</text>
<polygon fill="none" stroke="#000000" points="313,-1032.5 313,-1062.5 680,-1062.5 680,-1032.5 313,-1032.5"/>
<text text-anchor="start" x="320" y="-1043.9" font-family="Arial" font-size="14.00" fill="#000000">instance_id    </text>
<text text-anchor="start" x="425.0042" y="-1043.9" font-family="Arial" font-size="14.00" fill="#666666">[uuid]</text>
<polygon fill="none" stroke="#000000" points="313,-1002.5 313,-1032.5 680,-1032.5 680,-1002.5 313,-1002.5"/>
<text text-anchor="start" x="320" y="-1013.9" font-family="Arial" font-size="14.00" fill="#000000">id    </text>
<text text-anchor="start" x="365.094" y="-1013.9" font-family="Arial" font-size="14.00" fill="#666666">[uuid]</text>
<polygon fill="none" stroke="#000000" points="313,-972.5 313,-1002.5 680,-1002.5 680,-972.5 313,-972.5"/>
<text text-anchor="start" x="320" y="-983.9" font-family="Arial" font-size="14.00" fill="#000000">aud    </text>
<text text-anchor="start" x="377.5526" y="-983.9" font-family="Arial" font-size="14.00" fill="#666666">[varchar(255)]</text>
<polygon fill="none" stroke="#000000" points="313,-942.5 313,-972.5 680,-972.5 680,-942.5 313,-942.5"/>
<text text-anchor="start" x="320" y="-953.9" font-family="Arial" font-size="14.00" fill="#000000">role    </text>
<text text-anchor="start" x="377.5372" y="-953.9" font-family="Arial" font-size="14.00" fill="#666666">[varchar(255)]</text>
<polygon fill="none" stroke="#000000" points="313,-912.5 313,-942.5 680,-942.5 680,-912.5 313,-912.5"/>
<text text-anchor="start" x="320" y="-923.9" font-family="Arial" font-size="14.00" fill="#000000">email    </text>
<text text-anchor="start" x="387.6438" y="-923.9" font-family="Arial" font-size="14.00" fill="#666666">[varchar(255)]</text>
<polygon fill="none" stroke="#000000" points="313,-882.5 313,-912.5 680,-912.5 680,-882.5 313,-882.5"/>
<text text-anchor="start" x="320" y="-893.9" font-family="Arial" font-size="14.00" fill="#000000">encrypted_password    </text>
<text text-anchor="start" x="483.3492" y="-893.9" font-family="Arial" font-size="14.00" fill="#666666">[varchar(255)]</text>
<polygon fill="none" stroke="#000000" points="313,-852.5 313,-882.5 680,-882.5 680,-852.5 313,-852.5"/>
<text text-anchor="start" x="320" y="-863.9" font-family="Arial" font-size="14.00" fill="#000000">email_confirmed_at    </text>
<text text-anchor="start" x="476.331" y="-863.9" font-family="Arial" font-size="14.00" fill="#666666">[timestamp with time zone]</text>
<polygon fill="none" stroke="#000000" points="313,-822.5 313,-852.5 680,-852.5 680,-822.5 313,-822.5"/>
<text text-anchor="start" x="320" y="-833.9" font-family="Arial" font-size="14.00" fill="#000000">invited_at    </text>
<text text-anchor="start" x="414.1122" y="-833.9" font-family="Arial" font-size="14.00" fill="#666666">[timestamp with time zone]</text>
<polygon fill="none" stroke="#000000" points="313,-792.5 313,-822.5 680,-822.5 680,-792.5 313,-792.5"/>
<text text-anchor="start" x="320" y="-803.9" font-family="Arial" font-size="14.00" fill="#000000">confirmation_token    </text>
<text text-anchor="start" x="472.4544" y="-803.9" font-family="Arial" font-size="14.00" fill="#666666">[varchar(255)]</text>
<polygon fill="none" stroke="#000000" points="313,-762.5 313,-792.5 680,-792.5 680,-762.5 313,-762.5"/>
<text text-anchor="start" x="320" y="-773.9" font-family="Arial" font-size="14.00" fill="#000000">confirmation_sent_at    </text>
<text text-anchor="start" x="484.1276" y="-773.9" font-family="Arial" font-size="14.00" fill="#666666">[timestamp with time zone]</text>
<polygon fill="none" stroke="#000000" points="313,-732.5 313,-762.5 680,-762.5 680,-732.5 313,-732.5"/>
<text text-anchor="start" x="320" y="-743.9" font-family="Arial" font-size="14.00" fill="#000000">recovery_token    </text>
<text text-anchor="start" x="449.8948" y="-743.9" font-family="Arial" font-size="14.00" fill="#666666">[varchar(255)]</text>
<polygon fill="none" stroke="#000000" points="313,-702.5 313,-732.5 680,-732.5 680,-702.5 313,-702.5"/>
<text text-anchor="start" x="320" y="-713.9" font-family="Arial" font-size="14.00" fill="#000000">recovery_sent_at    </text>
<text text-anchor="start" x="461.568" y="-713.9" font-family="Arial" font-size="14.00" fill="#666666">[timestamp with time zone]</text>
<polygon fill="none" stroke="#000000" points="313,-672.5 313,-702.5 680,-702.5 680,-672.5 313,-672.5"/>
<text text-anchor="start" x="320" y="-683.9" font-family="Arial" font-size="14.00" fill="#000000">email_change_token_new    </text>
<text text-anchor="start" x="516.8148" y="-683.9" font-family="Arial" font-size="14.00" fill="#666666">[varchar(255)]</text>
<polygon fill="none" stroke="#000000" points="313,-642.5 313,-672.5 680,-672.5 680,-642.5 313,-642.5"/>
<text text-anchor="start" x="320" y="-653.9" font-family="Arial" font-size="14.00" fill="#000000">email_change    </text>
<text text-anchor="start" x="441.3394" y="-653.9" font-family="Arial" font-size="14.00" fill="#666666">[varchar(255)]</text>
<polygon fill="none" stroke="#000000" points="313,-612.5 313,-642.5 680,-642.5 680,-612.5 313,-612.5"/>
<text text-anchor="start" x="320" y="-623.9" font-family="Arial" font-size="14.00" fill="#000000">email_change_sent_at    </text>
<text text-anchor="start" x="495.0336" y="-623.9" font-family="Arial" font-size="14.00" fill="#666666">[timestamp with time zone]</text>
<polygon fill="none" stroke="#000000" points="313,-582.5 313,-612.5 680,-612.5 680,-582.5 313,-582.5"/>
<text text-anchor="start" x="320" y="-593.9" font-family="Arial" font-size="14.00" fill="#000000">last_sign_in_at    </text>
<text text-anchor="start" x="447.5666" y="-593.9" font-family="Arial" font-size="14.00" fill="#666666">[timestamp with time zone]</text>
<polygon fill="none" stroke="#000000" points="313,-552.5 313,-582.5 680,-582.5 680,-552.5 313,-552.5"/>
<text text-anchor="start" x="320" y="-563.9" font-family="Arial" font-size="14.00" fill="#000000">raw_app_meta_data    </text>
<text text-anchor="start" x="481.805" y="-563.9" font-family="Arial" font-size="14.00" fill="#666666">[jsonb]</text>
<polygon fill="none" stroke="#000000" points="313,-522.5 313,-552.5 680,-552.5 680,-522.5 313,-522.5"/>
<text text-anchor="start" x="320" y="-533.9" font-family="Arial" font-size="14.00" fill="#000000">raw_user_meta_data    </text>
<text text-anchor="start" x="485.683" y="-533.9" font-family="Arial" font-size="14.00" fill="#666666">[jsonb]</text>
<polygon fill="none" stroke="#000000" points="313,-492.5 313,-522.5 680,-522.5 680,-492.5 313,-492.5"/>
<text text-anchor="start" x="320" y="-503.9" font-family="Arial" font-size="14.00" fill="#000000">is_super_admin    </text>
<text text-anchor="start" x="453" y="-503.9" font-family="Arial" font-size="14.00" fill="#666666">[boolean]</text>
<polygon fill="none" stroke="#000000" points="313,-462.5 313,-492.5 680,-492.5 680,-462.5 313,-462.5"/>
<text text-anchor="start" x="320" y="-473.9" font-family="Arial" font-size="14.00" fill="#000000">created_at    </text>
<text text-anchor="start" x="420.3422" y="-473.9" font-family="Arial" font-size="14.00" fill="#666666">[timestamp with time zone]</text>
<polygon fill="none" stroke="#000000" points="313,-432.5 313,-462.5 680,-462.5 680,-432.5 313,-432.5"/>
<text text-anchor="start" x="320" y="-443.9" font-family="Arial" font-size="14.00" fill="#000000">updated_at    </text>
<text text-anchor="start" x="424.2468" y="-443.9" font-family="Arial" font-size="14.00" fill="#666666">[timestamp with time zone]</text>
<polygon fill="none" stroke="#000000" points="313,-402.5 313,-432.5 680,-432.5 680,-402.5 313,-402.5"/>
<text text-anchor="start" x="320" y="-413.9" font-family="Arial" font-size="14.00" fill="#000000">phone    </text>
<text text-anchor="start" x="393.1178" y="-413.9" font-family="Arial" font-size="14.00" fill="#666666">[text]</text>
<polygon fill="none" stroke="#000000" points="313,-372.5 313,-402.5 680,-402.5 680,-372.5 313,-372.5"/>
<text text-anchor="start" x="320" y="-383.9" font-family="Arial" font-size="14.00" fill="#000000">phone_confirmed_at    </text>
<text text-anchor="start" x="481.805" y="-383.9" font-family="Arial" font-size="14.00" fill="#666666">[timestamp with time zone]</text>
<polygon fill="none" stroke="#000000" points="313,-342.5 313,-372.5 680,-372.5 680,-342.5 313,-342.5"/>
<text text-anchor="start" x="320" y="-353.9" font-family="Arial" font-size="14.00" fill="#000000">phone_change    </text>
<text text-anchor="start" x="446.8134" y="-353.9" font-family="Arial" font-size="14.00" fill="#666666">[text]</text>
<polygon fill="none" stroke="#000000" points="313,-312.5 313,-342.5 680,-342.5 680,-312.5 313,-312.5"/>
<text text-anchor="start" x="320" y="-323.9" font-family="Arial" font-size="14.00" fill="#000000">phone_change_token    </text>
<text text-anchor="start" x="488.8344" y="-323.9" font-family="Arial" font-size="14.00" fill="#666666">[varchar(255)]</text>
<polygon fill="none" stroke="#000000" points="313,-282.5 313,-312.5 680,-312.5 680,-282.5 313,-282.5"/>
<text text-anchor="start" x="320" y="-293.9" font-family="Arial" font-size="14.00" fill="#000000">phone_change_sent_at    </text>
<text text-anchor="start" x="500.5076" y="-293.9" font-family="Arial" font-size="14.00" fill="#666666">[timestamp with time zone]</text>
<polygon fill="none" stroke="#000000" points="313,-252.5 313,-282.5 680,-282.5 680,-252.5 313,-252.5"/>
<text text-anchor="start" x="320" y="-263.9" font-family="Arial" font-size="14.00" fill="#000000">confirmed_at    </text>
<text text-anchor="start" x="435.1094" y="-263.9" font-family="Arial" font-size="14.00" fill="#666666">[timestamp with time zone]</text>
<polygon fill="none" stroke="#000000" points="313,-222.5 313,-252.5 680,-252.5 680,-222.5 313,-222.5"/>
<text text-anchor="start" x="320" y="-233.9" font-family="Arial" font-size="14.00" fill="#000000">email_change_token_current    </text>
<text text-anchor="start" x="534.7026" y="-233.9" font-family="Arial" font-size="14.00" fill="#666666">[varchar(255)]</text>
<polygon fill="none" stroke="#000000" points="313,-192.5 313,-222.5 680,-222.5 680,-192.5 313,-192.5"/>
<text text-anchor="start" x="320" y="-203.9" font-family="Arial" font-size="14.00" fill="#000000">email_change_confirm_status    </text>
<text text-anchor="start" x="540.1346" y="-203.9" font-family="Arial" font-size="14.00" fill="#666666">[smallint]</text>
<polygon fill="none" stroke="#000000" points="313,-162.5 313,-192.5 680,-192.5 680,-162.5 313,-162.5"/>
<text text-anchor="start" x="320" y="-173.9" font-family="Arial" font-size="14.00" fill="#000000">banned_until    </text>
<text text-anchor="start" x="434.352" y="-173.9" font-family="Arial" font-size="14.00" fill="#666666">[timestamp with time zone]</text>
<polygon fill="none" stroke="#000000" points="313,-132.5 313,-162.5 680,-162.5 680,-132.5 313,-132.5"/>
<text text-anchor="start" x="320" y="-143.9" font-family="Arial" font-size="14.00" fill="#000000">reauthentication_token    </text>
<text text-anchor="start" x="495.8148" y="-143.9" font-family="Arial" font-size="14.00" fill="#666666">[varchar(255)]</text>
<polygon fill="none" stroke="#000000" points="313,-102.5 313,-132.5 680,-132.5 680,-102.5 313,-102.5"/>
<text text-anchor="start" x="319.9138" y="-113.9" font-family="Arial" font-size="14.00" fill="#000000">reauthentication_sent_at    </text>
<text text-anchor="start" x="507.4018" y="-113.9" font-family="Arial" font-size="14.00" fill="#666666">[timestamp with time zone]</text>
<polygon fill="none" stroke="#000000" points="313,-72.5 313,-102.5 680,-102.5 680,-72.5 313,-72.5"/>
<text text-anchor="start" x="320" y="-83.9" font-family="Arial" font-size="14.00" fill="#000000">is_sso_user    </text>
<text text-anchor="start" x="428.885" y="-83.9" font-family="Arial" font-size="14.00" fill="#666666">[boolean]</text>
<polygon fill="none" stroke="#000000" points="313,-42.5 313,-72.5 680,-72.5 680,-42.5 313,-42.5"/>
<text text-anchor="start" x="320" y="-53.9" font-family="Arial" font-size="14.00" fill="#000000">deleted_at    </text>
<text text-anchor="start" x="419.5708" y="-53.9" font-family="Arial" font-size="14.00" fill="#666666">[timestamp with time zone]</text>
</g>
<!-- auth.sessions&#45;&gt;auth.users -->
<g id="edge3" class="edge">
<title>auth.sessions:user_id&#45;&gt;auth.users:id</title>
<path fill="none" stroke="#000000" d="M359.9025,-1387.0395C201.3717,-1372.4798 150.0278,-1017.5 313,-1017.5"/>
<polygon fill="#000000" stroke="#000000" points="360.0104,-1387.0444 369.795,-1391.9953 365.0052,-1387.2722 370,-1387.5 370,-1387.5 370,-1387.5 365.0052,-1387.2722 370.205,-1383.0047 360.0104,-1387.0444 360.0104,-1387.0444"/>
<text text-anchor="start" x="6.936" y="-1397.5" font-family="Arial" font-size="10.00" fill="#000000">FOREIGN KEY (user_id) REFERENCES auth.users(id) ON DELETE CASCADE</text>
</g>
<!-- auth.refresh_tokens -->
<g id="node2" class="node">
<title>auth.refresh_tokens</title>
<polygon fill="#efefef" stroke="transparent" points="141,-1862.5 141,-1897.5 441,-1897.5 441,-1862.5 141,-1862.5"/>
<polygon fill="none" stroke="#000000" points="141,-1862.5 141,-1897.5 441,-1897.5 441,-1862.5 141,-1862.5"/>
<text text-anchor="start" x="147.6884" y="-1875.3" font-family="Arial Bold" font-size="18.00" fill="#000000">auth.refresh_tokens</text>
<text text-anchor="start" x="306.7436" y="-1875.3" font-family="Arial" font-size="14.00" fill="#000000">    </text>
<text text-anchor="start" x="340.9484" y="-1875.3" font-family="Arial" font-size="14.00" fill="#666666">[BASE TABLE]</text>
<polygon fill="none" stroke="#000000" points="141,-1832.5 141,-1862.5 441,-1862.5 441,-1832.5 141,-1832.5"/>
<text text-anchor="start" x="148" y="-1843.9" font-family="Arial" font-size="14.00" fill="#000000">instance_id    </text>
<text text-anchor="start" x="253.0042" y="-1843.9" font-family="Arial" font-size="14.00" fill="#666666">[uuid]</text>
<polygon fill="none" stroke="#000000" points="141,-1802.5 141,-1832.5 441,-1832.5 441,-1802.5 141,-1802.5"/>
<text text-anchor="start" x="148" y="-1813.9" font-family="Arial" font-size="14.00" fill="#000000">id    </text>
<text text-anchor="start" x="193.094" y="-1813.9" font-family="Arial" font-size="14.00" fill="#666666">[bigint]</text>
<polygon fill="none" stroke="#000000" points="141,-1772.5 141,-1802.5 441,-1802.5 441,-1772.5 141,-1772.5"/>
<text text-anchor="start" x="148" y="-1783.9" font-family="Arial" font-size="14.00" fill="#000000">token    </text>
<text text-anchor="start" x="216.4432" y="-1783.9" font-family="Arial" font-size="14.00" fill="#666666">[varchar(255)]</text>
<polygon fill="none" stroke="#000000" points="141,-1742.5 141,-1772.5 441,-1772.5 441,-1742.5 141,-1742.5"/>
<text text-anchor="start" x="148" y="-1753.9" font-family="Arial" font-size="14.00" fill="#000000">user_id    </text>
<text text-anchor="start" x="228.1024" y="-1753.9" font-family="Arial" font-size="14.00" fill="#666666">[varchar(255)]</text>
<polygon fill="none" stroke="#000000" points="141,-1712.5 141,-1742.5 441,-1742.5 441,-1712.5 141,-1712.5"/>
<text text-anchor="start" x="148" y="-1723.9" font-family="Arial" font-size="14.00" fill="#000000">revoked    </text>
<text text-anchor="start" x="231.9958" y="-1723.9" font-family="Arial" font-size="14.00" fill="#666666">[boolean]</text>
<polygon fill="none" stroke="#000000" points="141,-1682.5 141,-1712.5 441,-1712.5 441,-1682.5 141,-1682.5"/>
<text text-anchor="start" x="148" y="-1693.9" font-family="Arial" font-size="14.00" fill="#000000">created_at    </text>
<text text-anchor="start" x="248.3422" y="-1693.9" font-family="Arial" font-size="14.00" fill="#666666">[timestamp with time zone]</text>
<polygon fill="none" stroke="#000000" points="141,-1652.5 141,-1682.5 441,-1682.5 441,-1652.5 141,-1652.5"/>
<text text-anchor="start" x="148" y="-1663.9" font-family="Arial" font-size="14.00" fill="#000000">updated_at    </text>
<text text-anchor="start" x="252.2468" y="-1663.9" font-family="Arial" font-size="14.00" fill="#666666">[timestamp with time zone]</text>
<polygon fill="none" stroke="#000000" points="141,-1622.5 141,-1652.5 441,-1652.5 441,-1622.5 141,-1622.5"/>
<text text-anchor="start" x="148" y="-1633.9" font-family="Arial" font-size="14.00" fill="#000000">parent    </text>
<text text-anchor="start" x="221.8864" y="-1633.9" font-family="Arial" font-size="14.00" fill="#666666">[varchar(255)]</text>
<polygon fill="none" stroke="#000000" points="141,-1592.5 141,-1622.5 441,-1622.5 441,-1592.5 141,-1592.5"/>
<text text-anchor="start" x="148" y="-1603.9" font-family="Arial" font-size="14.00" fill="#000000">session_id    </text>
<text text-anchor="start" x="248.331" y="-1603.9" font-family="Arial" font-size="14.00" fill="#666666">[uuid]</text>
</g>
<!-- auth.refresh_tokens&#45;&gt;auth.sessions -->
<g id="edge1" class="edge">
<title>auth.refresh_tokens:session_id&#45;&gt;auth.sessions:id</title>
<path fill="none" stroke="#000000" d="M450.6923,-1604.8347C462.5265,-1596.1536 452.18,-1568.2038 441,-1550 422.4842,-1519.8517 388.5158,-1544.1483 370,-1514 347.5545,-1477.4533 327.1111,-1417.5 370,-1417.5"/>
<polygon fill="#000000" stroke="#000000" points="450.6421,-1604.8484 439.8068,-1603.1611 445.821,-1606.1742 441,-1607.5 441,-1607.5 441,-1607.5 445.821,-1606.1742 442.1932,-1611.8389 450.6421,-1604.8484 450.6421,-1604.8484"/>
<text text-anchor="start" x="448.487" y="-1591.5" font-family="Arial" font-size="10.00" fill="#000000">FOREIGN KEY (session_id) REFERENCES auth.sessions(id) ON DELETE CASCADE</text>
</g>
<!-- auth.mfa_amr_claims -->
<g id="node3" class="node">
<title>auth.mfa_amr_claims</title>
<polygon fill="#efefef" stroke="transparent" points="546,-1802.5 546,-1837.5 859,-1837.5 859,-1802.5 546,-1802.5"/>
<polygon fill="none" stroke="#000000" points="546,-1802.5 546,-1837.5 859,-1837.5 859,-1802.5 546,-1802.5"/>
<text text-anchor="start" x="552.7093" y="-1815.3" font-family="Arial Bold" font-size="18.00" fill="#000000">auth.mfa_amr_claims</text>
<text text-anchor="start" x="724.7227" y="-1815.3" font-family="Arial" font-size="14.00" fill="#000000">    </text>
<text text-anchor="start" x="758.9275" y="-1815.3" font-family="Arial" font-size="14.00" fill="#666666">[BASE TABLE]</text>
<polygon fill="none" stroke="#000000" points="546,-1772.5 546,-1802.5 859,-1802.5 859,-1772.5 546,-1772.5"/>
<text text-anchor="start" x="553" y="-1783.9" font-family="Arial" font-size="14.00" fill="#000000">session_id    </text>
<text text-anchor="start" x="653.331" y="-1783.9" font-family="Arial" font-size="14.00" fill="#666666">[uuid]</text>
<polygon fill="none" stroke="#000000" points="546,-1742.5 546,-1772.5 859,-1772.5 859,-1742.5 546,-1742.5"/>
<text text-anchor="start" x="553" y="-1753.9" font-family="Arial" font-size="14.00" fill="#000000">created_at    </text>
<text text-anchor="start" x="653.3422" y="-1753.9" font-family="Arial" font-size="14.00" fill="#666666">[timestamp with time zone]</text>
<polygon fill="none" stroke="#000000" points="546,-1712.5 546,-1742.5 859,-1742.5 859,-1712.5 546,-1712.5"/>
<text text-anchor="start" x="553" y="-1723.9" font-family="Arial" font-size="14.00" fill="#000000">updated_at    </text>
<text text-anchor="start" x="657.2468" y="-1723.9" font-family="Arial" font-size="14.00" fill="#666666">[timestamp with time zone]</text>
<polygon fill="none" stroke="#000000" points="546,-1682.5 546,-1712.5 859,-1712.5 859,-1682.5 546,-1682.5"/>
<text text-anchor="start" x="553" y="-1693.9" font-family="Arial" font-size="14.00" fill="#000000">authentication_method    </text>
<text text-anchor="start" x="728.8148" y="-1693.9" font-family="Arial" font-size="14.00" fill="#666666">[text]</text>
<polygon fill="none" stroke="#000000" points="546,-1652.5 546,-1682.5 859,-1682.5 859,-1652.5 546,-1652.5"/>
<text text-anchor="start" x="553" y="-1663.9" font-family="Arial" font-size="14.00" fill="#000000">id    </text>
<text text-anchor="start" x="598.094" y="-1663.9" font-family="Arial" font-size="14.00" fill="#666666">[uuid]</text>
</g>
<!-- auth.mfa_amr_claims&#45;&gt;auth.sessions -->
<g id="edge2" class="edge">
<title>auth.mfa_amr_claims:session_id&#45;&gt;auth.sessions:id</title>
<path fill="none" stroke="#000000" d="M535.7576,-1786.8341C471.9961,-1777.8997 521.0663,-1680.9365 546,-1610 564.1374,-1558.3992 604.8626,-1565.6008 623,-1514 637.2222,-1473.5378 665.8889,-1417.5 623,-1417.5"/>
<polygon fill="#000000" stroke="#000000" points="536.0211,-1786.8512 545.708,-1791.9905 541.0105,-1787.1756 546,-1787.5 546,-1787.5 546,-1787.5 541.0105,-1787.1756 546.292,-1783.0095 536.0211,-1786.8512 536.0211,-1786.8512"/>
<text text-anchor="start" x="553.487" y="-1797.5" font-family="Arial" font-size="10.00" fill="#000000">FOREIGN KEY (session_id) REFERENCES auth.sessions(id) ON DELETE CASCADE</text>
</g>
</g>
</svg>
