<?xml version="1.0" encoding="UTF-8" standalone="no"?>
<!DOCTYPE svg PUBLIC "-//W3C//DTD SVG 1.1//EN"
 "http://www.w3.org/Graphics/SVG/1.1/DTD/svg11.dtd">
<!-- Generated by graphviz version 2.40.1 (20161225.0304)
 -->
<!-- Title: auth.sessions Pages: 1 -->
<svg width="917pt" height="2039pt"
 viewBox="0.00 0.00 917.00 2039.00" xmlns="http://www.w3.org/2000/svg" xmlns:xlink="http://www.w3.org/1999/xlink">
<g id="graph0" class="graph" transform="scale(1 1) rotate(0) translate(4 2035)">
<title>auth.sessions</title>
<polygon fill="#ffffff" stroke="transparent" points="-4,4 -4,-2035 913,-2035 913,4 -4,4"/>
<!-- auth.sessions -->
<g id="node1" class="node">
<title>auth.sessions</title>
<polygon fill="#efefef" stroke="transparent" points="370,-1522.5 370,-1557.5 651,-1557.5 651,-1522.5 370,-1522.5"/>
<polygon fill="none" stroke="#000000" points="370,-1522.5 370,-1557.5 651,-1557.5 651,-1522.5 370,-1522.5"/>
<text text-anchor="start" x="391.6981" y="-1535.3" font-family="Arial Bold" font-size="18.00" fill="#000000">auth.sessions</text>
<text text-anchor="start" x="501.7339" y="-1535.3" font-family="Arial" font-size="14.00" fill="#000000">    </text>
<text text-anchor="start" x="535.9387" y="-1535.3" font-family="Arial" font-size="14.00" fill="#666666">[BASE TABLE]</text>
<polygon fill="none" stroke="#000000" points="370,-1492.5 370,-1522.5 651,-1522.5 651,-1492.5 370,-1492.5"/>
<text text-anchor="start" x="377" y="-1503.9" font-family="Arial" font-size="14.00" fill="#000000">id </text>
<text text-anchor="start" x="391.7798" y="-1503.9" font-family="Arial" font-size="14.00" fill="#666666">[uuid]</text>
<polygon fill="none" stroke="#000000" points="370,-1462.5 370,-1492.5 651,-1492.5 651,-1462.5 370,-1462.5"/>
<text text-anchor="start" x="377" y="-1473.9" font-family="Arial" font-size="14.00" fill="#000000">user_id </text>
<text text-anchor="start" x="426.7882" y="-1473.9" font-family="Arial" font-size="14.00" fill="#666666">[uuid]</text>
<polygon fill="none" stroke="#000000" points="370,-1432.5 370,-1462.5 651,-1462.5 651,-1432.5 370,-1432.5"/>
<text text-anchor="start" x="377" y="-1443.9" font-family="Arial" font-size="14.00" fill="#000000">created_at </text>
<text text-anchor="start" x="447.028" y="-1443.9" font-family="Arial" font-size="14.00" fill="#666666">[timestamp with time zone]</text>
<polygon fill="none" stroke="#000000" points="370,-1402.5 370,-1432.5 651,-1432.5 651,-1402.5 370,-1402.5"/>
<text text-anchor="start" x="377" y="-1413.9" font-family="Arial" font-size="14.00" fill="#000000">updated_at </text>
<text text-anchor="start" x="450.9326" y="-1413.9" font-family="Arial" font-size="14.00" fill="#666666">[timestamp with time zone]</text>
<polygon fill="none" stroke="#000000" points="370,-1372.5 370,-1402.5 651,-1402.5 651,-1372.5 370,-1372.5"/>
<text text-anchor="start" x="377" y="-1383.9" font-family="Arial" font-size="14.00" fill="#000000">factor_id </text>
<text text-anchor="start" x="434.5694" y="-1383.9" font-family="Arial" font-size="14.00" fill="#666666">[uuid]</text>
<polygon fill="none" stroke="#000000" points="370,-1342.5 370,-1372.5 651,-1372.5 651,-1342.5 370,-1342.5"/>
<text text-anchor="start" x="377" y="-1353.9" font-family="Arial" font-size="14.00" fill="#000000">aal </text>
<text text-anchor="start" x="399.5624" y="-1353.9" font-family="Arial" font-size="14.00" fill="#666666">[auth.aal_level]</text>
<polygon fill="none" stroke="#000000" points="370,-1312.5 370,-1342.5 651,-1342.5 651,-1312.5 370,-1312.5"/>
<text text-anchor="start" x="377" y="-1323.9" font-family="Arial" font-size="14.00" fill="#000000">not_after </text>
<text text-anchor="start" x="436.136" y="-1323.9" font-family="Arial" font-size="14.00" fill="#666666">[timestamp with time zone]</text>
<polygon fill="none" stroke="#000000" points="370,-1282.5 370,-1312.5 651,-1312.5 651,-1282.5 370,-1282.5"/>
<text text-anchor="start" x="376.6943" y="-1293.9" font-family="Arial" font-size="14.00" fill="#000000">refreshed_at </text>
<text text-anchor="start" x="459.1655" y="-1293.9" font-family="Arial" font-size="14.00" fill="#666666">[timestamp without time zone]</text>
<polygon fill="none" stroke="#000000" points="370,-1252.5 370,-1282.5 651,-1282.5 651,-1252.5 370,-1252.5"/>
<text text-anchor="start" x="377" y="-1263.9" font-family="Arial" font-size="14.00" fill="#000000">user_agent </text>
<text text-anchor="start" x="450.92" y="-1263.9" font-family="Arial" font-size="14.00" fill="#666666">[text]</text>
<polygon fill="none" stroke="#000000" points="370,-1222.5 370,-1252.5 651,-1252.5 651,-1222.5 370,-1222.5"/>
<text text-anchor="start" x="377" y="-1233.9" font-family="Arial" font-size="14.00" fill="#000000">ip </text>
<text text-anchor="start" x="391.7798" y="-1233.9" font-family="Arial" font-size="14.00" fill="#666666">[inet]</text>
<polygon fill="none" stroke="#000000" stroke-width="3" points="368,-1221.5 368,-1559.5 652,-1559.5 652,-1221.5 368,-1221.5"/>
</g>
<!-- auth.users -->
<g id="node4" class="node">
<title>auth.users</title>
<polygon fill="#efefef" stroke="transparent" points="327,-1062.5 327,-1097.5 694,-1097.5 694,-1062.5 327,-1062.5"/>
<polygon fill="none" stroke="#000000" points="327,-1062.5 327,-1097.5 694,-1097.5 694,-1062.5 327,-1062.5"/>
<text text-anchor="start" x="404.7022" y="-1075.3" font-family="Arial Bold" font-size="18.00" fill="#000000">auth.users</text>
<text text-anchor="start" x="488.7298" y="-1075.3" font-family="Arial" font-size="14.00" fill="#000000">    </text>
<text text-anchor="start" x="522.9346" y="-1075.3" font-family="Arial" font-size="14.00" fill="#666666">[BASE TABLE]</text>
<polygon fill="none" stroke="#000000" points="327,-1032.5 327,-1062.5 694,-1062.5 694,-1032.5 327,-1032.5"/>
<text text-anchor="start" x="334" y="-1043.9" font-family="Arial" font-size="14.00" fill="#000000">instance_id    </text>
<text text-anchor="start" x="439.0042" y="-1043.9" font-family="Arial" font-size="14.00" fill="#666666">[uuid]</text>
<polygon fill="none" stroke="#000000" points="327,-1002.5 327,-1032.5 694,-1032.5 694,-1002.5 327,-1002.5"/>
<text text-anchor="start" x="334" y="-1013.9" font-family="Arial" font-size="14.00" fill="#000000">id    </text>
<text text-anchor="start" x="379.094" y="-1013.9" font-family="Arial" font-size="14.00" fill="#666666">[uuid]</text>
<polygon fill="none" stroke="#000000" points="327,-972.5 327,-1002.5 694,-1002.5 694,-972.5 327,-972.5"/>
<text text-anchor="start" x="334" y="-983.9" font-family="Arial" font-size="14.00" fill="#000000">aud    </text>
<text text-anchor="start" x="391.5526" y="-983.9" font-family="Arial" font-size="14.00" fill="#666666">[varchar(255)]</text>
<polygon fill="none" stroke="#000000" points="327,-942.5 327,-972.5 694,-972.5 694,-942.5 327,-942.5"/>
<text text-anchor="start" x="334" y="-953.9" font-family="Arial" font-size="14.00" fill="#000000">role    </text>
<text text-anchor="start" x="391.5372" y="-953.9" font-family="Arial" font-size="14.00" fill="#666666">[varchar(255)]</text>
<polygon fill="none" stroke="#000000" points="327,-912.5 327,-942.5 694,-942.5 694,-912.5 327,-912.5"/>
<text text-anchor="start" x="334" y="-923.9" font-family="Arial" font-size="14.00" fill="#000000">email    </text>
<text text-anchor="start" x="401.6438" y="-923.9" font-family="Arial" font-size="14.00" fill="#666666">[varchar(255)]</text>
<polygon fill="none" stroke="#000000" points="327,-882.5 327,-912.5 694,-912.5 694,-882.5 327,-882.5"/>
<text text-anchor="start" x="334" y="-893.9" font-family="Arial" font-size="14.00" fill="#000000">encrypted_password    </text>
<text text-anchor="start" x="497.3492" y="-893.9" font-family="Arial" font-size="14.00" fill="#666666">[varchar(255)]</text>
<polygon fill="none" stroke="#000000" points="327,-852.5 327,-882.5 694,-882.5 694,-852.5 327,-852.5"/>
<text text-anchor="start" x="334" y="-863.9" font-family="Arial" font-size="14.00" fill="#000000">email_confirmed_at    </text>
<text text-anchor="start" x="490.331" y="-863.9" font-family="Arial" font-size="14.00" fill="#666666">[timestamp with time zone]</text>
<polygon fill="none" stroke="#000000" points="327,-822.5 327,-852.5 694,-852.5 694,-822.5 327,-822.5"/>
<text text-anchor="start" x="334" y="-833.9" font-family="Arial" font-size="14.00" fill="#000000">invited_at    </text>
<text text-anchor="start" x="428.1122" y="-833.9" font-family="Arial" font-size="14.00" fill="#666666">[timestamp with time zone]</text>
<polygon fill="none" stroke="#000000" points="327,-792.5 327,-822.5 694,-822.5 694,-792.5 327,-792.5"/>
<text text-anchor="start" x="334" y="-803.9" font-family="Arial" font-size="14.00" fill="#000000">confirmation_token    </text>
<text text-anchor="start" x="486.4544" y="-803.9" font-family="Arial" font-size="14.00" fill="#666666">[varchar(255)]</text>
<polygon fill="none" stroke="#000000" points="327,-762.5 327,-792.5 694,-792.5 694,-762.5 327,-762.5"/>
<text text-anchor="start" x="334" y="-773.9" font-family="Arial" font-size="14.00" fill="#000000">confirmation_sent_at    </text>
<text text-anchor="start" x="498.1276" y="-773.9" font-family="Arial" font-size="14.00" fill="#666666">[timestamp with time zone]</text>
<polygon fill="none" stroke="#000000" points="327,-732.5 327,-762.5 694,-762.5 694,-732.5 327,-732.5"/>
<text text-anchor="start" x="334" y="-743.9" font-family="Arial" font-size="14.00" fill="#000000">recovery_token    </text>
<text text-anchor="start" x="463.8948" y="-743.9" font-family="Arial" font-size="14.00" fill="#666666">[varchar(255)]</text>
<polygon fill="none" stroke="#000000" points="327,-702.5 327,-732.5 694,-732.5 694,-702.5 327,-702.5"/>
<text text-anchor="start" x="334" y="-713.9" font-family="Arial" font-size="14.00" fill="#000000">recovery_sent_at    </text>
<text text-anchor="start" x="475.568" y="-713.9" font-family="Arial" font-size="14.00" fill="#666666">[timestamp with time zone]</text>
<polygon fill="none" stroke="#000000" points="327,-672.5 327,-702.5 694,-702.5 694,-672.5 327,-672.5"/>
<text text-anchor="start" x="334" y="-683.9" font-family="Arial" font-size="14.00" fill="#000000">email_change_token_new    </text>
<text text-anchor="start" x="530.8148" y="-683.9" font-family="Arial" font-size="14.00" fill="#666666">[varchar(255)]</text>
<polygon fill="none" stroke="#000000" points="327,-642.5 327,-672.5 694,-672.5 694,-642.5 327,-642.5"/>
<text text-anchor="start" x="334" y="-653.9" font-family="Arial" font-size="14.00" fill="#000000">email_change    </text>
<text text-anchor="start" x="455.3394" y="-653.9" font-family="Arial" font-size="14.00" fill="#666666">[varchar(255)]</text>
<polygon fill="none" stroke="#000000" points="327,-612.5 327,-642.5 694,-642.5 694,-612.5 327,-612.5"/>
<text text-anchor="start" x="334" y="-623.9" font-family="Arial" font-size="14.00" fill="#000000">email_change_sent_at    </text>
<text text-anchor="start" x="509.0336" y="-623.9" font-family="Arial" font-size="14.00" fill="#666666">[timestamp with time zone]</text>
<polygon fill="none" stroke="#000000" points="327,-582.5 327,-612.5 694,-612.5 694,-582.5 327,-582.5"/>
<text text-anchor="start" x="334" y="-593.9" font-family="Arial" font-size="14.00" fill="#000000">last_sign_in_at    </text>
<text text-anchor="start" x="461.5666" y="-593.9" font-family="Arial" font-size="14.00" fill="#666666">[timestamp with time zone]</text>
<polygon fill="none" stroke="#000000" points="327,-552.5 327,-582.5 694,-582.5 694,-552.5 327,-552.5"/>
<text text-anchor="start" x="334" y="-563.9" font-family="Arial" font-size="14.00" fill="#000000">raw_app_meta_data    </text>
<text text-anchor="start" x="495.805" y="-563.9" font-family="Arial" font-size="14.00" fill="#666666">[jsonb]</text>
<polygon fill="none" stroke="#000000" points="327,-522.5 327,-552.5 694,-552.5 694,-522.5 327,-522.5"/>
<text text-anchor="start" x="334" y="-533.9" font-family="Arial" font-size="14.00" fill="#000000">raw_user_meta_data    </text>
<text text-anchor="start" x="499.683" y="-533.9" font-family="Arial" font-size="14.00" fill="#666666">[jsonb]</text>
<polygon fill="none" stroke="#000000" points="327,-492.5 327,-522.5 694,-522.5 694,-492.5 327,-492.5"/>
<text text-anchor="start" x="334" y="-503.9" font-family="Arial" font-size="14.00" fill="#000000">is_super_admin    </text>
<text text-anchor="start" x="467" y="-503.9" font-family="Arial" font-size="14.00" fill="#666666">[boolean]</text>
<polygon fill="none" stroke="#000000" points="327,-462.5 327,-492.5 694,-492.5 694,-462.5 327,-462.5"/>
<text text-anchor="start" x="334" y="-473.9" font-family="Arial" font-size="14.00" fill="#000000">created_at    </text>
<text text-anchor="start" x="434.3422" y="-473.9" font-family="Arial" font-size="14.00" fill="#666666">[timestamp with time zone]</text>
<polygon fill="none" stroke="#000000" points="327,-432.5 327,-462.5 694,-462.5 694,-432.5 327,-432.5"/>
<text text-anchor="start" x="334" y="-443.9" font-family="Arial" font-size="14.00" fill="#000000">updated_at    </text>
<text text-anchor="start" x="438.2468" y="-443.9" font-family="Arial" font-size="14.00" fill="#666666">[timestamp with time zone]</text>
<polygon fill="none" stroke="#000000" points="327,-402.5 327,-432.5 694,-432.5 694,-402.5 327,-402.5"/>
<text text-anchor="start" x="334" y="-413.9" font-family="Arial" font-size="14.00" fill="#000000">phone    </text>
<text text-anchor="start" x="407.1178" y="-413.9" font-family="Arial" font-size="14.00" fill="#666666">[text]</text>
<polygon fill="none" stroke="#000000" points="327,-372.5 327,-402.5 694,-402.5 694,-372.5 327,-372.5"/>
<text text-anchor="start" x="334" y="-383.9" font-family="Arial" font-size="14.00" fill="#000000">phone_confirmed_at    </text>
<text text-anchor="start" x="495.805" y="-383.9" font-family="Arial" font-size="14.00" fill="#666666">[timestamp with time zone]</text>
<polygon fill="none" stroke="#000000" points="327,-342.5 327,-372.5 694,-372.5 694,-342.5 327,-342.5"/>
<text text-anchor="start" x="334" y="-353.9" font-family="Arial" font-size="14.00" fill="#000000">phone_change    </text>
<text text-anchor="start" x="460.8134" y="-353.9" font-family="Arial" font-size="14.00" fill="#666666">[text]</text>
<polygon fill="none" stroke="#000000" points="327,-312.5 327,-342.5 694,-342.5 694,-312.5 327,-312.5"/>
<text text-anchor="start" x="334" y="-323.9" font-family="Arial" font-size="14.00" fill="#000000">phone_change_token    </text>
<text text-anchor="start" x="502.8344" y="-323.9" font-family="Arial" font-size="14.00" fill="#666666">[varchar(255)]</text>
<polygon fill="none" stroke="#000000" points="327,-282.5 327,-312.5 694,-312.5 694,-282.5 327,-282.5"/>
<text text-anchor="start" x="334" y="-293.9" font-family="Arial" font-size="14.00" fill="#000000">phone_change_sent_at    </text>
<text text-anchor="start" x="514.5076" y="-293.9" font-family="Arial" font-size="14.00" fill="#666666">[timestamp with time zone]</text>
<polygon fill="none" stroke="#000000" points="327,-252.5 327,-282.5 694,-282.5 694,-252.5 327,-252.5"/>
<text text-anchor="start" x="334" y="-263.9" font-family="Arial" font-size="14.00" fill="#000000">confirmed_at    </text>
<text text-anchor="start" x="449.1094" y="-263.9" font-family="Arial" font-size="14.00" fill="#666666">[timestamp with time zone]</text>
<polygon fill="none" stroke="#000000" points="327,-222.5 327,-252.5 694,-252.5 694,-222.5 327,-222.5"/>
<text text-anchor="start" x="334" y="-233.9" font-family="Arial" font-size="14.00" fill="#000000">email_change_token_current    </text>
<text text-anchor="start" x="548.7026" y="-233.9" font-family="Arial" font-size="14.00" fill="#666666">[varchar(255)]</text>
<polygon fill="none" stroke="#000000" points="327,-192.5 327,-222.5 694,-222.5 694,-192.5 327,-192.5"/>
<text text-anchor="start" x="334" y="-203.9" font-family="Arial" font-size="14.00" fill="#000000">email_change_confirm_status    </text>
<text text-anchor="start" x="554.1346" y="-203.9" font-family="Arial" font-size="14.00" fill="#666666">[smallint]</text>
<polygon fill="none" stroke="#000000" points="327,-162.5 327,-192.5 694,-192.5 694,-162.5 327,-162.5"/>
<text text-anchor="start" x="334" y="-173.9" font-family="Arial" font-size="14.00" fill="#000000">banned_until    </text>
<text text-anchor="start" x="448.352" y="-173.9" font-family="Arial" font-size="14.00" fill="#666666">[timestamp with time zone]</text>
<polygon fill="none" stroke="#000000" points="327,-132.5 327,-162.5 694,-162.5 694,-132.5 327,-132.5"/>
<text text-anchor="start" x="334" y="-143.9" font-family="Arial" font-size="14.00" fill="#000000">reauthentication_token    </text>
<text text-anchor="start" x="509.8148" y="-143.9" font-family="Arial" font-size="14.00" fill="#666666">[varchar(255)]</text>
<polygon fill="none" stroke="#000000" points="327,-102.5 327,-132.5 694,-132.5 694,-102.5 327,-102.5"/>
<text text-anchor="start" x="333.9138" y="-113.9" font-family="Arial" font-size="14.00" fill="#000000">reauthentication_sent_at    </text>
<text text-anchor="start" x="521.4018" y="-113.9" font-family="Arial" font-size="14.00" fill="#666666">[timestamp with time zone]</text>
<polygon fill="none" stroke="#000000" points="327,-72.5 327,-102.5 694,-102.5 694,-72.5 327,-72.5"/>
<text text-anchor="start" x="334" y="-83.9" font-family="Arial" font-size="14.00" fill="#000000">is_sso_user    </text>
<text text-anchor="start" x="442.885" y="-83.9" font-family="Arial" font-size="14.00" fill="#666666">[boolean]</text>
<polygon fill="none" stroke="#000000" points="327,-42.5 327,-72.5 694,-72.5 694,-42.5 327,-42.5"/>
<text text-anchor="start" x="334" y="-53.9" font-family="Arial" font-size="14.00" fill="#000000">deleted_at    </text>
<text text-anchor="start" x="433.5708" y="-53.9" font-family="Arial" font-size="14.00" fill="#666666">[timestamp with time zone]</text>
</g>
<!-- auth.sessions&#45;&gt;auth.users -->
<g id="edge3" class="edge">
<title>auth.sessions:user_id&#45;&gt;auth.users:id</title>
<path fill="none" stroke="#000000" d="M359.9079,-1477.1239C163.305,-1462.3533 125.0732,-1017.5 327,-1017.5"/>
<polygon fill="#000000" stroke="#000000" points="360.0069,-1477.1275 369.8324,-1481.9969 365.0035,-1477.3137 370,-1477.5 370,-1477.5 370,-1477.5 365.0035,-1477.3137 370.1676,-1473.0031 360.0069,-1477.1275 360.0069,-1477.1275"/>
<text text-anchor="start" x="6.936" y="-1487.5" font-family="Arial" font-size="10.00" fill="#000000">FOREIGN KEY (user_id) REFERENCES auth.users(id) ON DELETE CASCADE</text>
</g>
<!-- auth.mfa_amr_claims -->
<g id="node2" class="node">
<title>auth.mfa_amr_claims</title>
<polygon fill="#efefef" stroke="transparent" points="149,-1892.5 149,-1927.5 462,-1927.5 462,-1892.5 149,-1892.5"/>
<polygon fill="none" stroke="#000000" points="149,-1892.5 149,-1927.5 462,-1927.5 462,-1892.5 149,-1892.5"/>
<text text-anchor="start" x="155.7093" y="-1905.3" font-family="Arial Bold" font-size="18.00" fill="#000000">auth.mfa_amr_claims</text>
<text text-anchor="start" x="327.7227" y="-1905.3" font-family="Arial" font-size="14.00" fill="#000000">    </text>
<text text-anchor="start" x="361.9275" y="-1905.3" font-family="Arial" font-size="14.00" fill="#666666">[BASE TABLE]</text>
<polygon fill="none" stroke="#000000" points="149,-1862.5 149,-1892.5 462,-1892.5 462,-1862.5 149,-1862.5"/>
<text text-anchor="start" x="156" y="-1873.9" font-family="Arial" font-size="14.00" fill="#000000">session_id    </text>
<text text-anchor="start" x="256.331" y="-1873.9" font-family="Arial" font-size="14.00" fill="#666666">[uuid]</text>
<polygon fill="none" stroke="#000000" points="149,-1832.5 149,-1862.5 462,-1862.5 462,-1832.5 149,-1832.5"/>
<text text-anchor="start" x="156" y="-1843.9" font-family="Arial" font-size="14.00" fill="#000000">created_at    </text>
<text text-anchor="start" x="256.3422" y="-1843.9" font-family="Arial" font-size="14.00" fill="#666666">[timestamp with time zone]</text>
<polygon fill="none" stroke="#000000" points="149,-1802.5 149,-1832.5 462,-1832.5 462,-1802.5 149,-1802.5"/>
<text text-anchor="start" x="156" y="-1813.9" font-family="Arial" font-size="14.00" fill="#000000">updated_at    </text>
<text text-anchor="start" x="260.2468" y="-1813.9" font-family="Arial" font-size="14.00" fill="#666666">[timestamp with time zone]</text>
<polygon fill="none" stroke="#000000" points="149,-1772.5 149,-1802.5 462,-1802.5 462,-1772.5 149,-1772.5"/>
<text text-anchor="start" x="156" y="-1783.9" font-family="Arial" font-size="14.00" fill="#000000">authentication_method    </text>
<text text-anchor="start" x="331.8148" y="-1783.9" font-family="Arial" font-size="14.00" fill="#666666">[text]</text>
<polygon fill="none" stroke="#000000" points="149,-1742.5 149,-1772.5 462,-1772.5 462,-1742.5 149,-1742.5"/>
<text text-anchor="start" x="156" y="-1753.9" font-family="Arial" font-size="14.00" fill="#000000">id    </text>
<text text-anchor="start" x="201.094" y="-1753.9" font-family="Arial" font-size="14.00" fill="#666666">[uuid]</text>
</g>
<!-- auth.mfa_amr_claims&#45;&gt;auth.sessions -->
<g id="edge1" class="edge">
<title>auth.mfa_amr_claims:session_id&#45;&gt;auth.sessions:id</title>
<path fill="none" stroke="#000000" d="M472.2629,-1876.8264C536.2946,-1867.7903 490.0338,-1769.7695 462,-1700 439.9669,-1645.1649 392.0331,-1658.8351 370,-1604 354.0095,-1564.2035 327.1111,-1507.5 370,-1507.5"/>
<polygon fill="#000000" stroke="#000000" points="471.9785,-1876.845 461.7052,-1873.0097 466.9893,-1877.1725 462,-1877.5 462,-1877.5 462,-1877.5 466.9893,-1877.1725 462.2948,-1881.9903 471.9785,-1876.845 471.9785,-1876.845"/>
<text text-anchor="start" x="70.487" y="-1887.5" font-family="Arial" font-size="10.00" fill="#000000">FOREIGN KEY (session_id) REFERENCES auth.sessions(id) ON DELETE CASCADE</text>
</g>
<!-- auth.refresh_tokens -->
<g id="node3" class="node">
<title>auth.refresh_tokens</title>
<polygon fill="#efefef" stroke="transparent" points="566,-1952.5 566,-1987.5 866,-1987.5 866,-1952.5 566,-1952.5"/>
<polygon fill="none" stroke="#000000" points="566,-1952.5 566,-1987.5 866,-1987.5 866,-1952.5 566,-1952.5"/>
<text text-anchor="start" x="572.6884" y="-1965.3" font-family="Arial Bold" font-size="18.00" fill="#000000">auth.refresh_tokens</text>
<text text-anchor="start" x="731.7436" y="-1965.3" font-family="Arial" font-size="14.00" fill="#000000">    </text>
<text text-anchor="start" x="765.9484" y="-1965.3" font-family="Arial" font-size="14.00" fill="#666666">[BASE TABLE]</text>
<polygon fill="none" stroke="#000000" points="566,-1922.5 566,-1952.5 866,-1952.5 866,-1922.5 566,-1922.5"/>
<text text-anchor="start" x="573" y="-1933.9" font-family="Arial" font-size="14.00" fill="#000000">instance_id    </text>
<text text-anchor="start" x="678.0042" y="-1933.9" font-family="Arial" font-size="14.00" fill="#666666">[uuid]</text>
<polygon fill="none" stroke="#000000" points="566,-1892.5 566,-1922.5 866,-1922.5 866,-1892.5 566,-1892.5"/>
<text text-anchor="start" x="573" y="-1903.9" font-family="Arial" font-size="14.00" fill="#000000">id    </text>
<text text-anchor="start" x="618.094" y="-1903.9" font-family="Arial" font-size="14.00" fill="#666666">[bigint]</text>
<polygon fill="none" stroke="#000000" points="566,-1862.5 566,-1892.5 866,-1892.5 866,-1862.5 566,-1862.5"/>
<text text-anchor="start" x="573" y="-1873.9" font-family="Arial" font-size="14.00" fill="#000000">token    </text>
<text text-anchor="start" x="641.4432" y="-1873.9" font-family="Arial" font-size="14.00" fill="#666666">[varchar(255)]</text>
<polygon fill="none" stroke="#000000" points="566,-1832.5 566,-1862.5 866,-1862.5 866,-1832.5 566,-1832.5"/>
<text text-anchor="start" x="573" y="-1843.9" font-family="Arial" font-size="14.00" fill="#000000">user_id    </text>
<text text-anchor="start" x="653.1024" y="-1843.9" font-family="Arial" font-size="14.00" fill="#666666">[varchar(255)]</text>
<polygon fill="none" stroke="#000000" points="566,-1802.5 566,-1832.5 866,-1832.5 866,-1802.5 566,-1802.5"/>
<text text-anchor="start" x="573" y="-1813.9" font-family="Arial" font-size="14.00" fill="#000000">revoked    </text>
<text text-anchor="start" x="656.9958" y="-1813.9" font-family="Arial" font-size="14.00" fill="#666666">[boolean]</text>
<polygon fill="none" stroke="#000000" points="566,-1772.5 566,-1802.5 866,-1802.5 866,-1772.5 566,-1772.5"/>
<text text-anchor="start" x="573" y="-1783.9" font-family="Arial" font-size="14.00" fill="#000000">created_at    </text>
<text text-anchor="start" x="673.3422" y="-1783.9" font-family="Arial" font-size="14.00" fill="#666666">[timestamp with time zone]</text>
<polygon fill="none" stroke="#000000" points="566,-1742.5 566,-1772.5 866,-1772.5 866,-1742.5 566,-1742.5"/>
<text text-anchor="start" x="573" y="-1753.9" font-family="Arial" font-size="14.00" fill="#000000">updated_at    </text>
<text text-anchor="start" x="677.2468" y="-1753.9" font-family="Arial" font-size="14.00" fill="#666666">[timestamp with time zone]</text>
<polygon fill="none" stroke="#000000" points="566,-1712.5 566,-1742.5 866,-1742.5 866,-1712.5 566,-1712.5"/>
<text text-anchor="start" x="573" y="-1723.9" font-family="Arial" font-size="14.00" fill="#000000">parent    </text>
<text text-anchor="start" x="646.8864" y="-1723.9" font-family="Arial" font-size="14.00" fill="#666666">[varchar(255)]</text>
<polygon fill="none" stroke="#000000" points="566,-1682.5 566,-1712.5 866,-1712.5 866,-1682.5 566,-1682.5"/>
<text text-anchor="start" x="573" y="-1693.9" font-family="Arial" font-size="14.00" fill="#000000">session_id    </text>
<text text-anchor="start" x="673.331" y="-1693.9" font-family="Arial" font-size="14.00" fill="#666666">[uuid]</text>
</g>
<!-- auth.refresh_tokens&#45;&gt;auth.sessions -->
<g id="edge2" class="edge">
<title>auth.refresh_tokens:session_id&#45;&gt;auth.sessions:id</title>
<path fill="none" stroke="#000000" d="M556.2578,-1694.8028C544.2707,-1686.0242 554.2019,-1657.8094 566,-1640 588.6577,-1605.7978 628.3423,-1638.2022 651,-1604 674.6863,-1568.2451 693.8889,-1507.5 651,-1507.5"/>
<polygon fill="#000000" stroke="#000000" points="556.3625,-1694.8318 564.7993,-1701.8369 561.1813,-1696.1659 566,-1697.5 566,-1697.5 566,-1697.5 561.1813,-1696.1659 567.2007,-1693.1631 556.3625,-1694.8318 556.3625,-1694.8318"/>
<text text-anchor="start" x="174.487" y="-1681.5" font-family="Arial" font-size="10.00" fill="#000000">FOREIGN KEY (session_id) REFERENCES auth.sessions(id) ON DELETE CASCADE</text>
</g>
</g>
</svg>
