<?xml version="1.0" encoding="UTF-8" standalone="no"?>
<!DOCTYPE svg PUBLIC "-//W3C//DTD SVG 1.1//EN"
 "http://www.w3.org/Graphics/SVG/1.1/DTD/svg11.dtd">
<!-- Generated by graphviz version 2.40.1 (20161225.0304)
 -->
<!-- Title: auth.mfa_amr_claims Pages: 1 -->
<svg width="766pt" height="652pt"
 viewBox="0.00 0.00 765.50 652.00" xmlns="http://www.w3.org/2000/svg" xmlns:xlink="http://www.w3.org/1999/xlink">
<g id="graph0" class="graph" transform="scale(1 1) rotate(0) translate(4 648)">
<title>auth.mfa_amr_claims</title>
<polygon fill="#ffffff" stroke="transparent" points="-4,4 -4,-648 761.5,-648 761.5,4 -4,4"/>
<!-- auth.mfa_amr_claims -->
<g id="node1" class="node">
<title>auth.mfa_amr_claims</title>
<polygon fill="#efefef" stroke="transparent" points="399,-562.5 399,-597.5 712,-597.5 712,-562.5 399,-562.5"/>
<polygon fill="none" stroke="#000000" points="399,-562.5 399,-597.5 712,-597.5 712,-562.5 399,-562.5"/>
<text text-anchor="start" x="405.7093" y="-575.3" font-family="Arial Bold" font-size="18.00" fill="#000000">auth.mfa_amr_claims</text>
<text text-anchor="start" x="577.7227" y="-575.3" font-family="Arial" font-size="14.00" fill="#000000">    </text>
<text text-anchor="start" x="611.9275" y="-575.3" font-family="Arial" font-size="14.00" fill="#666666">[BASE TABLE]</text>
<polygon fill="none" stroke="#000000" points="399,-532.5 399,-562.5 712,-562.5 712,-532.5 399,-532.5"/>
<text text-anchor="start" x="406" y="-543.9" font-family="Arial" font-size="14.00" fill="#000000">session_id </text>
<text text-anchor="start" x="476.0168" y="-543.9" font-family="Arial" font-size="14.00" fill="#666666">[uuid]</text>
<polygon fill="none" stroke="#000000" points="399,-502.5 399,-532.5 712,-532.5 712,-502.5 399,-502.5"/>
<text text-anchor="start" x="406" y="-513.9" font-family="Arial" font-size="14.00" fill="#000000">created_at </text>
<text text-anchor="start" x="476.028" y="-513.9" font-family="Arial" font-size="14.00" fill="#666666">[timestamp with time zone]</text>
<polygon fill="none" stroke="#000000" points="399,-472.5 399,-502.5 712,-502.5 712,-472.5 399,-472.5"/>
<text text-anchor="start" x="406" y="-483.9" font-family="Arial" font-size="14.00" fill="#000000">updated_at </text>
<text text-anchor="start" x="479.9326" y="-483.9" font-family="Arial" font-size="14.00" fill="#666666">[timestamp with time zone]</text>
<polygon fill="none" stroke="#000000" points="399,-442.5 399,-472.5 712,-472.5 712,-442.5 399,-442.5"/>
<text text-anchor="start" x="406" y="-453.9" font-family="Arial" font-size="14.00" fill="#000000">authentication_method </text>
<text text-anchor="start" x="551.5006" y="-453.9" font-family="Arial" font-size="14.00" fill="#666666">[text]</text>
<polygon fill="none" stroke="#000000" points="399,-412.5 399,-442.5 712,-442.5 712,-412.5 399,-412.5"/>
<text text-anchor="start" x="406" y="-423.9" font-family="Arial" font-size="14.00" fill="#000000">id </text>
<text text-anchor="start" x="420.7798" y="-423.9" font-family="Arial" font-size="14.00" fill="#666666">[uuid]</text>
<polygon fill="none" stroke="#000000" stroke-width="3" points="397,-411.5 397,-599.5 713,-599.5 713,-411.5 397,-411.5"/>
</g>
<!-- auth.sessions -->
<g id="node2" class="node">
<title>auth.sessions</title>
<polygon fill="#efefef" stroke="transparent" points="414,-252.5 414,-287.5 697,-287.5 697,-252.5 414,-252.5"/>
<polygon fill="none" stroke="#000000" points="414,-252.5 414,-287.5 697,-287.5 697,-252.5 414,-252.5"/>
<text text-anchor="start" x="436.6981" y="-265.3" font-family="Arial Bold" font-size="18.00" fill="#000000">auth.sessions</text>
<text text-anchor="start" x="546.7339" y="-265.3" font-family="Arial" font-size="14.00" fill="#000000">    </text>
<text text-anchor="start" x="580.9387" y="-265.3" font-family="Arial" font-size="14.00" fill="#666666">[BASE TABLE]</text>
<polygon fill="none" stroke="#000000" points="414,-222.5 414,-252.5 697,-252.5 697,-222.5 414,-222.5"/>
<text text-anchor="start" x="421" y="-233.9" font-family="Arial" font-size="14.00" fill="#000000">id    </text>
<text text-anchor="start" x="466.094" y="-233.9" font-family="Arial" font-size="14.00" fill="#666666">[uuid]</text>
<polygon fill="none" stroke="#000000" points="414,-192.5 414,-222.5 697,-222.5 697,-192.5 414,-192.5"/>
<text text-anchor="start" x="421" y="-203.9" font-family="Arial" font-size="14.00" fill="#000000">user_id    </text>
<text text-anchor="start" x="501.1024" y="-203.9" font-family="Arial" font-size="14.00" fill="#666666">[uuid]</text>
<polygon fill="none" stroke="#000000" points="414,-162.5 414,-192.5 697,-192.5 697,-162.5 414,-162.5"/>
<text text-anchor="start" x="421" y="-173.9" font-family="Arial" font-size="14.00" fill="#000000">created_at    </text>
<text text-anchor="start" x="521.3422" y="-173.9" font-family="Arial" font-size="14.00" fill="#666666">[timestamp with time zone]</text>
<polygon fill="none" stroke="#000000" points="414,-132.5 414,-162.5 697,-162.5 697,-132.5 414,-132.5"/>
<text text-anchor="start" x="420.5344" y="-143.9" font-family="Arial" font-size="14.00" fill="#000000">updated_at    </text>
<text text-anchor="start" x="524.7812" y="-143.9" font-family="Arial" font-size="14.00" fill="#666666">[timestamp with time zone]</text>
<polygon fill="none" stroke="#000000" points="414,-102.5 414,-132.5 697,-132.5 697,-102.5 414,-102.5"/>
<text text-anchor="start" x="421" y="-113.9" font-family="Arial" font-size="14.00" fill="#000000">factor_id    </text>
<text text-anchor="start" x="508.8836" y="-113.9" font-family="Arial" font-size="14.00" fill="#666666">[uuid]</text>
<polygon fill="none" stroke="#000000" points="414,-72.5 414,-102.5 697,-102.5 697,-72.5 414,-72.5"/>
<text text-anchor="start" x="421" y="-83.9" font-family="Arial" font-size="14.00" fill="#000000">aal    </text>
<text text-anchor="start" x="473.8766" y="-83.9" font-family="Arial" font-size="14.00" fill="#666666">[auth.aal_level]</text>
<polygon fill="none" stroke="#000000" points="414,-42.5 414,-72.5 697,-72.5 697,-42.5 414,-42.5"/>
<text text-anchor="start" x="421" y="-53.9" font-family="Arial" font-size="14.00" fill="#000000">not_after    </text>
<text text-anchor="start" x="510.4502" y="-53.9" font-family="Arial" font-size="14.00" fill="#666666">[timestamp with time zone]</text>
</g>
<!-- auth.mfa_amr_claims&#45;&gt;auth.sessions -->
<g id="edge1" class="edge">
<title>auth.mfa_amr_claims:session_id&#45;&gt;auth.sessions:id</title>
<path fill="none" stroke="#000000" d="M389.1386,-545.183C331.6931,-516.815 348.5329,-237.5 414,-237.5"/>
<polygon fill="#000000" stroke="#000000" points="389.2651,-545.2126 397.9707,-551.8807 394.1326,-546.3563 399,-547.5 399,-547.5 399,-547.5 394.1326,-546.3563 400.0293,-543.1193 389.2651,-545.2126 389.2651,-545.2126"/>
<text text-anchor="start" x="7.487" y="-557.5" font-family="Arial" font-size="10.00" fill="#000000">FOREIGN KEY (session_id) REFERENCES auth.sessions(id) ON DELETE CASCADE</text>
</g>
</g>
</svg>
