<?xml version="1.0" encoding="UTF-8" standalone="no"?>
<!DOCTYPE svg PUBLIC "-//W3C//DTD SVG 1.1//EN"
 "http://www.w3.org/Graphics/SVG/1.1/DTD/svg11.dtd">
<!-- Generated by graphviz version 2.40.1 (20161225.0304)
 -->
<!-- Title: auth.refresh_tokens Pages: 1 -->
<svg width="603pt" height="772pt"
 viewBox="0.00 0.00 603.00 772.00" xmlns="http://www.w3.org/2000/svg" xmlns:xlink="http://www.w3.org/1999/xlink">
<g id="graph0" class="graph" transform="scale(1 1) rotate(0) translate(4 768)">
<title>auth.refresh_tokens</title>
<polygon fill="#ffffff" stroke="transparent" points="-4,4 -4,-768 599,-768 599,4 -4,4"/>
<!-- auth.refresh_tokens -->
<g id="node1" class="node">
<title>auth.refresh_tokens</title>
<polygon fill="#efefef" stroke="transparent" points="249,-682.5 249,-717.5 549,-717.5 549,-682.5 249,-682.5"/>
<polygon fill="none" stroke="#000000" points="249,-682.5 249,-717.5 549,-717.5 549,-682.5 249,-682.5"/>
<text text-anchor="start" x="255.6884" y="-695.3" font-family="Arial Bold" font-size="18.00" fill="#000000">auth.refresh_tokens</text>
<text text-anchor="start" x="414.7436" y="-695.3" font-family="Arial" font-size="14.00" fill="#000000">    </text>
<text text-anchor="start" x="448.9484" y="-695.3" font-family="Arial" font-size="14.00" fill="#666666">[BASE TABLE]</text>
<polygon fill="none" stroke="#000000" points="249,-652.5 249,-682.5 549,-682.5 549,-652.5 249,-652.5"/>
<text text-anchor="start" x="256" y="-663.9" font-family="Arial" font-size="14.00" fill="#000000">instance_id </text>
<text text-anchor="start" x="330.69" y="-663.9" font-family="Arial" font-size="14.00" fill="#666666">[uuid]</text>
<polygon fill="none" stroke="#000000" points="249,-622.5 249,-652.5 549,-652.5 549,-622.5 249,-622.5"/>
<text text-anchor="start" x="256" y="-633.9" font-family="Arial" font-size="14.00" fill="#000000">id </text>
<text text-anchor="start" x="270.7798" y="-633.9" font-family="Arial" font-size="14.00" fill="#666666">[bigint]</text>
<polygon fill="none" stroke="#000000" points="249,-592.5 249,-622.5 549,-622.5 549,-592.5 249,-592.5"/>
<text text-anchor="start" x="256" y="-603.9" font-family="Arial" font-size="14.00" fill="#000000">token </text>
<text text-anchor="start" x="294.129" y="-603.9" font-family="Arial" font-size="14.00" fill="#666666">[varchar(255)]</text>
<polygon fill="none" stroke="#000000" points="249,-562.5 249,-592.5 549,-592.5 549,-562.5 249,-562.5"/>
<text text-anchor="start" x="256" y="-573.9" font-family="Arial" font-size="14.00" fill="#000000">user_id </text>
<text text-anchor="start" x="305.7882" y="-573.9" font-family="Arial" font-size="14.00" fill="#666666">[varchar(255)]</text>
<polygon fill="none" stroke="#000000" points="249,-532.5 249,-562.5 549,-562.5 549,-532.5 249,-532.5"/>
<text text-anchor="start" x="256" y="-543.9" font-family="Arial" font-size="14.00" fill="#000000">revoked </text>
<text text-anchor="start" x="309.6816" y="-543.9" font-family="Arial" font-size="14.00" fill="#666666">[boolean]</text>
<polygon fill="none" stroke="#000000" points="249,-502.5 249,-532.5 549,-532.5 549,-502.5 249,-502.5"/>
<text text-anchor="start" x="256" y="-513.9" font-family="Arial" font-size="14.00" fill="#000000">created_at </text>
<text text-anchor="start" x="326.028" y="-513.9" font-family="Arial" font-size="14.00" fill="#666666">[timestamp with time zone]</text>
<polygon fill="none" stroke="#000000" points="249,-472.5 249,-502.5 549,-502.5 549,-472.5 249,-472.5"/>
<text text-anchor="start" x="256" y="-483.9" font-family="Arial" font-size="14.00" fill="#000000">updated_at </text>
<text text-anchor="start" x="329.9326" y="-483.9" font-family="Arial" font-size="14.00" fill="#666666">[timestamp with time zone]</text>
<polygon fill="none" stroke="#000000" points="249,-442.5 249,-472.5 549,-472.5 549,-442.5 249,-442.5"/>
<text text-anchor="start" x="256" y="-453.9" font-family="Arial" font-size="14.00" fill="#000000">parent </text>
<text text-anchor="start" x="299.5722" y="-453.9" font-family="Arial" font-size="14.00" fill="#666666">[varchar(255)]</text>
<polygon fill="none" stroke="#000000" points="249,-412.5 249,-442.5 549,-442.5 549,-412.5 249,-412.5"/>
<text text-anchor="start" x="256" y="-423.9" font-family="Arial" font-size="14.00" fill="#000000">session_id </text>
<text text-anchor="start" x="326.0168" y="-423.9" font-family="Arial" font-size="14.00" fill="#666666">[uuid]</text>
<polygon fill="none" stroke="#000000" stroke-width="3" points="247.5,-411.5 247.5,-719.5 550.5,-719.5 550.5,-411.5 247.5,-411.5"/>
</g>
<!-- auth.sessions -->
<g id="node2" class="node">
<title>auth.sessions</title>
<polygon fill="#efefef" stroke="transparent" points="257,-252.5 257,-287.5 540,-287.5 540,-252.5 257,-252.5"/>
<polygon fill="none" stroke="#000000" points="257,-252.5 257,-287.5 540,-287.5 540,-252.5 257,-252.5"/>
<text text-anchor="start" x="279.6981" y="-265.3" font-family="Arial Bold" font-size="18.00" fill="#000000">auth.sessions</text>
<text text-anchor="start" x="389.7339" y="-265.3" font-family="Arial" font-size="14.00" fill="#000000">    </text>
<text text-anchor="start" x="423.9387" y="-265.3" font-family="Arial" font-size="14.00" fill="#666666">[BASE TABLE]</text>
<polygon fill="none" stroke="#000000" points="257,-222.5 257,-252.5 540,-252.5 540,-222.5 257,-222.5"/>
<text text-anchor="start" x="264" y="-233.9" font-family="Arial" font-size="14.00" fill="#000000">id    </text>
<text text-anchor="start" x="309.094" y="-233.9" font-family="Arial" font-size="14.00" fill="#666666">[uuid]</text>
<polygon fill="none" stroke="#000000" points="257,-192.5 257,-222.5 540,-222.5 540,-192.5 257,-192.5"/>
<text text-anchor="start" x="264" y="-203.9" font-family="Arial" font-size="14.00" fill="#000000">user_id    </text>
<text text-anchor="start" x="344.1024" y="-203.9" font-family="Arial" font-size="14.00" fill="#666666">[uuid]</text>
<polygon fill="none" stroke="#000000" points="257,-162.5 257,-192.5 540,-192.5 540,-162.5 257,-162.5"/>
<text text-anchor="start" x="264" y="-173.9" font-family="Arial" font-size="14.00" fill="#000000">created_at    </text>
<text text-anchor="start" x="364.3422" y="-173.9" font-family="Arial" font-size="14.00" fill="#666666">[timestamp with time zone]</text>
<polygon fill="none" stroke="#000000" points="257,-132.5 257,-162.5 540,-162.5 540,-132.5 257,-132.5"/>
<text text-anchor="start" x="263.5344" y="-143.9" font-family="Arial" font-size="14.00" fill="#000000">updated_at    </text>
<text text-anchor="start" x="367.7812" y="-143.9" font-family="Arial" font-size="14.00" fill="#666666">[timestamp with time zone]</text>
<polygon fill="none" stroke="#000000" points="257,-102.5 257,-132.5 540,-132.5 540,-102.5 257,-102.5"/>
<text text-anchor="start" x="264" y="-113.9" font-family="Arial" font-size="14.00" fill="#000000">factor_id    </text>
<text text-anchor="start" x="351.8836" y="-113.9" font-family="Arial" font-size="14.00" fill="#666666">[uuid]</text>
<polygon fill="none" stroke="#000000" points="257,-72.5 257,-102.5 540,-102.5 540,-72.5 257,-72.5"/>
<text text-anchor="start" x="264" y="-83.9" font-family="Arial" font-size="14.00" fill="#000000">aal    </text>
<text text-anchor="start" x="316.8766" y="-83.9" font-family="Arial" font-size="14.00" fill="#666666">[auth.aal_level]</text>
<polygon fill="none" stroke="#000000" points="257,-42.5 257,-72.5 540,-72.5 540,-42.5 257,-42.5"/>
<text text-anchor="start" x="264" y="-53.9" font-family="Arial" font-size="14.00" fill="#000000">not_after    </text>
<text text-anchor="start" x="353.4502" y="-53.9" font-family="Arial" font-size="14.00" fill="#666666">[timestamp with time zone]</text>
</g>
<!-- auth.refresh_tokens&#45;&gt;auth.sessions -->
<g id="edge1" class="edge">
<title>auth.refresh_tokens:session_id&#45;&gt;auth.sessions:id</title>
<path fill="none" stroke="#000000" d="M399.7882,-402.4158C409.4692,-345.2594 505.6616,-390.51 540,-331 560.7688,-295.0067 581.5556,-237.5 540,-237.5"/>
<polygon fill="#000000" stroke="#000000" points="399.7794,-402.5304 394.5137,-412.1493 399.3897,-407.5152 399,-412.5 399,-412.5 399,-412.5 399.3897,-407.5152 403.4863,-412.8507 399.7794,-402.5304 399.7794,-402.5304"/>
<text text-anchor="start" x="7.487" y="-422.5" font-family="Arial" font-size="10.00" fill="#000000">FOREIGN KEY (session_id) REFERENCES auth.sessions(id) ON DELETE CASCADE</text>
</g>
</g>
</svg>
