<?xml version="1.0" encoding="UTF-8" standalone="no"?>
<!DOCTYPE svg PUBLIC "-//W3C//DTD SVG 1.1//EN"
 "http://www.w3.org/Graphics/SVG/1.1/DTD/svg11.dtd">
<!-- Generated by graphviz version 2.40.1 (20161225.0304)
 -->
<!-- Title: auth.mfa_factors Pages: 1 -->
<svg width="791pt" height="1859pt"
 viewBox="0.00 0.00 790.50 1859.00" xmlns="http://www.w3.org/2000/svg" xmlns:xlink="http://www.w3.org/1999/xlink">
<g id="graph0" class="graph" transform="scale(1 1) rotate(0) translate(4 1855)">
<title>auth.mfa_factors</title>
<polygon fill="#ffffff" stroke="transparent" points="-4,4 -4,-1855 786.5,-1855 786.5,4 -4,4"/>
<!-- auth.mfa_factors -->
<g id="node1" class="node">
<title>auth.mfa_factors</title>
<polygon fill="#efefef" stroke="transparent" points="419,-1462.5 419,-1497.5 694,-1497.5 694,-1462.5 419,-1462.5"/>
<polygon fill="none" stroke="#000000" points="419,-1462.5 419,-1497.5 694,-1497.5 694,-1462.5 419,-1462.5"/>
<text text-anchor="start" x="425.6966" y="-1475.3" font-family="Arial Bold" font-size="18.00" fill="#000000">auth.mfa_factors</text>
<text text-anchor="start" x="559.7354" y="-1475.3" font-family="Arial" font-size="14.00" fill="#000000">    </text>
<text text-anchor="start" x="593.9402" y="-1475.3" font-family="Arial" font-size="14.00" fill="#666666">[BASE TABLE]</text>
<polygon fill="none" stroke="#000000" points="419,-1432.5 419,-1462.5 694,-1462.5 694,-1432.5 419,-1432.5"/>
<text text-anchor="start" x="426" y="-1443.9" font-family="Arial" font-size="14.00" fill="#000000">id </text>
<text text-anchor="start" x="440.7798" y="-1443.9" font-family="Arial" font-size="14.00" fill="#666666">[uuid]</text>
<polygon fill="none" stroke="#000000" points="419,-1402.5 419,-1432.5 694,-1432.5 694,-1402.5 419,-1402.5"/>
<text text-anchor="start" x="426" y="-1413.9" font-family="Arial" font-size="14.00" fill="#000000">user_id </text>
<text text-anchor="start" x="475.7882" y="-1413.9" font-family="Arial" font-size="14.00" fill="#666666">[uuid]</text>
<polygon fill="none" stroke="#000000" points="419,-1372.5 419,-1402.5 694,-1402.5 694,-1372.5 419,-1372.5"/>
<text text-anchor="start" x="426" y="-1383.9" font-family="Arial" font-size="14.00" fill="#000000">friendly_name </text>
<text text-anchor="start" x="517.7938" y="-1383.9" font-family="Arial" font-size="14.00" fill="#666666">[text]</text>
<polygon fill="none" stroke="#000000" points="419,-1342.5 419,-1372.5 694,-1372.5 694,-1342.5 419,-1342.5"/>
<text text-anchor="start" x="426" y="-1353.9" font-family="Arial" font-size="14.00" fill="#000000">factor_type </text>
<text text-anchor="start" x="499.136" y="-1353.9" font-family="Arial" font-size="14.00" fill="#666666">[auth.factor_type]</text>
<polygon fill="none" stroke="#000000" points="419,-1312.5 419,-1342.5 694,-1342.5 694,-1312.5 419,-1312.5"/>
<text text-anchor="start" x="426" y="-1323.9" font-family="Arial" font-size="14.00" fill="#000000">status </text>
<text text-anchor="start" x="467.237" y="-1323.9" font-family="Arial" font-size="14.00" fill="#666666">[auth.factor_status]</text>
<polygon fill="none" stroke="#000000" points="419,-1282.5 419,-1312.5 694,-1312.5 694,-1282.5 419,-1282.5"/>
<text text-anchor="start" x="426" y="-1293.9" font-family="Arial" font-size="14.00" fill="#000000">created_at </text>
<text text-anchor="start" x="496.028" y="-1293.9" font-family="Arial" font-size="14.00" fill="#666666">[timestamp with time zone]</text>
<polygon fill="none" stroke="#000000" points="419,-1252.5 419,-1282.5 694,-1282.5 694,-1252.5 419,-1252.5"/>
<text text-anchor="start" x="426" y="-1263.9" font-family="Arial" font-size="14.00" fill="#000000">updated_at </text>
<text text-anchor="start" x="499.9326" y="-1263.9" font-family="Arial" font-size="14.00" fill="#666666">[timestamp with time zone]</text>
<polygon fill="none" stroke="#000000" points="419,-1222.5 419,-1252.5 694,-1252.5 694,-1222.5 419,-1222.5"/>
<text text-anchor="start" x="426" y="-1233.9" font-family="Arial" font-size="14.00" fill="#000000">secret </text>
<text text-anchor="start" x="468.007" y="-1233.9" font-family="Arial" font-size="14.00" fill="#666666">[text]</text>
<polygon fill="none" stroke="#000000" stroke-width="3" points="417,-1221.5 417,-1499.5 695,-1499.5 695,-1221.5 417,-1221.5"/>
</g>
<!-- auth.users -->
<g id="node3" class="node">
<title>auth.users</title>
<polygon fill="#efefef" stroke="transparent" points="373,-1062.5 373,-1097.5 740,-1097.5 740,-1062.5 373,-1062.5"/>
<polygon fill="none" stroke="#000000" points="373,-1062.5 373,-1097.5 740,-1097.5 740,-1062.5 373,-1062.5"/>
<text text-anchor="start" x="450.7022" y="-1075.3" font-family="Arial Bold" font-size="18.00" fill="#000000">auth.users</text>
<text text-anchor="start" x="534.7298" y="-1075.3" font-family="Arial" font-size="14.00" fill="#000000">    </text>
<text text-anchor="start" x="568.9346" y="-1075.3" font-family="Arial" font-size="14.00" fill="#666666">[BASE TABLE]</text>
<polygon fill="none" stroke="#000000" points="373,-1032.5 373,-1062.5 740,-1062.5 740,-1032.5 373,-1032.5"/>
<text text-anchor="start" x="380" y="-1043.9" font-family="Arial" font-size="14.00" fill="#000000">instance_id    </text>
<text text-anchor="start" x="485.0042" y="-1043.9" font-family="Arial" font-size="14.00" fill="#666666">[uuid]</text>
<polygon fill="none" stroke="#000000" points="373,-1002.5 373,-1032.5 740,-1032.5 740,-1002.5 373,-1002.5"/>
<text text-anchor="start" x="380" y="-1013.9" font-family="Arial" font-size="14.00" fill="#000000">id    </text>
<text text-anchor="start" x="425.094" y="-1013.9" font-family="Arial" font-size="14.00" fill="#666666">[uuid]</text>
<polygon fill="none" stroke="#000000" points="373,-972.5 373,-1002.5 740,-1002.5 740,-972.5 373,-972.5"/>
<text text-anchor="start" x="380" y="-983.9" font-family="Arial" font-size="14.00" fill="#000000">aud    </text>
<text text-anchor="start" x="437.5526" y="-983.9" font-family="Arial" font-size="14.00" fill="#666666">[varchar(255)]</text>
<polygon fill="none" stroke="#000000" points="373,-942.5 373,-972.5 740,-972.5 740,-942.5 373,-942.5"/>
<text text-anchor="start" x="380" y="-953.9" font-family="Arial" font-size="14.00" fill="#000000">role    </text>
<text text-anchor="start" x="437.5372" y="-953.9" font-family="Arial" font-size="14.00" fill="#666666">[varchar(255)]</text>
<polygon fill="none" stroke="#000000" points="373,-912.5 373,-942.5 740,-942.5 740,-912.5 373,-912.5"/>
<text text-anchor="start" x="380" y="-923.9" font-family="Arial" font-size="14.00" fill="#000000">email    </text>
<text text-anchor="start" x="447.6438" y="-923.9" font-family="Arial" font-size="14.00" fill="#666666">[varchar(255)]</text>
<polygon fill="none" stroke="#000000" points="373,-882.5 373,-912.5 740,-912.5 740,-882.5 373,-882.5"/>
<text text-anchor="start" x="380" y="-893.9" font-family="Arial" font-size="14.00" fill="#000000">encrypted_password    </text>
<text text-anchor="start" x="543.3492" y="-893.9" font-family="Arial" font-size="14.00" fill="#666666">[varchar(255)]</text>
<polygon fill="none" stroke="#000000" points="373,-852.5 373,-882.5 740,-882.5 740,-852.5 373,-852.5"/>
<text text-anchor="start" x="380" y="-863.9" font-family="Arial" font-size="14.00" fill="#000000">email_confirmed_at    </text>
<text text-anchor="start" x="536.331" y="-863.9" font-family="Arial" font-size="14.00" fill="#666666">[timestamp with time zone]</text>
<polygon fill="none" stroke="#000000" points="373,-822.5 373,-852.5 740,-852.5 740,-822.5 373,-822.5"/>
<text text-anchor="start" x="380" y="-833.9" font-family="Arial" font-size="14.00" fill="#000000">invited_at    </text>
<text text-anchor="start" x="474.1122" y="-833.9" font-family="Arial" font-size="14.00" fill="#666666">[timestamp with time zone]</text>
<polygon fill="none" stroke="#000000" points="373,-792.5 373,-822.5 740,-822.5 740,-792.5 373,-792.5"/>
<text text-anchor="start" x="380" y="-803.9" font-family="Arial" font-size="14.00" fill="#000000">confirmation_token    </text>
<text text-anchor="start" x="532.4544" y="-803.9" font-family="Arial" font-size="14.00" fill="#666666">[varchar(255)]</text>
<polygon fill="none" stroke="#000000" points="373,-762.5 373,-792.5 740,-792.5 740,-762.5 373,-762.5"/>
<text text-anchor="start" x="380" y="-773.9" font-family="Arial" font-size="14.00" fill="#000000">confirmation_sent_at    </text>
<text text-anchor="start" x="544.1276" y="-773.9" font-family="Arial" font-size="14.00" fill="#666666">[timestamp with time zone]</text>
<polygon fill="none" stroke="#000000" points="373,-732.5 373,-762.5 740,-762.5 740,-732.5 373,-732.5"/>
<text text-anchor="start" x="380" y="-743.9" font-family="Arial" font-size="14.00" fill="#000000">recovery_token    </text>
<text text-anchor="start" x="509.8948" y="-743.9" font-family="Arial" font-size="14.00" fill="#666666">[varchar(255)]</text>
<polygon fill="none" stroke="#000000" points="373,-702.5 373,-732.5 740,-732.5 740,-702.5 373,-702.5"/>
<text text-anchor="start" x="380" y="-713.9" font-family="Arial" font-size="14.00" fill="#000000">recovery_sent_at    </text>
<text text-anchor="start" x="521.568" y="-713.9" font-family="Arial" font-size="14.00" fill="#666666">[timestamp with time zone]</text>
<polygon fill="none" stroke="#000000" points="373,-672.5 373,-702.5 740,-702.5 740,-672.5 373,-672.5"/>
<text text-anchor="start" x="380" y="-683.9" font-family="Arial" font-size="14.00" fill="#000000">email_change_token_new    </text>
<text text-anchor="start" x="576.8148" y="-683.9" font-family="Arial" font-size="14.00" fill="#666666">[varchar(255)]</text>
<polygon fill="none" stroke="#000000" points="373,-642.5 373,-672.5 740,-672.5 740,-642.5 373,-642.5"/>
<text text-anchor="start" x="380" y="-653.9" font-family="Arial" font-size="14.00" fill="#000000">email_change    </text>
<text text-anchor="start" x="501.3394" y="-653.9" font-family="Arial" font-size="14.00" fill="#666666">[varchar(255)]</text>
<polygon fill="none" stroke="#000000" points="373,-612.5 373,-642.5 740,-642.5 740,-612.5 373,-612.5"/>
<text text-anchor="start" x="380" y="-623.9" font-family="Arial" font-size="14.00" fill="#000000">email_change_sent_at    </text>
<text text-anchor="start" x="555.0336" y="-623.9" font-family="Arial" font-size="14.00" fill="#666666">[timestamp with time zone]</text>
<polygon fill="none" stroke="#000000" points="373,-582.5 373,-612.5 740,-612.5 740,-582.5 373,-582.5"/>
<text text-anchor="start" x="380" y="-593.9" font-family="Arial" font-size="14.00" fill="#000000">last_sign_in_at    </text>
<text text-anchor="start" x="507.5666" y="-593.9" font-family="Arial" font-size="14.00" fill="#666666">[timestamp with time zone]</text>
<polygon fill="none" stroke="#000000" points="373,-552.5 373,-582.5 740,-582.5 740,-552.5 373,-552.5"/>
<text text-anchor="start" x="380" y="-563.9" font-family="Arial" font-size="14.00" fill="#000000">raw_app_meta_data    </text>
<text text-anchor="start" x="541.805" y="-563.9" font-family="Arial" font-size="14.00" fill="#666666">[jsonb]</text>
<polygon fill="none" stroke="#000000" points="373,-522.5 373,-552.5 740,-552.5 740,-522.5 373,-522.5"/>
<text text-anchor="start" x="380" y="-533.9" font-family="Arial" font-size="14.00" fill="#000000">raw_user_meta_data    </text>
<text text-anchor="start" x="545.683" y="-533.9" font-family="Arial" font-size="14.00" fill="#666666">[jsonb]</text>
<polygon fill="none" stroke="#000000" points="373,-492.5 373,-522.5 740,-522.5 740,-492.5 373,-492.5"/>
<text text-anchor="start" x="380" y="-503.9" font-family="Arial" font-size="14.00" fill="#000000">is_super_admin    </text>
<text text-anchor="start" x="513" y="-503.9" font-family="Arial" font-size="14.00" fill="#666666">[boolean]</text>
<polygon fill="none" stroke="#000000" points="373,-462.5 373,-492.5 740,-492.5 740,-462.5 373,-462.5"/>
<text text-anchor="start" x="380" y="-473.9" font-family="Arial" font-size="14.00" fill="#000000">created_at    </text>
<text text-anchor="start" x="480.3422" y="-473.9" font-family="Arial" font-size="14.00" fill="#666666">[timestamp with time zone]</text>
<polygon fill="none" stroke="#000000" points="373,-432.5 373,-462.5 740,-462.5 740,-432.5 373,-432.5"/>
<text text-anchor="start" x="380" y="-443.9" font-family="Arial" font-size="14.00" fill="#000000">updated_at    </text>
<text text-anchor="start" x="484.2468" y="-443.9" font-family="Arial" font-size="14.00" fill="#666666">[timestamp with time zone]</text>
<polygon fill="none" stroke="#000000" points="373,-402.5 373,-432.5 740,-432.5 740,-402.5 373,-402.5"/>
<text text-anchor="start" x="380" y="-413.9" font-family="Arial" font-size="14.00" fill="#000000">phone    </text>
<text text-anchor="start" x="453.1178" y="-413.9" font-family="Arial" font-size="14.00" fill="#666666">[text]</text>
<polygon fill="none" stroke="#000000" points="373,-372.5 373,-402.5 740,-402.5 740,-372.5 373,-372.5"/>
<text text-anchor="start" x="380" y="-383.9" font-family="Arial" font-size="14.00" fill="#000000">phone_confirmed_at    </text>
<text text-anchor="start" x="541.805" y="-383.9" font-family="Arial" font-size="14.00" fill="#666666">[timestamp with time zone]</text>
<polygon fill="none" stroke="#000000" points="373,-342.5 373,-372.5 740,-372.5 740,-342.5 373,-342.5"/>
<text text-anchor="start" x="380" y="-353.9" font-family="Arial" font-size="14.00" fill="#000000">phone_change    </text>
<text text-anchor="start" x="506.8134" y="-353.9" font-family="Arial" font-size="14.00" fill="#666666">[text]</text>
<polygon fill="none" stroke="#000000" points="373,-312.5 373,-342.5 740,-342.5 740,-312.5 373,-312.5"/>
<text text-anchor="start" x="380" y="-323.9" font-family="Arial" font-size="14.00" fill="#000000">phone_change_token    </text>
<text text-anchor="start" x="548.8344" y="-323.9" font-family="Arial" font-size="14.00" fill="#666666">[varchar(255)]</text>
<polygon fill="none" stroke="#000000" points="373,-282.5 373,-312.5 740,-312.5 740,-282.5 373,-282.5"/>
<text text-anchor="start" x="380" y="-293.9" font-family="Arial" font-size="14.00" fill="#000000">phone_change_sent_at    </text>
<text text-anchor="start" x="560.5076" y="-293.9" font-family="Arial" font-size="14.00" fill="#666666">[timestamp with time zone]</text>
<polygon fill="none" stroke="#000000" points="373,-252.5 373,-282.5 740,-282.5 740,-252.5 373,-252.5"/>
<text text-anchor="start" x="380" y="-263.9" font-family="Arial" font-size="14.00" fill="#000000">confirmed_at    </text>
<text text-anchor="start" x="495.1094" y="-263.9" font-family="Arial" font-size="14.00" fill="#666666">[timestamp with time zone]</text>
<polygon fill="none" stroke="#000000" points="373,-222.5 373,-252.5 740,-252.5 740,-222.5 373,-222.5"/>
<text text-anchor="start" x="380" y="-233.9" font-family="Arial" font-size="14.00" fill="#000000">email_change_token_current    </text>
<text text-anchor="start" x="594.7026" y="-233.9" font-family="Arial" font-size="14.00" fill="#666666">[varchar(255)]</text>
<polygon fill="none" stroke="#000000" points="373,-192.5 373,-222.5 740,-222.5 740,-192.5 373,-192.5"/>
<text text-anchor="start" x="380" y="-203.9" font-family="Arial" font-size="14.00" fill="#000000">email_change_confirm_status    </text>
<text text-anchor="start" x="600.1346" y="-203.9" font-family="Arial" font-size="14.00" fill="#666666">[smallint]</text>
<polygon fill="none" stroke="#000000" points="373,-162.5 373,-192.5 740,-192.5 740,-162.5 373,-162.5"/>
<text text-anchor="start" x="380" y="-173.9" font-family="Arial" font-size="14.00" fill="#000000">banned_until    </text>
<text text-anchor="start" x="494.352" y="-173.9" font-family="Arial" font-size="14.00" fill="#666666">[timestamp with time zone]</text>
<polygon fill="none" stroke="#000000" points="373,-132.5 373,-162.5 740,-162.5 740,-132.5 373,-132.5"/>
<text text-anchor="start" x="380" y="-143.9" font-family="Arial" font-size="14.00" fill="#000000">reauthentication_token    </text>
<text text-anchor="start" x="555.8148" y="-143.9" font-family="Arial" font-size="14.00" fill="#666666">[varchar(255)]</text>
<polygon fill="none" stroke="#000000" points="373,-102.5 373,-132.5 740,-132.5 740,-102.5 373,-102.5"/>
<text text-anchor="start" x="379.9138" y="-113.9" font-family="Arial" font-size="14.00" fill="#000000">reauthentication_sent_at    </text>
<text text-anchor="start" x="567.4018" y="-113.9" font-family="Arial" font-size="14.00" fill="#666666">[timestamp with time zone]</text>
<polygon fill="none" stroke="#000000" points="373,-72.5 373,-102.5 740,-102.5 740,-72.5 373,-72.5"/>
<text text-anchor="start" x="380" y="-83.9" font-family="Arial" font-size="14.00" fill="#000000">is_sso_user    </text>
<text text-anchor="start" x="488.885" y="-83.9" font-family="Arial" font-size="14.00" fill="#666666">[boolean]</text>
<polygon fill="none" stroke="#000000" points="373,-42.5 373,-72.5 740,-72.5 740,-42.5 373,-42.5"/>
<text text-anchor="start" x="380" y="-53.9" font-family="Arial" font-size="14.00" fill="#000000">deleted_at    </text>
<text text-anchor="start" x="479.5708" y="-53.9" font-family="Arial" font-size="14.00" fill="#666666">[timestamp with time zone]</text>
</g>
<!-- auth.mfa_factors&#45;&gt;auth.users -->
<g id="edge2" class="edge">
<title>auth.mfa_factors:user_id&#45;&gt;auth.users:id</title>
<path fill="none" stroke="#000000" d="M408.9711,-1415.8035C326.2179,-1387.6115 286.933,-1017.5 373,-1017.5"/>
<polygon fill="#000000" stroke="#000000" points="409.1401,-1415.8321 418.2494,-1421.937 414.07,-1416.666 419,-1417.5 419,-1417.5 419,-1417.5 414.07,-1416.666 419.7506,-1413.063 409.1401,-1415.8321 409.1401,-1415.8321"/>
<text text-anchor="start" x="55.936" y="-1427.5" font-family="Arial" font-size="10.00" fill="#000000">FOREIGN KEY (user_id) REFERENCES auth.users(id) ON DELETE CASCADE</text>
</g>
<!-- auth.mfa_challenges -->
<g id="node2" class="node">
<title>auth.mfa_challenges</title>
<polygon fill="#efefef" stroke="transparent" points="403,-1772.5 403,-1807.5 710,-1807.5 710,-1772.5 403,-1772.5"/>
<polygon fill="none" stroke="#000000" points="403,-1772.5 403,-1807.5 710,-1807.5 710,-1772.5 403,-1772.5"/>
<text text-anchor="start" x="409.6883" y="-1785.3" font-family="Arial Bold" font-size="18.00" fill="#000000">auth.mfa_challenges</text>
<text text-anchor="start" x="575.7437" y="-1785.3" font-family="Arial" font-size="14.00" fill="#000000">    </text>
<text text-anchor="start" x="609.9485" y="-1785.3" font-family="Arial" font-size="14.00" fill="#666666">[BASE TABLE]</text>
<polygon fill="none" stroke="#000000" points="403,-1742.5 403,-1772.5 710,-1772.5 710,-1742.5 403,-1742.5"/>
<text text-anchor="start" x="410" y="-1753.9" font-family="Arial" font-size="14.00" fill="#000000">id    </text>
<text text-anchor="start" x="455.094" y="-1753.9" font-family="Arial" font-size="14.00" fill="#666666">[uuid]</text>
<polygon fill="none" stroke="#000000" points="403,-1712.5 403,-1742.5 710,-1742.5 710,-1712.5 403,-1712.5"/>
<text text-anchor="start" x="410" y="-1723.9" font-family="Arial" font-size="14.00" fill="#000000">factor_id    </text>
<text text-anchor="start" x="497.8836" y="-1723.9" font-family="Arial" font-size="14.00" fill="#666666">[uuid]</text>
<polygon fill="none" stroke="#000000" points="403,-1682.5 403,-1712.5 710,-1712.5 710,-1682.5 403,-1682.5"/>
<text text-anchor="start" x="410" y="-1693.9" font-family="Arial" font-size="14.00" fill="#000000">created_at    </text>
<text text-anchor="start" x="510.3422" y="-1693.9" font-family="Arial" font-size="14.00" fill="#666666">[timestamp with time zone]</text>
<polygon fill="none" stroke="#000000" points="403,-1652.5 403,-1682.5 710,-1682.5 710,-1652.5 403,-1652.5"/>
<text text-anchor="start" x="410" y="-1663.9" font-family="Arial" font-size="14.00" fill="#000000">verified_at    </text>
<text text-anchor="start" x="508.7728" y="-1663.9" font-family="Arial" font-size="14.00" fill="#666666">[timestamp with time zone]</text>
<polygon fill="none" stroke="#000000" points="403,-1622.5 403,-1652.5 710,-1652.5 710,-1622.5 403,-1622.5"/>
<text text-anchor="start" x="410" y="-1633.9" font-family="Arial" font-size="14.00" fill="#000000">ip_address    </text>
<text text-anchor="start" x="512.6676" y="-1633.9" font-family="Arial" font-size="14.00" fill="#666666">[inet]</text>
</g>
<!-- auth.mfa_challenges&#45;&gt;auth.mfa_factors -->
<g id="edge1" class="edge">
<title>auth.mfa_challenges:factor_id&#45;&gt;auth.mfa_factors:id</title>
<path fill="none" stroke="#000000" d="M392.7475,-1726.839C279.3459,-1711.8652 297.8826,-1447.5 419,-1447.5"/>
<polygon fill="#000000" stroke="#000000" points="393.0207,-1726.8565 402.7104,-1731.9907 398.0104,-1727.1783 403,-1727.5 403,-1727.5 403,-1727.5 398.0104,-1727.1783 403.2896,-1723.0093 393.0207,-1726.8565 393.0207,-1726.8565"/>
<text text-anchor="start" x="7.265" y="-1737.5" font-family="Arial" font-size="10.00" fill="#000000">FOREIGN KEY (factor_id) REFERENCES auth.mfa_factors(id) ON DELETE CASCADE</text>
</g>
</g>
</svg>
