<?xml version="1.0" encoding="UTF-8" standalone="no"?>
<!DOCTYPE svg PUBLIC "-//W3C//DTD SVG 1.1//EN"
 "http://www.w3.org/Graphics/SVG/1.1/DTD/svg11.dtd">
<!-- Generated by graphviz version 2.40.1 (20161225.0304)
 -->
<!-- Title: auth.mfa_amr_claims Pages: 1 -->
<svg width="766pt" height="742pt"
 viewBox="0.00 0.00 765.50 742.00" xmlns="http://www.w3.org/2000/svg" xmlns:xlink="http://www.w3.org/1999/xlink">
<g id="graph0" class="graph" transform="scale(1 1) rotate(0) translate(4 738)">
<title>auth.mfa_amr_claims</title>
<polygon fill="#ffffff" stroke="transparent" points="-4,4 -4,-738 761.5,-738 761.5,4 -4,4"/>
<!-- auth.mfa_amr_claims -->
<g id="node1" class="node">
<title>auth.mfa_amr_claims</title>
<polygon fill="#efefef" stroke="transparent" points="399,-652.5 399,-687.5 712,-687.5 712,-652.5 399,-652.5"/>
<polygon fill="none" stroke="#000000" points="399,-652.5 399,-687.5 712,-687.5 712,-652.5 399,-652.5"/>
<text text-anchor="start" x="405.7093" y="-665.3" font-family="Arial Bold" font-size="18.00" fill="#000000">auth.mfa_amr_claims</text>
<text text-anchor="start" x="577.7227" y="-665.3" font-family="Arial" font-size="14.00" fill="#000000">    </text>
<text text-anchor="start" x="611.9275" y="-665.3" font-family="Arial" font-size="14.00" fill="#666666">[BASE TABLE]</text>
<polygon fill="none" stroke="#000000" points="399,-622.5 399,-652.5 712,-652.5 712,-622.5 399,-622.5"/>
<text text-anchor="start" x="406" y="-633.9" font-family="Arial" font-size="14.00" fill="#000000">session_id </text>
<text text-anchor="start" x="476.0168" y="-633.9" font-family="Arial" font-size="14.00" fill="#666666">[uuid]</text>
<polygon fill="none" stroke="#000000" points="399,-592.5 399,-622.5 712,-622.5 712,-592.5 399,-592.5"/>
<text text-anchor="start" x="406" y="-603.9" font-family="Arial" font-size="14.00" fill="#000000">created_at </text>
<text text-anchor="start" x="476.028" y="-603.9" font-family="Arial" font-size="14.00" fill="#666666">[timestamp with time zone]</text>
<polygon fill="none" stroke="#000000" points="399,-562.5 399,-592.5 712,-592.5 712,-562.5 399,-562.5"/>
<text text-anchor="start" x="406" y="-573.9" font-family="Arial" font-size="14.00" fill="#000000">updated_at </text>
<text text-anchor="start" x="479.9326" y="-573.9" font-family="Arial" font-size="14.00" fill="#666666">[timestamp with time zone]</text>
<polygon fill="none" stroke="#000000" points="399,-532.5 399,-562.5 712,-562.5 712,-532.5 399,-532.5"/>
<text text-anchor="start" x="406" y="-543.9" font-family="Arial" font-size="14.00" fill="#000000">authentication_method </text>
<text text-anchor="start" x="551.5006" y="-543.9" font-family="Arial" font-size="14.00" fill="#666666">[text]</text>
<polygon fill="none" stroke="#000000" points="399,-502.5 399,-532.5 712,-532.5 712,-502.5 399,-502.5"/>
<text text-anchor="start" x="406" y="-513.9" font-family="Arial" font-size="14.00" fill="#000000">id </text>
<text text-anchor="start" x="420.7798" y="-513.9" font-family="Arial" font-size="14.00" fill="#666666">[uuid]</text>
<polygon fill="none" stroke="#000000" stroke-width="3" points="397,-501.5 397,-689.5 713,-689.5 713,-501.5 397,-501.5"/>
</g>
<!-- auth.sessions -->
<g id="node2" class="node">
<title>auth.sessions</title>
<polygon fill="#efefef" stroke="transparent" points="400,-342.5 400,-377.5 711,-377.5 711,-342.5 400,-342.5"/>
<polygon fill="none" stroke="#000000" points="400,-342.5 400,-377.5 711,-377.5 711,-342.5 400,-342.5"/>
<text text-anchor="start" x="436.6981" y="-355.3" font-family="Arial Bold" font-size="18.00" fill="#000000">auth.sessions</text>
<text text-anchor="start" x="546.7339" y="-355.3" font-family="Arial" font-size="14.00" fill="#000000">    </text>
<text text-anchor="start" x="580.9387" y="-355.3" font-family="Arial" font-size="14.00" fill="#666666">[BASE TABLE]</text>
<polygon fill="none" stroke="#000000" points="400,-312.5 400,-342.5 711,-342.5 711,-312.5 400,-312.5"/>
<text text-anchor="start" x="407" y="-323.9" font-family="Arial" font-size="14.00" fill="#000000">id    </text>
<text text-anchor="start" x="452.094" y="-323.9" font-family="Arial" font-size="14.00" fill="#666666">[uuid]</text>
<polygon fill="none" stroke="#000000" points="400,-282.5 400,-312.5 711,-312.5 711,-282.5 400,-282.5"/>
<text text-anchor="start" x="407" y="-293.9" font-family="Arial" font-size="14.00" fill="#000000">user_id    </text>
<text text-anchor="start" x="487.1024" y="-293.9" font-family="Arial" font-size="14.00" fill="#666666">[uuid]</text>
<polygon fill="none" stroke="#000000" points="400,-252.5 400,-282.5 711,-282.5 711,-252.5 400,-252.5"/>
<text text-anchor="start" x="407" y="-263.9" font-family="Arial" font-size="14.00" fill="#000000">created_at    </text>
<text text-anchor="start" x="507.3422" y="-263.9" font-family="Arial" font-size="14.00" fill="#666666">[timestamp with time zone]</text>
<polygon fill="none" stroke="#000000" points="400,-222.5 400,-252.5 711,-252.5 711,-222.5 400,-222.5"/>
<text text-anchor="start" x="407" y="-233.9" font-family="Arial" font-size="14.00" fill="#000000">updated_at    </text>
<text text-anchor="start" x="511.2468" y="-233.9" font-family="Arial" font-size="14.00" fill="#666666">[timestamp with time zone]</text>
<polygon fill="none" stroke="#000000" points="400,-192.5 400,-222.5 711,-222.5 711,-192.5 400,-192.5"/>
<text text-anchor="start" x="407" y="-203.9" font-family="Arial" font-size="14.00" fill="#000000">factor_id    </text>
<text text-anchor="start" x="494.8836" y="-203.9" font-family="Arial" font-size="14.00" fill="#666666">[uuid]</text>
<polygon fill="none" stroke="#000000" points="400,-162.5 400,-192.5 711,-192.5 711,-162.5 400,-162.5"/>
<text text-anchor="start" x="407" y="-173.9" font-family="Arial" font-size="14.00" fill="#000000">aal    </text>
<text text-anchor="start" x="459.8766" y="-173.9" font-family="Arial" font-size="14.00" fill="#666666">[auth.aal_level]</text>
<polygon fill="none" stroke="#000000" points="400,-132.5 400,-162.5 711,-162.5 711,-132.5 400,-132.5"/>
<text text-anchor="start" x="407" y="-143.9" font-family="Arial" font-size="14.00" fill="#000000">not_after    </text>
<text text-anchor="start" x="496.4502" y="-143.9" font-family="Arial" font-size="14.00" fill="#666666">[timestamp with time zone]</text>
<polygon fill="none" stroke="#000000" points="400,-102.5 400,-132.5 711,-132.5 711,-102.5 400,-102.5"/>
<text text-anchor="start" x="406.5372" y="-113.9" font-family="Arial" font-size="14.00" fill="#000000">refreshed_at    </text>
<text text-anchor="start" x="519.3226" y="-113.9" font-family="Arial" font-size="14.00" fill="#666666">[timestamp without time zone]</text>
<polygon fill="none" stroke="#000000" points="400,-72.5 400,-102.5 711,-102.5 711,-72.5 400,-72.5"/>
<text text-anchor="start" x="407" y="-83.9" font-family="Arial" font-size="14.00" fill="#000000">user_agent    </text>
<text text-anchor="start" x="511.2342" y="-83.9" font-family="Arial" font-size="14.00" fill="#666666">[text]</text>
<polygon fill="none" stroke="#000000" points="400,-42.5 400,-72.5 711,-72.5 711,-42.5 400,-42.5"/>
<text text-anchor="start" x="407" y="-53.9" font-family="Arial" font-size="14.00" fill="#000000">ip    </text>
<text text-anchor="start" x="452.094" y="-53.9" font-family="Arial" font-size="14.00" fill="#666666">[inet]</text>
</g>
<!-- auth.mfa_amr_claims&#45;&gt;auth.sessions -->
<g id="edge1" class="edge">
<title>auth.mfa_amr_claims:session_id&#45;&gt;auth.sessions:id</title>
<path fill="none" stroke="#000000" d="M389.0456,-635.183C330.3874,-606.815 334.609,-327.5 400,-327.5"/>
<polygon fill="#000000" stroke="#000000" points="389.2604,-635.2329 397.9798,-641.8828 394.1302,-636.3664 399,-637.5 399,-637.5 399,-637.5 394.1302,-636.3664 400.0202,-633.1172 389.2604,-635.2329 389.2604,-635.2329"/>
<text text-anchor="start" x="7.487" y="-647.5" font-family="Arial" font-size="10.00" fill="#000000">FOREIGN KEY (session_id) REFERENCES auth.sessions(id) ON DELETE CASCADE</text>
</g>
</g>
</svg>
