<?xml version="1.0" encoding="UTF-8" standalone="no"?>
<!DOCTYPE svg PUBLIC "-//W3C//DTD SVG 1.1//EN"
 "http://www.w3.org/Graphics/SVG/1.1/DTD/svg11.dtd">
<!-- Generated by graphviz version 2.40.1 (20161225.0304)
 -->
<!-- Title: auth.mfa_challenges Pages: 1 -->
<svg width="764pt" height="682pt"
 viewBox="0.00 0.00 763.50 682.00" xmlns="http://www.w3.org/2000/svg" xmlns:xlink="http://www.w3.org/1999/xlink">
<g id="graph0" class="graph" transform="scale(1 1) rotate(0) translate(4 678)">
<title>auth.mfa_challenges</title>
<polygon fill="#ffffff" stroke="transparent" points="-4,4 -4,-678 759.5,-678 759.5,4 -4,4"/>
<!-- auth.mfa_challenges -->
<g id="node1" class="node">
<title>auth.mfa_challenges</title>
<polygon fill="#efefef" stroke="transparent" points="403,-592.5 403,-627.5 710,-627.5 710,-592.5 403,-592.5"/>
<polygon fill="none" stroke="#000000" points="403,-592.5 403,-627.5 710,-627.5 710,-592.5 403,-592.5"/>
<text text-anchor="start" x="409.6883" y="-605.3" font-family="Arial Bold" font-size="18.00" fill="#000000">auth.mfa_challenges</text>
<text text-anchor="start" x="575.7437" y="-605.3" font-family="Arial" font-size="14.00" fill="#000000">    </text>
<text text-anchor="start" x="609.9485" y="-605.3" font-family="Arial" font-size="14.00" fill="#666666">[BASE TABLE]</text>
<polygon fill="none" stroke="#000000" points="403,-562.5 403,-592.5 710,-592.5 710,-562.5 403,-562.5"/>
<text text-anchor="start" x="410" y="-573.9" font-family="Arial" font-size="14.00" fill="#000000">id </text>
<text text-anchor="start" x="424.7798" y="-573.9" font-family="Arial" font-size="14.00" fill="#666666">[uuid]</text>
<polygon fill="none" stroke="#000000" points="403,-532.5 403,-562.5 710,-562.5 710,-532.5 403,-532.5"/>
<text text-anchor="start" x="410" y="-543.9" font-family="Arial" font-size="14.00" fill="#000000">factor_id </text>
<text text-anchor="start" x="467.5694" y="-543.9" font-family="Arial" font-size="14.00" fill="#666666">[uuid]</text>
<polygon fill="none" stroke="#000000" points="403,-502.5 403,-532.5 710,-532.5 710,-502.5 403,-502.5"/>
<text text-anchor="start" x="410" y="-513.9" font-family="Arial" font-size="14.00" fill="#000000">created_at </text>
<text text-anchor="start" x="480.028" y="-513.9" font-family="Arial" font-size="14.00" fill="#666666">[timestamp with time zone]</text>
<polygon fill="none" stroke="#000000" points="403,-472.5 403,-502.5 710,-502.5 710,-472.5 403,-472.5"/>
<text text-anchor="start" x="410" y="-483.9" font-family="Arial" font-size="14.00" fill="#000000">verified_at </text>
<text text-anchor="start" x="478.4586" y="-483.9" font-family="Arial" font-size="14.00" fill="#666666">[timestamp with time zone]</text>
<polygon fill="none" stroke="#000000" points="403,-442.5 403,-472.5 710,-472.5 710,-442.5 403,-442.5"/>
<text text-anchor="start" x="410" y="-453.9" font-family="Arial" font-size="14.00" fill="#000000">ip_address </text>
<text text-anchor="start" x="482.3534" y="-453.9" font-family="Arial" font-size="14.00" fill="#666666">[inet]</text>
<polygon fill="none" stroke="#000000" stroke-width="3" points="401,-441.5 401,-629.5 711,-629.5 711,-441.5 401,-441.5"/>
</g>
<!-- auth.mfa_factors -->
<g id="node2" class="node">
<title>auth.mfa_factors</title>
<polygon fill="#efefef" stroke="transparent" points="415,-282.5 415,-317.5 698,-317.5 698,-282.5 415,-282.5"/>
<polygon fill="none" stroke="#000000" points="415,-282.5 415,-317.5 698,-317.5 698,-282.5 415,-282.5"/>
<text text-anchor="start" x="425.6966" y="-295.3" font-family="Arial Bold" font-size="18.00" fill="#000000">auth.mfa_factors</text>
<text text-anchor="start" x="559.7354" y="-295.3" font-family="Arial" font-size="14.00" fill="#000000">    </text>
<text text-anchor="start" x="593.9402" y="-295.3" font-family="Arial" font-size="14.00" fill="#666666">[BASE TABLE]</text>
<polygon fill="none" stroke="#000000" points="415,-252.5 415,-282.5 698,-282.5 698,-252.5 415,-252.5"/>
<text text-anchor="start" x="422" y="-263.9" font-family="Arial" font-size="14.00" fill="#000000">id    </text>
<text text-anchor="start" x="467.094" y="-263.9" font-family="Arial" font-size="14.00" fill="#666666">[uuid]</text>
<polygon fill="none" stroke="#000000" points="415,-222.5 415,-252.5 698,-252.5 698,-222.5 415,-222.5"/>
<text text-anchor="start" x="422" y="-233.9" font-family="Arial" font-size="14.00" fill="#000000">user_id    </text>
<text text-anchor="start" x="502.1024" y="-233.9" font-family="Arial" font-size="14.00" fill="#666666">[uuid]</text>
<polygon fill="none" stroke="#000000" points="415,-192.5 415,-222.5 698,-222.5 698,-192.5 415,-192.5"/>
<text text-anchor="start" x="422" y="-203.9" font-family="Arial" font-size="14.00" fill="#000000">friendly_name    </text>
<text text-anchor="start" x="544.108" y="-203.9" font-family="Arial" font-size="14.00" fill="#666666">[text]</text>
<polygon fill="none" stroke="#000000" points="415,-162.5 415,-192.5 698,-192.5 698,-162.5 415,-162.5"/>
<text text-anchor="start" x="422" y="-173.9" font-family="Arial" font-size="14.00" fill="#000000">factor_type    </text>
<text text-anchor="start" x="525.4502" y="-173.9" font-family="Arial" font-size="14.00" fill="#666666">[auth.factor_type]</text>
<polygon fill="none" stroke="#000000" points="415,-132.5 415,-162.5 698,-162.5 698,-132.5 415,-132.5"/>
<text text-anchor="start" x="422" y="-143.9" font-family="Arial" font-size="14.00" fill="#000000">status    </text>
<text text-anchor="start" x="493.5512" y="-143.9" font-family="Arial" font-size="14.00" fill="#666666">[auth.factor_status]</text>
<polygon fill="none" stroke="#000000" points="415,-102.5 415,-132.5 698,-132.5 698,-102.5 415,-102.5"/>
<text text-anchor="start" x="422" y="-113.9" font-family="Arial" font-size="14.00" fill="#000000">created_at    </text>
<text text-anchor="start" x="522.3422" y="-113.9" font-family="Arial" font-size="14.00" fill="#666666">[timestamp with time zone]</text>
<polygon fill="none" stroke="#000000" points="415,-72.5 415,-102.5 698,-102.5 698,-72.5 415,-72.5"/>
<text text-anchor="start" x="421.5344" y="-83.9" font-family="Arial" font-size="14.00" fill="#000000">updated_at    </text>
<text text-anchor="start" x="525.7812" y="-83.9" font-family="Arial" font-size="14.00" fill="#666666">[timestamp with time zone]</text>
<polygon fill="none" stroke="#000000" points="415,-42.5 415,-72.5 698,-72.5 698,-42.5 415,-42.5"/>
<text text-anchor="start" x="422" y="-53.9" font-family="Arial" font-size="14.00" fill="#000000">secret    </text>
<text text-anchor="start" x="494.3212" y="-53.9" font-family="Arial" font-size="14.00" fill="#666666">[text]</text>
</g>
<!-- auth.mfa_challenges&#45;&gt;auth.mfa_factors -->
<g id="edge1" class="edge">
<title>auth.mfa_challenges:factor_id&#45;&gt;auth.mfa_factors:id</title>
<path fill="none" stroke="#000000" d="M393.1279,-544.9069C342.2413,-516.6795 356.2482,-267.5 415,-267.5"/>
<polygon fill="#000000" stroke="#000000" points="393.3281,-544.9594 401.8567,-551.8524 398.164,-546.2297 403,-547.5 403,-547.5 403,-547.5 398.164,-546.2297 404.1433,-543.1476 393.3281,-544.9594 393.3281,-544.9594"/>
<text text-anchor="start" x="7.265" y="-557.5" font-family="Arial" font-size="10.00" fill="#000000">FOREIGN KEY (factor_id) REFERENCES auth.mfa_factors(id) ON DELETE CASCADE</text>
</g>
</g>
</svg>
