<?xml version="1.0" encoding="UTF-8" standalone="no"?>
<!DOCTYPE svg PUBLIC "-//W3C//DTD SVG 1.1//EN"
 "http://www.w3.org/Graphics/SVG/1.1/DTD/svg11.dtd">
<!-- Generated by graphviz version 2.40.1 (20161225.0304)
 -->
<!-- Title: auth.flow_state Pages: 1 -->
<svg width="650pt" height="892pt"
 viewBox="0.00 0.00 649.50 892.00" xmlns="http://www.w3.org/2000/svg" xmlns:xlink="http://www.w3.org/1999/xlink">
<g id="graph0" class="graph" transform="scale(1 1) rotate(0) translate(4 888)">
<title>auth.flow_state</title>
<polygon fill="#ffffff" stroke="transparent" points="-4,4 -4,-888 645.5,-888 645.5,4 -4,4"/>
<!-- auth.flow_state -->
<g id="node1" class="node">
<title>auth.flow_state</title>
<polygon fill="#efefef" stroke="transparent" points="235,-375.5 235,-410.5 596,-410.5 596,-375.5 235,-375.5"/>
<polygon fill="none" stroke="#000000" points="235,-375.5 235,-410.5 596,-410.5 596,-375.5 235,-375.5"/>
<text text-anchor="start" x="291.1946" y="-388.3" font-family="Arial Bold" font-size="18.00" fill="#000000">auth.flow_state</text>
<text text-anchor="start" x="412.2374" y="-388.3" font-family="Arial" font-size="14.00" fill="#000000">    </text>
<text text-anchor="start" x="446.4422" y="-388.3" font-family="Arial" font-size="14.00" fill="#666666">[BASE TABLE]</text>
<polygon fill="none" stroke="#000000" points="235,-345.5 235,-375.5 596,-375.5 596,-345.5 235,-345.5"/>
<text text-anchor="start" x="242" y="-356.9" font-family="Arial" font-size="14.00" fill="#000000">id </text>
<text text-anchor="start" x="256.7798" y="-356.9" font-family="Arial" font-size="14.00" fill="#666666">[uuid]</text>
<polygon fill="none" stroke="#000000" points="235,-315.5 235,-345.5 596,-345.5 596,-315.5 235,-315.5"/>
<text text-anchor="start" x="242" y="-326.9" font-family="Arial" font-size="14.00" fill="#000000">user_id </text>
<text text-anchor="start" x="291.7882" y="-326.9" font-family="Arial" font-size="14.00" fill="#666666">[uuid]</text>
<polygon fill="none" stroke="#000000" points="235,-285.5 235,-315.5 596,-315.5 596,-285.5 235,-285.5"/>
<text text-anchor="start" x="242" y="-296.9" font-family="Arial" font-size="14.00" fill="#000000">auth_code </text>
<text text-anchor="start" x="311.2594" y="-296.9" font-family="Arial" font-size="14.00" fill="#666666">[text]</text>
<polygon fill="none" stroke="#000000" points="235,-255.5 235,-285.5 596,-285.5 596,-255.5 235,-255.5"/>
<text text-anchor="start" x="241.5962" y="-266.9" font-family="Arial" font-size="14.00" fill="#000000">code_challenge_method </text>
<text text-anchor="start" x="397.9902" y="-266.9" font-family="Arial" font-size="14.00" fill="#666666">[auth.code_challenge_method]</text>
<polygon fill="none" stroke="#000000" points="235,-225.5 235,-255.5 596,-255.5 596,-225.5 235,-225.5"/>
<text text-anchor="start" x="242" y="-236.9" font-family="Arial" font-size="14.00" fill="#000000">code_challenge </text>
<text text-anchor="start" x="343.9298" y="-236.9" font-family="Arial" font-size="14.00" fill="#666666">[text]</text>
<polygon fill="none" stroke="#000000" points="235,-195.5 235,-225.5 596,-225.5 596,-195.5 235,-195.5"/>
<text text-anchor="start" x="242" y="-206.9" font-family="Arial" font-size="14.00" fill="#000000">provider_type </text>
<text text-anchor="start" x="330.6872" y="-206.9" font-family="Arial" font-size="14.00" fill="#666666">[text]</text>
<polygon fill="none" stroke="#000000" points="235,-165.5 235,-195.5 596,-195.5 596,-165.5 235,-165.5"/>
<text text-anchor="start" x="242" y="-176.9" font-family="Arial" font-size="14.00" fill="#000000">provider_access_token </text>
<text text-anchor="start" x="389.8176" y="-176.9" font-family="Arial" font-size="14.00" fill="#666666">[text]</text>
<polygon fill="none" stroke="#000000" points="235,-135.5 235,-165.5 596,-165.5 596,-135.5 235,-135.5"/>
<text text-anchor="start" x="242" y="-146.9" font-family="Arial" font-size="14.00" fill="#000000">provider_refresh_token </text>
<text text-anchor="start" x="389.812" y="-146.9" font-family="Arial" font-size="14.00" fill="#666666">[text]</text>
<polygon fill="none" stroke="#000000" points="235,-105.5 235,-135.5 596,-135.5 596,-105.5 235,-105.5"/>
<text text-anchor="start" x="242" y="-116.9" font-family="Arial" font-size="14.00" fill="#000000">created_at </text>
<text text-anchor="start" x="312.028" y="-116.9" font-family="Arial" font-size="14.00" fill="#666666">[timestamp with time zone]</text>
<polygon fill="none" stroke="#000000" points="235,-75.5 235,-105.5 596,-105.5 596,-75.5 235,-75.5"/>
<text text-anchor="start" x="242" y="-86.9" font-family="Arial" font-size="14.00" fill="#000000">updated_at </text>
<text text-anchor="start" x="315.9326" y="-86.9" font-family="Arial" font-size="14.00" fill="#666666">[timestamp with time zone]</text>
<polygon fill="none" stroke="#000000" points="235,-45.5 235,-75.5 596,-75.5 596,-45.5 235,-45.5"/>
<text text-anchor="start" x="242" y="-56.9" font-family="Arial" font-size="14.00" fill="#000000">authentication_method </text>
<text text-anchor="start" x="387.5006" y="-56.9" font-family="Arial" font-size="14.00" fill="#666666">[text]</text>
<polygon fill="none" stroke="#000000" stroke-width="3" points="233,-44.5 233,-412.5 597,-412.5 597,-44.5 233,-44.5"/>
</g>
<!-- auth.saml_relay_states -->
<g id="node2" class="node">
<title>auth.saml_relay_states</title>
<polygon fill="#efefef" stroke="transparent" points="253,-805.5 253,-840.5 579,-840.5 579,-805.5 253,-805.5"/>
<polygon fill="none" stroke="#000000" points="253,-805.5 253,-840.5 579,-840.5 579,-805.5 253,-805.5"/>
<text text-anchor="start" x="259.6942" y="-818.3" font-family="Arial Bold" font-size="18.00" fill="#000000">auth.saml_relay_states</text>
<text text-anchor="start" x="444.7378" y="-818.3" font-family="Arial" font-size="14.00" fill="#000000">    </text>
<text text-anchor="start" x="478.9426" y="-818.3" font-family="Arial" font-size="14.00" fill="#666666">[BASE TABLE]</text>
<polygon fill="none" stroke="#000000" points="253,-775.5 253,-805.5 579,-805.5 579,-775.5 253,-775.5"/>
<text text-anchor="start" x="260" y="-786.9" font-family="Arial" font-size="14.00" fill="#000000">id    </text>
<text text-anchor="start" x="305.094" y="-786.9" font-family="Arial" font-size="14.00" fill="#666666">[uuid]</text>
<polygon fill="none" stroke="#000000" points="253,-745.5 253,-775.5 579,-775.5 579,-745.5 253,-745.5"/>
<text text-anchor="start" x="260" y="-756.9" font-family="Arial" font-size="14.00" fill="#000000">sso_provider_id    </text>
<text text-anchor="start" x="393" y="-756.9" font-family="Arial" font-size="14.00" fill="#666666">[uuid]</text>
<polygon fill="none" stroke="#000000" points="253,-715.5 253,-745.5 579,-745.5 579,-715.5 253,-715.5"/>
<text text-anchor="start" x="260" y="-726.9" font-family="Arial" font-size="14.00" fill="#000000">request_id    </text>
<text text-anchor="start" x="359.5582" y="-726.9" font-family="Arial" font-size="14.00" fill="#666666">[text]</text>
<polygon fill="none" stroke="#000000" points="253,-685.5 253,-715.5 579,-715.5 579,-685.5 253,-685.5"/>
<text text-anchor="start" x="260" y="-696.9" font-family="Arial" font-size="14.00" fill="#000000">for_email    </text>
<text text-anchor="start" x="351.7602" y="-696.9" font-family="Arial" font-size="14.00" fill="#666666">[text]</text>
<polygon fill="none" stroke="#000000" points="253,-655.5 253,-685.5 579,-685.5 579,-655.5 253,-655.5"/>
<text text-anchor="start" x="260" y="-666.9" font-family="Arial" font-size="14.00" fill="#000000">redirect_to    </text>
<text text-anchor="start" x="360.3268" y="-666.9" font-family="Arial" font-size="14.00" fill="#666666">[text]</text>
<polygon fill="none" stroke="#000000" points="253,-625.5 253,-655.5 579,-655.5 579,-625.5 253,-625.5"/>
<text text-anchor="start" x="260" y="-636.9" font-family="Arial" font-size="14.00" fill="#000000">from_ip_address    </text>
<text text-anchor="start" x="398.4446" y="-636.9" font-family="Arial" font-size="14.00" fill="#666666">[inet]</text>
<polygon fill="none" stroke="#000000" points="253,-595.5 253,-625.5 579,-625.5 579,-595.5 253,-595.5"/>
<text text-anchor="start" x="260" y="-606.9" font-family="Arial" font-size="14.00" fill="#000000">created_at    </text>
<text text-anchor="start" x="360.3422" y="-606.9" font-family="Arial" font-size="14.00" fill="#666666">[timestamp with time zone]</text>
<polygon fill="none" stroke="#000000" points="253,-565.5 253,-595.5 579,-595.5 579,-565.5 253,-565.5"/>
<text text-anchor="start" x="260" y="-576.9" font-family="Arial" font-size="14.00" fill="#000000">updated_at    </text>
<text text-anchor="start" x="364.2468" y="-576.9" font-family="Arial" font-size="14.00" fill="#666666">[timestamp with time zone]</text>
<polygon fill="none" stroke="#000000" points="253,-535.5 253,-565.5 579,-565.5 579,-535.5 253,-535.5"/>
<text text-anchor="start" x="260" y="-546.9" font-family="Arial" font-size="14.00" fill="#000000">flow_state_id    </text>
<text text-anchor="start" x="375.892" y="-546.9" font-family="Arial" font-size="14.00" fill="#666666">[uuid]</text>
</g>
<!-- auth.saml_relay_states&#45;&gt;auth.flow_state -->
<g id="edge1" class="edge">
<title>auth.saml_relay_states:flow_state_id&#45;&gt;auth.flow_state:id</title>
<path fill="none" stroke="#000000" d="M416.715,-525.1602C427.204,-454.9663 550.2411,-526.8771 596,-457 619.4961,-421.1198 638.8889,-360.5 596,-360.5"/>
<polygon fill="#000000" stroke="#000000" points="416.6899,-525.5238 411.5107,-535.1895 416.345,-530.5119 416,-535.5 416,-535.5 416,-535.5 416.345,-530.5119 420.4893,-535.8105 416.6899,-525.5238 416.6899,-525.5238"/>
<text text-anchor="start" x="6.872" y="-545.5" font-family="Arial" font-size="10.00" fill="#000000">FOREIGN KEY (flow_state_id) REFERENCES auth.flow_state(id) ON DELETE CASCADE</text>
</g>
</g>
</svg>
