<?xml version="1.0" encoding="UTF-8" standalone="no"?>
<!DOCTYPE svg PUBLIC "-//W3C//DTD SVG 1.1//EN"
 "http://www.w3.org/Graphics/SVG/1.1/DTD/svg11.dtd">
<!-- Generated by graphviz version 2.40.1 (20161225.0304)
 -->
<!-- Title: auth.sso_domains Pages: 1 -->
<svg width="786pt" height="562pt"
 viewBox="0.00 0.00 785.50 562.00" xmlns="http://www.w3.org/2000/svg" xmlns:xlink="http://www.w3.org/1999/xlink">
<g id="graph0" class="graph" transform="scale(1 1) rotate(0) translate(4 558)">
<title>auth.sso_domains</title>
<polygon fill="#ffffff" stroke="transparent" points="-4,4 -4,-558 781.5,-558 781.5,4 -4,4"/>
<!-- auth.sso_domains -->
<g id="node1" class="node">
<title>auth.sso_domains</title>
<polygon fill="#efefef" stroke="transparent" points="445,-472.5 445,-507.5 732,-507.5 732,-472.5 445,-472.5"/>
<polygon fill="none" stroke="#000000" points="445,-472.5 445,-507.5 732,-507.5 732,-472.5 445,-472.5"/>
<text text-anchor="start" x="451.6927" y="-485.3" font-family="Arial Bold" font-size="18.00" fill="#000000">auth.sso_domains</text>
<text text-anchor="start" x="597.7393" y="-485.3" font-family="Arial" font-size="14.00" fill="#000000">    </text>
<text text-anchor="start" x="631.9441" y="-485.3" font-family="Arial" font-size="14.00" fill="#666666">[BASE TABLE]</text>
<polygon fill="none" stroke="#000000" points="445,-442.5 445,-472.5 732,-472.5 732,-442.5 445,-442.5"/>
<text text-anchor="start" x="452" y="-453.9" font-family="Arial" font-size="14.00" fill="#000000">id </text>
<text text-anchor="start" x="466.7798" y="-453.9" font-family="Arial" font-size="14.00" fill="#666666">[uuid]</text>
<polygon fill="none" stroke="#000000" points="445,-412.5 445,-442.5 732,-442.5 732,-412.5 445,-412.5"/>
<text text-anchor="start" x="452" y="-423.9" font-family="Arial" font-size="14.00" fill="#000000">sso_provider_id </text>
<text text-anchor="start" x="554.6858" y="-423.9" font-family="Arial" font-size="14.00" fill="#666666">[uuid]</text>
<polygon fill="none" stroke="#000000" points="445,-382.5 445,-412.5 732,-412.5 732,-382.5 445,-382.5"/>
<text text-anchor="start" x="452" y="-393.9" font-family="Arial" font-size="14.00" fill="#000000">domain </text>
<text text-anchor="start" x="501.7882" y="-393.9" font-family="Arial" font-size="14.00" fill="#666666">[text]</text>
<polygon fill="none" stroke="#000000" points="445,-352.5 445,-382.5 732,-382.5 732,-352.5 445,-352.5"/>
<text text-anchor="start" x="452" y="-363.9" font-family="Arial" font-size="14.00" fill="#000000">created_at </text>
<text text-anchor="start" x="522.028" y="-363.9" font-family="Arial" font-size="14.00" fill="#666666">[timestamp with time zone]</text>
<polygon fill="none" stroke="#000000" points="445,-322.5 445,-352.5 732,-352.5 732,-322.5 445,-322.5"/>
<text text-anchor="start" x="452" y="-333.9" font-family="Arial" font-size="14.00" fill="#000000">updated_at </text>
<text text-anchor="start" x="525.9326" y="-333.9" font-family="Arial" font-size="14.00" fill="#666666">[timestamp with time zone]</text>
<polygon fill="none" stroke="#000000" stroke-width="3" points="443,-321.5 443,-509.5 733,-509.5 733,-321.5 443,-321.5"/>
</g>
<!-- auth.sso_providers -->
<g id="node2" class="node">
<title>auth.sso_providers</title>
<polygon fill="#efefef" stroke="transparent" points="442,-162.5 442,-197.5 735,-197.5 735,-162.5 442,-162.5"/>
<polygon fill="none" stroke="#000000" points="442,-162.5 442,-197.5 735,-197.5 735,-162.5 442,-162.5"/>
<text text-anchor="start" x="448.6966" y="-175.3" font-family="Arial Bold" font-size="18.00" fill="#000000">auth.sso_providers</text>
<text text-anchor="start" x="600.7354" y="-175.3" font-family="Arial" font-size="14.00" fill="#000000">    </text>
<text text-anchor="start" x="634.9402" y="-175.3" font-family="Arial" font-size="14.00" fill="#666666">[BASE TABLE]</text>
<polygon fill="none" stroke="#000000" points="442,-132.5 442,-162.5 735,-162.5 735,-132.5 442,-132.5"/>
<text text-anchor="start" x="449" y="-143.9" font-family="Arial" font-size="14.00" fill="#000000">id    </text>
<text text-anchor="start" x="494.094" y="-143.9" font-family="Arial" font-size="14.00" fill="#666666">[uuid]</text>
<polygon fill="none" stroke="#000000" points="442,-102.5 442,-132.5 735,-132.5 735,-102.5 442,-102.5"/>
<text text-anchor="start" x="449" y="-113.9" font-family="Arial" font-size="14.00" fill="#000000">resource_id    </text>
<text text-anchor="start" x="556.3282" y="-113.9" font-family="Arial" font-size="14.00" fill="#666666">[text]</text>
<polygon fill="none" stroke="#000000" points="442,-72.5 442,-102.5 735,-102.5 735,-72.5 442,-72.5"/>
<text text-anchor="start" x="449" y="-83.9" font-family="Arial" font-size="14.00" fill="#000000">created_at    </text>
<text text-anchor="start" x="549.3422" y="-83.9" font-family="Arial" font-size="14.00" fill="#666666">[timestamp with time zone]</text>
<polygon fill="none" stroke="#000000" points="442,-42.5 442,-72.5 735,-72.5 735,-42.5 442,-42.5"/>
<text text-anchor="start" x="449" y="-53.9" font-family="Arial" font-size="14.00" fill="#000000">updated_at    </text>
<text text-anchor="start" x="553.2468" y="-53.9" font-family="Arial" font-size="14.00" fill="#666666">[timestamp with time zone]</text>
</g>
<!-- auth.sso_domains&#45;&gt;auth.sso_providers -->
<g id="edge1" class="edge">
<title>auth.sso_domains:sso_provider_id&#45;&gt;auth.sso_providers:id</title>
<path fill="none" stroke="#000000" d="M434.9976,-424.9069C382.6436,-396.6795 383.2987,-147.5 442,-147.5"/>
<polygon fill="#000000" stroke="#000000" points="435.32,-424.9904 443.8707,-431.856 440.16,-426.2452 445,-427.5 445,-427.5 445,-427.5 440.16,-426.2452 446.1293,-423.144 435.32,-424.9904 435.32,-424.9904"/>
<text text-anchor="start" x="7.152" y="-437.5" font-family="Arial" font-size="10.00" fill="#000000">FOREIGN KEY (sso_provider_id) REFERENCES auth.sso_providers(id) ON DELETE CASCADE</text>
</g>
</g>
</svg>
