<?xml version="1.0" encoding="UTF-8" standalone="no"?>
<!DOCTYPE svg PUBLIC "-//W3C//DTD SVG 1.1//EN"
 "http://www.w3.org/Graphics/SVG/1.1/DTD/svg11.dtd">
<!-- Generated by graphviz version 2.40.1 (20161225.0304)
 -->
<!-- Title: auth.identities Pages: 1 -->
<svg width="742pt" height="1552pt"
 viewBox="0.00 0.00 741.50 1552.00" xmlns="http://www.w3.org/2000/svg" xmlns:xlink="http://www.w3.org/1999/xlink">
<g id="graph0" class="graph" transform="scale(1 1) rotate(0) translate(4 1548)">
<title>auth.identities</title>
<polygon fill="#ffffff" stroke="transparent" points="-4,4 -4,-1548 737.5,-1548 737.5,4 -4,4"/>
<!-- auth.identities -->
<g id="node1" class="node">
<title>auth.identities</title>
<polygon fill="#efefef" stroke="transparent" points="370,-1462.5 370,-1497.5 646,-1497.5 646,-1462.5 370,-1462.5"/>
<polygon fill="none" stroke="#000000" points="370,-1462.5 370,-1497.5 646,-1497.5 646,-1462.5 370,-1462.5"/>
<text text-anchor="start" x="388.6986" y="-1475.3" font-family="Arial Bold" font-size="18.00" fill="#000000">auth.identities</text>
<text text-anchor="start" x="499.7334" y="-1475.3" font-family="Arial" font-size="14.00" fill="#000000">    </text>
<text text-anchor="start" x="533.9382" y="-1475.3" font-family="Arial" font-size="14.00" fill="#666666">[BASE TABLE]</text>
<polygon fill="none" stroke="#000000" points="370,-1432.5 370,-1462.5 646,-1462.5 646,-1432.5 370,-1432.5"/>
<text text-anchor="start" x="377" y="-1443.9" font-family="Arial" font-size="14.00" fill="#000000">id </text>
<text text-anchor="start" x="391.7798" y="-1443.9" font-family="Arial" font-size="14.00" fill="#666666">[text]</text>
<polygon fill="none" stroke="#000000" points="370,-1402.5 370,-1432.5 646,-1432.5 646,-1402.5 370,-1402.5"/>
<text text-anchor="start" x="377" y="-1413.9" font-family="Arial" font-size="14.00" fill="#000000">user_id </text>
<text text-anchor="start" x="426.7882" y="-1413.9" font-family="Arial" font-size="14.00" fill="#666666">[uuid]</text>
<polygon fill="none" stroke="#000000" points="370,-1372.5 370,-1402.5 646,-1402.5 646,-1372.5 370,-1372.5"/>
<text text-anchor="start" x="377" y="-1383.9" font-family="Arial" font-size="14.00" fill="#000000">identity_data </text>
<text text-anchor="start" x="460.2538" y="-1383.9" font-family="Arial" font-size="14.00" fill="#666666">[jsonb]</text>
<polygon fill="none" stroke="#000000" points="370,-1342.5 370,-1372.5 646,-1372.5 646,-1342.5 370,-1342.5"/>
<text text-anchor="start" x="377" y="-1353.9" font-family="Arial" font-size="14.00" fill="#000000">provider </text>
<text text-anchor="start" x="431.4488" y="-1353.9" font-family="Arial" font-size="14.00" fill="#666666">[text]</text>
<polygon fill="none" stroke="#000000" points="370,-1312.5 370,-1342.5 646,-1342.5 646,-1312.5 370,-1312.5"/>
<text text-anchor="start" x="376.5316" y="-1323.9" font-family="Arial" font-size="14.00" fill="#000000">last_sign_in_at </text>
<text text-anchor="start" x="473.784" y="-1323.9" font-family="Arial" font-size="14.00" fill="#666666">[timestamp with time zone]</text>
<polygon fill="none" stroke="#000000" points="370,-1282.5 370,-1312.5 646,-1312.5 646,-1282.5 370,-1282.5"/>
<text text-anchor="start" x="377" y="-1293.9" font-family="Arial" font-size="14.00" fill="#000000">created_at </text>
<text text-anchor="start" x="447.028" y="-1293.9" font-family="Arial" font-size="14.00" fill="#666666">[timestamp with time zone]</text>
<polygon fill="none" stroke="#000000" points="370,-1252.5 370,-1282.5 646,-1282.5 646,-1252.5 370,-1252.5"/>
<text text-anchor="start" x="377" y="-1263.9" font-family="Arial" font-size="14.00" fill="#000000">updated_at </text>
<text text-anchor="start" x="450.9326" y="-1263.9" font-family="Arial" font-size="14.00" fill="#666666">[timestamp with time zone]</text>
<polygon fill="none" stroke="#000000" points="370,-1222.5 370,-1252.5 646,-1252.5 646,-1222.5 370,-1222.5"/>
<text text-anchor="start" x="377" y="-1233.9" font-family="Arial" font-size="14.00" fill="#000000">email </text>
<text text-anchor="start" x="414.3296" y="-1233.9" font-family="Arial" font-size="14.00" fill="#666666">[text]</text>
<polygon fill="none" stroke="#000000" stroke-width="3" points="368.5,-1221.5 368.5,-1499.5 647.5,-1499.5 647.5,-1221.5 368.5,-1221.5"/>
</g>
<!-- auth.users -->
<g id="node2" class="node">
<title>auth.users</title>
<polygon fill="#efefef" stroke="transparent" points="324,-1062.5 324,-1097.5 691,-1097.5 691,-1062.5 324,-1062.5"/>
<polygon fill="none" stroke="#000000" points="324,-1062.5 324,-1097.5 691,-1097.5 691,-1062.5 324,-1062.5"/>
<text text-anchor="start" x="401.7022" y="-1075.3" font-family="Arial Bold" font-size="18.00" fill="#000000">auth.users</text>
<text text-anchor="start" x="485.7298" y="-1075.3" font-family="Arial" font-size="14.00" fill="#000000">    </text>
<text text-anchor="start" x="519.9346" y="-1075.3" font-family="Arial" font-size="14.00" fill="#666666">[BASE TABLE]</text>
<polygon fill="none" stroke="#000000" points="324,-1032.5 324,-1062.5 691,-1062.5 691,-1032.5 324,-1032.5"/>
<text text-anchor="start" x="331" y="-1043.9" font-family="Arial" font-size="14.00" fill="#000000">instance_id    </text>
<text text-anchor="start" x="436.0042" y="-1043.9" font-family="Arial" font-size="14.00" fill="#666666">[uuid]</text>
<polygon fill="none" stroke="#000000" points="324,-1002.5 324,-1032.5 691,-1032.5 691,-1002.5 324,-1002.5"/>
<text text-anchor="start" x="331" y="-1013.9" font-family="Arial" font-size="14.00" fill="#000000">id    </text>
<text text-anchor="start" x="376.094" y="-1013.9" font-family="Arial" font-size="14.00" fill="#666666">[uuid]</text>
<polygon fill="none" stroke="#000000" points="324,-972.5 324,-1002.5 691,-1002.5 691,-972.5 324,-972.5"/>
<text text-anchor="start" x="331" y="-983.9" font-family="Arial" font-size="14.00" fill="#000000">aud    </text>
<text text-anchor="start" x="388.5526" y="-983.9" font-family="Arial" font-size="14.00" fill="#666666">[varchar(255)]</text>
<polygon fill="none" stroke="#000000" points="324,-942.5 324,-972.5 691,-972.5 691,-942.5 324,-942.5"/>
<text text-anchor="start" x="331" y="-953.9" font-family="Arial" font-size="14.00" fill="#000000">role    </text>
<text text-anchor="start" x="388.5372" y="-953.9" font-family="Arial" font-size="14.00" fill="#666666">[varchar(255)]</text>
<polygon fill="none" stroke="#000000" points="324,-912.5 324,-942.5 691,-942.5 691,-912.5 324,-912.5"/>
<text text-anchor="start" x="331" y="-923.9" font-family="Arial" font-size="14.00" fill="#000000">email    </text>
<text text-anchor="start" x="398.6438" y="-923.9" font-family="Arial" font-size="14.00" fill="#666666">[varchar(255)]</text>
<polygon fill="none" stroke="#000000" points="324,-882.5 324,-912.5 691,-912.5 691,-882.5 324,-882.5"/>
<text text-anchor="start" x="331" y="-893.9" font-family="Arial" font-size="14.00" fill="#000000">encrypted_password    </text>
<text text-anchor="start" x="494.3492" y="-893.9" font-family="Arial" font-size="14.00" fill="#666666">[varchar(255)]</text>
<polygon fill="none" stroke="#000000" points="324,-852.5 324,-882.5 691,-882.5 691,-852.5 324,-852.5"/>
<text text-anchor="start" x="331" y="-863.9" font-family="Arial" font-size="14.00" fill="#000000">email_confirmed_at    </text>
<text text-anchor="start" x="487.331" y="-863.9" font-family="Arial" font-size="14.00" fill="#666666">[timestamp with time zone]</text>
<polygon fill="none" stroke="#000000" points="324,-822.5 324,-852.5 691,-852.5 691,-822.5 324,-822.5"/>
<text text-anchor="start" x="331" y="-833.9" font-family="Arial" font-size="14.00" fill="#000000">invited_at    </text>
<text text-anchor="start" x="425.1122" y="-833.9" font-family="Arial" font-size="14.00" fill="#666666">[timestamp with time zone]</text>
<polygon fill="none" stroke="#000000" points="324,-792.5 324,-822.5 691,-822.5 691,-792.5 324,-792.5"/>
<text text-anchor="start" x="331" y="-803.9" font-family="Arial" font-size="14.00" fill="#000000">confirmation_token    </text>
<text text-anchor="start" x="483.4544" y="-803.9" font-family="Arial" font-size="14.00" fill="#666666">[varchar(255)]</text>
<polygon fill="none" stroke="#000000" points="324,-762.5 324,-792.5 691,-792.5 691,-762.5 324,-762.5"/>
<text text-anchor="start" x="331" y="-773.9" font-family="Arial" font-size="14.00" fill="#000000">confirmation_sent_at    </text>
<text text-anchor="start" x="495.1276" y="-773.9" font-family="Arial" font-size="14.00" fill="#666666">[timestamp with time zone]</text>
<polygon fill="none" stroke="#000000" points="324,-732.5 324,-762.5 691,-762.5 691,-732.5 324,-732.5"/>
<text text-anchor="start" x="331" y="-743.9" font-family="Arial" font-size="14.00" fill="#000000">recovery_token    </text>
<text text-anchor="start" x="460.8948" y="-743.9" font-family="Arial" font-size="14.00" fill="#666666">[varchar(255)]</text>
<polygon fill="none" stroke="#000000" points="324,-702.5 324,-732.5 691,-732.5 691,-702.5 324,-702.5"/>
<text text-anchor="start" x="331" y="-713.9" font-family="Arial" font-size="14.00" fill="#000000">recovery_sent_at    </text>
<text text-anchor="start" x="472.568" y="-713.9" font-family="Arial" font-size="14.00" fill="#666666">[timestamp with time zone]</text>
<polygon fill="none" stroke="#000000" points="324,-672.5 324,-702.5 691,-702.5 691,-672.5 324,-672.5"/>
<text text-anchor="start" x="331" y="-683.9" font-family="Arial" font-size="14.00" fill="#000000">email_change_token_new    </text>
<text text-anchor="start" x="527.8148" y="-683.9" font-family="Arial" font-size="14.00" fill="#666666">[varchar(255)]</text>
<polygon fill="none" stroke="#000000" points="324,-642.5 324,-672.5 691,-672.5 691,-642.5 324,-642.5"/>
<text text-anchor="start" x="331" y="-653.9" font-family="Arial" font-size="14.00" fill="#000000">email_change    </text>
<text text-anchor="start" x="452.3394" y="-653.9" font-family="Arial" font-size="14.00" fill="#666666">[varchar(255)]</text>
<polygon fill="none" stroke="#000000" points="324,-612.5 324,-642.5 691,-642.5 691,-612.5 324,-612.5"/>
<text text-anchor="start" x="331" y="-623.9" font-family="Arial" font-size="14.00" fill="#000000">email_change_sent_at    </text>
<text text-anchor="start" x="506.0336" y="-623.9" font-family="Arial" font-size="14.00" fill="#666666">[timestamp with time zone]</text>
<polygon fill="none" stroke="#000000" points="324,-582.5 324,-612.5 691,-612.5 691,-582.5 324,-582.5"/>
<text text-anchor="start" x="331" y="-593.9" font-family="Arial" font-size="14.00" fill="#000000">last_sign_in_at    </text>
<text text-anchor="start" x="458.5666" y="-593.9" font-family="Arial" font-size="14.00" fill="#666666">[timestamp with time zone]</text>
<polygon fill="none" stroke="#000000" points="324,-552.5 324,-582.5 691,-582.5 691,-552.5 324,-552.5"/>
<text text-anchor="start" x="331" y="-563.9" font-family="Arial" font-size="14.00" fill="#000000">raw_app_meta_data    </text>
<text text-anchor="start" x="492.805" y="-563.9" font-family="Arial" font-size="14.00" fill="#666666">[jsonb]</text>
<polygon fill="none" stroke="#000000" points="324,-522.5 324,-552.5 691,-552.5 691,-522.5 324,-522.5"/>
<text text-anchor="start" x="331" y="-533.9" font-family="Arial" font-size="14.00" fill="#000000">raw_user_meta_data    </text>
<text text-anchor="start" x="496.683" y="-533.9" font-family="Arial" font-size="14.00" fill="#666666">[jsonb]</text>
<polygon fill="none" stroke="#000000" points="324,-492.5 324,-522.5 691,-522.5 691,-492.5 324,-492.5"/>
<text text-anchor="start" x="331" y="-503.9" font-family="Arial" font-size="14.00" fill="#000000">is_super_admin    </text>
<text text-anchor="start" x="464" y="-503.9" font-family="Arial" font-size="14.00" fill="#666666">[boolean]</text>
<polygon fill="none" stroke="#000000" points="324,-462.5 324,-492.5 691,-492.5 691,-462.5 324,-462.5"/>
<text text-anchor="start" x="331" y="-473.9" font-family="Arial" font-size="14.00" fill="#000000">created_at    </text>
<text text-anchor="start" x="431.3422" y="-473.9" font-family="Arial" font-size="14.00" fill="#666666">[timestamp with time zone]</text>
<polygon fill="none" stroke="#000000" points="324,-432.5 324,-462.5 691,-462.5 691,-432.5 324,-432.5"/>
<text text-anchor="start" x="331" y="-443.9" font-family="Arial" font-size="14.00" fill="#000000">updated_at    </text>
<text text-anchor="start" x="435.2468" y="-443.9" font-family="Arial" font-size="14.00" fill="#666666">[timestamp with time zone]</text>
<polygon fill="none" stroke="#000000" points="324,-402.5 324,-432.5 691,-432.5 691,-402.5 324,-402.5"/>
<text text-anchor="start" x="331" y="-413.9" font-family="Arial" font-size="14.00" fill="#000000">phone    </text>
<text text-anchor="start" x="404.1178" y="-413.9" font-family="Arial" font-size="14.00" fill="#666666">[text]</text>
<polygon fill="none" stroke="#000000" points="324,-372.5 324,-402.5 691,-402.5 691,-372.5 324,-372.5"/>
<text text-anchor="start" x="331" y="-383.9" font-family="Arial" font-size="14.00" fill="#000000">phone_confirmed_at    </text>
<text text-anchor="start" x="492.805" y="-383.9" font-family="Arial" font-size="14.00" fill="#666666">[timestamp with time zone]</text>
<polygon fill="none" stroke="#000000" points="324,-342.5 324,-372.5 691,-372.5 691,-342.5 324,-342.5"/>
<text text-anchor="start" x="331" y="-353.9" font-family="Arial" font-size="14.00" fill="#000000">phone_change    </text>
<text text-anchor="start" x="457.8134" y="-353.9" font-family="Arial" font-size="14.00" fill="#666666">[text]</text>
<polygon fill="none" stroke="#000000" points="324,-312.5 324,-342.5 691,-342.5 691,-312.5 324,-312.5"/>
<text text-anchor="start" x="331" y="-323.9" font-family="Arial" font-size="14.00" fill="#000000">phone_change_token    </text>
<text text-anchor="start" x="499.8344" y="-323.9" font-family="Arial" font-size="14.00" fill="#666666">[varchar(255)]</text>
<polygon fill="none" stroke="#000000" points="324,-282.5 324,-312.5 691,-312.5 691,-282.5 324,-282.5"/>
<text text-anchor="start" x="331" y="-293.9" font-family="Arial" font-size="14.00" fill="#000000">phone_change_sent_at    </text>
<text text-anchor="start" x="511.5076" y="-293.9" font-family="Arial" font-size="14.00" fill="#666666">[timestamp with time zone]</text>
<polygon fill="none" stroke="#000000" points="324,-252.5 324,-282.5 691,-282.5 691,-252.5 324,-252.5"/>
<text text-anchor="start" x="331" y="-263.9" font-family="Arial" font-size="14.00" fill="#000000">confirmed_at    </text>
<text text-anchor="start" x="446.1094" y="-263.9" font-family="Arial" font-size="14.00" fill="#666666">[timestamp with time zone]</text>
<polygon fill="none" stroke="#000000" points="324,-222.5 324,-252.5 691,-252.5 691,-222.5 324,-222.5"/>
<text text-anchor="start" x="331" y="-233.9" font-family="Arial" font-size="14.00" fill="#000000">email_change_token_current    </text>
<text text-anchor="start" x="545.7026" y="-233.9" font-family="Arial" font-size="14.00" fill="#666666">[varchar(255)]</text>
<polygon fill="none" stroke="#000000" points="324,-192.5 324,-222.5 691,-222.5 691,-192.5 324,-192.5"/>
<text text-anchor="start" x="331" y="-203.9" font-family="Arial" font-size="14.00" fill="#000000">email_change_confirm_status    </text>
<text text-anchor="start" x="551.1346" y="-203.9" font-family="Arial" font-size="14.00" fill="#666666">[smallint]</text>
<polygon fill="none" stroke="#000000" points="324,-162.5 324,-192.5 691,-192.5 691,-162.5 324,-162.5"/>
<text text-anchor="start" x="331" y="-173.9" font-family="Arial" font-size="14.00" fill="#000000">banned_until    </text>
<text text-anchor="start" x="445.352" y="-173.9" font-family="Arial" font-size="14.00" fill="#666666">[timestamp with time zone]</text>
<polygon fill="none" stroke="#000000" points="324,-132.5 324,-162.5 691,-162.5 691,-132.5 324,-132.5"/>
<text text-anchor="start" x="331" y="-143.9" font-family="Arial" font-size="14.00" fill="#000000">reauthentication_token    </text>
<text text-anchor="start" x="506.8148" y="-143.9" font-family="Arial" font-size="14.00" fill="#666666">[varchar(255)]</text>
<polygon fill="none" stroke="#000000" points="324,-102.5 324,-132.5 691,-132.5 691,-102.5 324,-102.5"/>
<text text-anchor="start" x="330.9138" y="-113.9" font-family="Arial" font-size="14.00" fill="#000000">reauthentication_sent_at    </text>
<text text-anchor="start" x="518.4018" y="-113.9" font-family="Arial" font-size="14.00" fill="#666666">[timestamp with time zone]</text>
<polygon fill="none" stroke="#000000" points="324,-72.5 324,-102.5 691,-102.5 691,-72.5 324,-72.5"/>
<text text-anchor="start" x="331" y="-83.9" font-family="Arial" font-size="14.00" fill="#000000">is_sso_user    </text>
<text text-anchor="start" x="439.885" y="-83.9" font-family="Arial" font-size="14.00" fill="#666666">[boolean]</text>
<polygon fill="none" stroke="#000000" points="324,-42.5 324,-72.5 691,-72.5 691,-42.5 324,-42.5"/>
<text text-anchor="start" x="331" y="-53.9" font-family="Arial" font-size="14.00" fill="#000000">deleted_at    </text>
<text text-anchor="start" x="430.5708" y="-53.9" font-family="Arial" font-size="14.00" fill="#666666">[timestamp with time zone]</text>
</g>
<!-- auth.identities&#45;&gt;auth.users -->
<g id="edge1" class="edge">
<title>auth.identities:user_id&#45;&gt;auth.users:id</title>
<path fill="none" stroke="#000000" d="M359.8204,-1416.977C265.5173,-1406.9102 301.1199,-1254.0367 370,-1177 465.6891,-1069.9795 595.3109,-1248.0205 691,-1141 727.5856,-1100.082 745.8889,-1017.5 691,-1017.5"/>
<polygon fill="#000000" stroke="#000000" points="360.0132,-1416.9868 369.7691,-1421.9941 365.0066,-1417.2434 370,-1417.5 370,-1417.5 370,-1417.5 365.0066,-1417.2434 370.2309,-1413.0059 360.0132,-1416.9868 360.0132,-1416.9868"/>
<text text-anchor="start" x="6.936" y="-1427.5" font-family="Arial" font-size="10.00" fill="#000000">FOREIGN KEY (user_id) REFERENCES auth.users(id) ON DELETE CASCADE</text>
</g>
</g>
</svg>
