<?xml version="1.0" encoding="UTF-8" standalone="no"?>
<!DOCTYPE svg PUBLIC "-//W3C//DTD SVG 1.1//EN"
 "http://www.w3.org/Graphics/SVG/1.1/DTD/svg11.dtd">
<!-- Generated by graphviz version 2.40.1 (20161225.0304)
 -->
<!-- Title: auth.users Pages: 1 -->
<svg width="1601pt" height="1552pt"
 viewBox="0.00 0.00 1601.00 1552.00" xmlns="http://www.w3.org/2000/svg" xmlns:xlink="http://www.w3.org/1999/xlink">
<g id="graph0" class="graph" transform="scale(1 1) rotate(0) translate(4 1548)">
<title>auth.users</title>
<polygon fill="#ffffff" stroke="transparent" points="-4,4 -4,-1548 1597,-1548 1597,4 -4,4"/>
<!-- auth.users -->
<g id="node1" class="node">
<title>auth.users</title>
<polygon fill="#efefef" stroke="transparent" points="641,-1065.5 641,-1100.5 977,-1100.5 977,-1065.5 641,-1065.5"/>
<polygon fill="none" stroke="#000000" points="641,-1065.5 641,-1100.5 977,-1100.5 977,-1065.5 641,-1065.5"/>
<text text-anchor="start" x="703.2022" y="-1078.3" font-family="Arial Bold" font-size="18.00" fill="#000000">auth.users</text>
<text text-anchor="start" x="787.2298" y="-1078.3" font-family="Arial" font-size="14.00" fill="#000000">    </text>
<text text-anchor="start" x="821.4346" y="-1078.3" font-family="Arial" font-size="14.00" fill="#666666">[BASE TABLE]</text>
<polygon fill="none" stroke="#000000" points="641,-1035.5 641,-1065.5 977,-1065.5 977,-1035.5 641,-1035.5"/>
<text text-anchor="start" x="648" y="-1046.9" font-family="Arial" font-size="14.00" fill="#000000">instance_id </text>
<text text-anchor="start" x="722.69" y="-1046.9" font-family="Arial" font-size="14.00" fill="#666666">[uuid]</text>
<polygon fill="none" stroke="#000000" points="641,-1005.5 641,-1035.5 977,-1035.5 977,-1005.5 641,-1005.5"/>
<text text-anchor="start" x="648" y="-1016.9" font-family="Arial" font-size="14.00" fill="#000000">id </text>
<text text-anchor="start" x="662.7798" y="-1016.9" font-family="Arial" font-size="14.00" fill="#666666">[uuid]</text>
<polygon fill="none" stroke="#000000" points="641,-975.5 641,-1005.5 977,-1005.5 977,-975.5 641,-975.5"/>
<text text-anchor="start" x="648" y="-986.9" font-family="Arial" font-size="14.00" fill="#000000">aud </text>
<text text-anchor="start" x="675.2384" y="-986.9" font-family="Arial" font-size="14.00" fill="#666666">[varchar(255)]</text>
<polygon fill="none" stroke="#000000" points="641,-945.5 641,-975.5 977,-975.5 977,-945.5 641,-945.5"/>
<text text-anchor="start" x="648" y="-956.9" font-family="Arial" font-size="14.00" fill="#000000">role </text>
<text text-anchor="start" x="675.223" y="-956.9" font-family="Arial" font-size="14.00" fill="#666666">[varchar(255)]</text>
<polygon fill="none" stroke="#000000" points="641,-915.5 641,-945.5 977,-945.5 977,-915.5 641,-915.5"/>
<text text-anchor="start" x="648" y="-926.9" font-family="Arial" font-size="14.00" fill="#000000">email </text>
<text text-anchor="start" x="685.3296" y="-926.9" font-family="Arial" font-size="14.00" fill="#666666">[varchar(255)]</text>
<polygon fill="none" stroke="#000000" points="641,-885.5 641,-915.5 977,-915.5 977,-885.5 641,-885.5"/>
<text text-anchor="start" x="648" y="-896.9" font-family="Arial" font-size="14.00" fill="#000000">encrypted_password </text>
<text text-anchor="start" x="781.035" y="-896.9" font-family="Arial" font-size="14.00" fill="#666666">[varchar(255)]</text>
<polygon fill="none" stroke="#000000" points="641,-855.5 641,-885.5 977,-885.5 977,-855.5 641,-855.5"/>
<text text-anchor="start" x="648" y="-866.9" font-family="Arial" font-size="14.00" fill="#000000">email_confirmed_at </text>
<text text-anchor="start" x="774.0168" y="-866.9" font-family="Arial" font-size="14.00" fill="#666666">[timestamp with time zone]</text>
<polygon fill="none" stroke="#000000" points="641,-825.5 641,-855.5 977,-855.5 977,-825.5 641,-825.5"/>
<text text-anchor="start" x="648" y="-836.9" font-family="Arial" font-size="14.00" fill="#000000">invited_at </text>
<text text-anchor="start" x="711.798" y="-836.9" font-family="Arial" font-size="14.00" fill="#666666">[timestamp with time zone]</text>
<polygon fill="none" stroke="#000000" points="641,-795.5 641,-825.5 977,-825.5 977,-795.5 641,-795.5"/>
<text text-anchor="start" x="648" y="-806.9" font-family="Arial" font-size="14.00" fill="#000000">confirmation_token </text>
<text text-anchor="start" x="770.1402" y="-806.9" font-family="Arial" font-size="14.00" fill="#666666">[varchar(255)]</text>
<polygon fill="none" stroke="#000000" points="641,-765.5 641,-795.5 977,-795.5 977,-765.5 641,-765.5"/>
<text text-anchor="start" x="648" y="-776.9" font-family="Arial" font-size="14.00" fill="#000000">confirmation_sent_at </text>
<text text-anchor="start" x="781.8134" y="-776.9" font-family="Arial" font-size="14.00" fill="#666666">[timestamp with time zone]</text>
<polygon fill="none" stroke="#000000" points="641,-735.5 641,-765.5 977,-765.5 977,-735.5 641,-735.5"/>
<text text-anchor="start" x="648" y="-746.9" font-family="Arial" font-size="14.00" fill="#000000">recovery_token </text>
<text text-anchor="start" x="747.5806" y="-746.9" font-family="Arial" font-size="14.00" fill="#666666">[varchar(255)]</text>
<polygon fill="none" stroke="#000000" points="641,-705.5 641,-735.5 977,-735.5 977,-705.5 641,-705.5"/>
<text text-anchor="start" x="648" y="-716.9" font-family="Arial" font-size="14.00" fill="#000000">recovery_sent_at </text>
<text text-anchor="start" x="759.2538" y="-716.9" font-family="Arial" font-size="14.00" fill="#666666">[timestamp with time zone]</text>
<polygon fill="none" stroke="#000000" points="641,-675.5 641,-705.5 977,-705.5 977,-675.5 641,-675.5"/>
<text text-anchor="start" x="648" y="-686.9" font-family="Arial" font-size="14.00" fill="#000000">email_change_token_new </text>
<text text-anchor="start" x="814.5006" y="-686.9" font-family="Arial" font-size="14.00" fill="#666666">[varchar(255)]</text>
<polygon fill="none" stroke="#000000" points="641,-645.5 641,-675.5 977,-675.5 977,-645.5 641,-645.5"/>
<text text-anchor="start" x="648" y="-656.9" font-family="Arial" font-size="14.00" fill="#000000">email_change </text>
<text text-anchor="start" x="739.0252" y="-656.9" font-family="Arial" font-size="14.00" fill="#666666">[varchar(255)]</text>
<polygon fill="none" stroke="#000000" points="641,-615.5 641,-645.5 977,-645.5 977,-615.5 641,-615.5"/>
<text text-anchor="start" x="648" y="-626.9" font-family="Arial" font-size="14.00" fill="#000000">email_change_sent_at </text>
<text text-anchor="start" x="792.7194" y="-626.9" font-family="Arial" font-size="14.00" fill="#666666">[timestamp with time zone]</text>
<polygon fill="none" stroke="#000000" points="641,-585.5 641,-615.5 977,-615.5 977,-585.5 641,-585.5"/>
<text text-anchor="start" x="648" y="-596.9" font-family="Arial" font-size="14.00" fill="#000000">last_sign_in_at </text>
<text text-anchor="start" x="745.2524" y="-596.9" font-family="Arial" font-size="14.00" fill="#666666">[timestamp with time zone]</text>
<polygon fill="none" stroke="#000000" points="641,-555.5 641,-585.5 977,-585.5 977,-555.5 641,-555.5"/>
<text text-anchor="start" x="648" y="-566.9" font-family="Arial" font-size="14.00" fill="#000000">raw_app_meta_data </text>
<text text-anchor="start" x="779.4908" y="-566.9" font-family="Arial" font-size="14.00" fill="#666666">[jsonb]</text>
<polygon fill="none" stroke="#000000" points="641,-525.5 641,-555.5 977,-555.5 977,-525.5 641,-525.5"/>
<text text-anchor="start" x="648" y="-536.9" font-family="Arial" font-size="14.00" fill="#000000">raw_user_meta_data </text>
<text text-anchor="start" x="783.3688" y="-536.9" font-family="Arial" font-size="14.00" fill="#666666">[jsonb]</text>
<polygon fill="none" stroke="#000000" points="641,-495.5 641,-525.5 977,-525.5 977,-495.5 641,-495.5"/>
<text text-anchor="start" x="648" y="-506.9" font-family="Arial" font-size="14.00" fill="#000000">is_super_admin </text>
<text text-anchor="start" x="750.6858" y="-506.9" font-family="Arial" font-size="14.00" fill="#666666">[boolean]</text>
<polygon fill="none" stroke="#000000" points="641,-465.5 641,-495.5 977,-495.5 977,-465.5 641,-465.5"/>
<text text-anchor="start" x="648" y="-476.9" font-family="Arial" font-size="14.00" fill="#000000">created_at </text>
<text text-anchor="start" x="718.028" y="-476.9" font-family="Arial" font-size="14.00" fill="#666666">[timestamp with time zone]</text>
<polygon fill="none" stroke="#000000" points="641,-435.5 641,-465.5 977,-465.5 977,-435.5 641,-435.5"/>
<text text-anchor="start" x="648" y="-446.9" font-family="Arial" font-size="14.00" fill="#000000">updated_at </text>
<text text-anchor="start" x="721.9326" y="-446.9" font-family="Arial" font-size="14.00" fill="#666666">[timestamp with time zone]</text>
<polygon fill="none" stroke="#000000" points="641,-405.5 641,-435.5 977,-435.5 977,-405.5 641,-405.5"/>
<text text-anchor="start" x="648" y="-416.9" font-family="Arial" font-size="14.00" fill="#000000">phone </text>
<text text-anchor="start" x="690.8036" y="-416.9" font-family="Arial" font-size="14.00" fill="#666666">[text]</text>
<polygon fill="none" stroke="#000000" points="641,-375.5 641,-405.5 977,-405.5 977,-375.5 641,-375.5"/>
<text text-anchor="start" x="648" y="-386.9" font-family="Arial" font-size="14.00" fill="#000000">phone_confirmed_at </text>
<text text-anchor="start" x="779.4908" y="-386.9" font-family="Arial" font-size="14.00" fill="#666666">[timestamp with time zone]</text>
<polygon fill="none" stroke="#000000" points="641,-345.5 641,-375.5 977,-375.5 977,-345.5 641,-345.5"/>
<text text-anchor="start" x="648" y="-356.9" font-family="Arial" font-size="14.00" fill="#000000">phone_change </text>
<text text-anchor="start" x="744.4992" y="-356.9" font-family="Arial" font-size="14.00" fill="#666666">[text]</text>
<polygon fill="none" stroke="#000000" points="641,-315.5 641,-345.5 977,-345.5 977,-315.5 641,-315.5"/>
<text text-anchor="start" x="648" y="-326.9" font-family="Arial" font-size="14.00" fill="#000000">phone_change_token </text>
<text text-anchor="start" x="786.5202" y="-326.9" font-family="Arial" font-size="14.00" fill="#666666">[varchar(255)]</text>
<polygon fill="none" stroke="#000000" points="641,-285.5 641,-315.5 977,-315.5 977,-285.5 641,-285.5"/>
<text text-anchor="start" x="648" y="-296.9" font-family="Arial" font-size="14.00" fill="#000000">phone_change_sent_at </text>
<text text-anchor="start" x="798.1934" y="-296.9" font-family="Arial" font-size="14.00" fill="#666666">[timestamp with time zone]</text>
<polygon fill="none" stroke="#000000" points="641,-255.5 641,-285.5 977,-285.5 977,-255.5 641,-255.5"/>
<text text-anchor="start" x="648" y="-266.9" font-family="Arial" font-size="14.00" fill="#000000">confirmed_at </text>
<text text-anchor="start" x="732.7952" y="-266.9" font-family="Arial" font-size="14.00" fill="#666666">[timestamp with time zone]</text>
<polygon fill="none" stroke="#000000" points="641,-225.5 641,-255.5 977,-255.5 977,-225.5 641,-225.5"/>
<text text-anchor="start" x="648" y="-236.9" font-family="Arial" font-size="14.00" fill="#000000">email_change_token_current </text>
<text text-anchor="start" x="832.3884" y="-236.9" font-family="Arial" font-size="14.00" fill="#666666">[varchar(255)]</text>
<polygon fill="none" stroke="#000000" points="641,-195.5 641,-225.5 977,-225.5 977,-195.5 641,-195.5"/>
<text text-anchor="start" x="648" y="-206.9" font-family="Arial" font-size="14.00" fill="#000000">email_change_confirm_status </text>
<text text-anchor="start" x="837.8204" y="-206.9" font-family="Arial" font-size="14.00" fill="#666666">[smallint]</text>
<polygon fill="none" stroke="#000000" points="641,-165.5 641,-195.5 977,-195.5 977,-165.5 641,-165.5"/>
<text text-anchor="start" x="648" y="-176.9" font-family="Arial" font-size="14.00" fill="#000000">banned_until </text>
<text text-anchor="start" x="732.0378" y="-176.9" font-family="Arial" font-size="14.00" fill="#666666">[timestamp with time zone]</text>
<polygon fill="none" stroke="#000000" points="641,-135.5 641,-165.5 977,-165.5 977,-135.5 641,-135.5"/>
<text text-anchor="start" x="648" y="-146.9" font-family="Arial" font-size="14.00" fill="#000000">reauthentication_token </text>
<text text-anchor="start" x="793.5006" y="-146.9" font-family="Arial" font-size="14.00" fill="#666666">[varchar(255)]</text>
<polygon fill="none" stroke="#000000" points="641,-105.5 641,-135.5 977,-135.5 977,-105.5 641,-105.5"/>
<text text-anchor="start" x="647.5709" y="-116.9" font-family="Arial" font-size="14.00" fill="#000000">reauthentication_sent_at </text>
<text text-anchor="start" x="804.7447" y="-116.9" font-family="Arial" font-size="14.00" fill="#666666">[timestamp with time zone]</text>
<polygon fill="none" stroke="#000000" points="641,-75.5 641,-105.5 977,-105.5 977,-75.5 641,-75.5"/>
<text text-anchor="start" x="648" y="-86.9" font-family="Arial" font-size="14.00" fill="#000000">is_sso_user </text>
<text text-anchor="start" x="726.5708" y="-86.9" font-family="Arial" font-size="14.00" fill="#666666">[boolean]</text>
<polygon fill="none" stroke="#000000" points="641,-45.5 641,-75.5 977,-75.5 977,-45.5 641,-45.5"/>
<text text-anchor="start" x="648" y="-56.9" font-family="Arial" font-size="14.00" fill="#000000">deleted_at </text>
<text text-anchor="start" x="717.2566" y="-56.9" font-family="Arial" font-size="14.00" fill="#666666">[timestamp with time zone]</text>
<polygon fill="none" stroke="#000000" stroke-width="3" points="639.5,-44.5 639.5,-1102.5 978.5,-1102.5 978.5,-44.5 639.5,-44.5"/>
</g>
<!-- auth.identities -->
<g id="node2" class="node">
<title>auth.identities</title>
<polygon fill="#efefef" stroke="transparent" points="63,-1465.5 63,-1500.5 370,-1500.5 370,-1465.5 63,-1465.5"/>
<polygon fill="none" stroke="#000000" points="63,-1465.5 63,-1500.5 370,-1500.5 370,-1465.5 63,-1465.5"/>
<text text-anchor="start" x="97.1986" y="-1478.3" font-family="Arial Bold" font-size="18.00" fill="#000000">auth.identities</text>
<text text-anchor="start" x="208.2334" y="-1478.3" font-family="Arial" font-size="14.00" fill="#000000">    </text>
<text text-anchor="start" x="242.4382" y="-1478.3" font-family="Arial" font-size="14.00" fill="#666666">[BASE TABLE]</text>
<polygon fill="none" stroke="#000000" points="63,-1435.5 63,-1465.5 370,-1465.5 370,-1435.5 63,-1435.5"/>
<text text-anchor="start" x="70" y="-1446.9" font-family="Arial" font-size="14.00" fill="#000000">id    </text>
<text text-anchor="start" x="115.094" y="-1446.9" font-family="Arial" font-size="14.00" fill="#666666">[text]</text>
<polygon fill="none" stroke="#000000" points="63,-1405.5 63,-1435.5 370,-1435.5 370,-1405.5 63,-1405.5"/>
<text text-anchor="start" x="70" y="-1416.9" font-family="Arial" font-size="14.00" fill="#000000">user_id    </text>
<text text-anchor="start" x="150.1024" y="-1416.9" font-family="Arial" font-size="14.00" fill="#666666">[uuid]</text>
<polygon fill="none" stroke="#000000" points="63,-1375.5 63,-1405.5 370,-1405.5 370,-1375.5 63,-1375.5"/>
<text text-anchor="start" x="70" y="-1386.9" font-family="Arial" font-size="14.00" fill="#000000">identity_data    </text>
<text text-anchor="start" x="183.568" y="-1386.9" font-family="Arial" font-size="14.00" fill="#666666">[jsonb]</text>
<polygon fill="none" stroke="#000000" points="63,-1345.5 63,-1375.5 370,-1375.5 370,-1345.5 63,-1345.5"/>
<text text-anchor="start" x="70" y="-1356.9" font-family="Arial" font-size="14.00" fill="#000000">provider    </text>
<text text-anchor="start" x="154.763" y="-1356.9" font-family="Arial" font-size="14.00" fill="#666666">[text]</text>
<polygon fill="none" stroke="#000000" points="63,-1315.5 63,-1345.5 370,-1345.5 370,-1315.5 63,-1315.5"/>
<text text-anchor="start" x="69.8745" y="-1326.9" font-family="Arial" font-size="14.00" fill="#000000">last_sign_in_at    </text>
<text text-anchor="start" x="197.4411" y="-1326.9" font-family="Arial" font-size="14.00" fill="#666666">[timestamp with time zone]</text>
<polygon fill="none" stroke="#000000" points="63,-1285.5 63,-1315.5 370,-1315.5 370,-1285.5 63,-1285.5"/>
<text text-anchor="start" x="70" y="-1296.9" font-family="Arial" font-size="14.00" fill="#000000">created_at    </text>
<text text-anchor="start" x="170.3422" y="-1296.9" font-family="Arial" font-size="14.00" fill="#666666">[timestamp with time zone]</text>
<polygon fill="none" stroke="#000000" points="63,-1255.5 63,-1285.5 370,-1285.5 370,-1255.5 63,-1255.5"/>
<text text-anchor="start" x="70" y="-1266.9" font-family="Arial" font-size="14.00" fill="#000000">updated_at    </text>
<text text-anchor="start" x="174.2468" y="-1266.9" font-family="Arial" font-size="14.00" fill="#666666">[timestamp with time zone]</text>
<polygon fill="none" stroke="#000000" points="63,-1225.5 63,-1255.5 370,-1255.5 370,-1225.5 63,-1225.5"/>
<text text-anchor="start" x="70" y="-1236.9" font-family="Arial" font-size="14.00" fill="#000000">email    </text>
<text text-anchor="start" x="137.6438" y="-1236.9" font-family="Arial" font-size="14.00" fill="#666666">[text]</text>
</g>
<!-- auth.identities&#45;&gt;auth.users -->
<g id="edge1" class="edge">
<title>auth.identities:user_id&#45;&gt;auth.users:id</title>
<path fill="none" stroke="#000000" d="M380.0295,-1420.022C470.4838,-1410.8143 364.4056,-1270.7021 421,-1183 486.9105,-1080.8611 519.4412,-1020.5 641,-1020.5"/>
<polygon fill="#000000" stroke="#000000" points="379.9887,-1420.0238 369.7857,-1416.0051 374.9943,-1420.2619 370,-1420.5 370,-1420.5 370,-1420.5 374.9943,-1420.2619 370.2143,-1424.9949 379.9887,-1420.0238 379.9887,-1420.0238"/>
<text text-anchor="start" x="6.936" y="-1430.5" font-family="Arial" font-size="10.00" fill="#000000">FOREIGN KEY (user_id) REFERENCES auth.users(id) ON DELETE CASCADE</text>
</g>
<!-- auth.sessions -->
<g id="node3" class="node">
<title>auth.sessions</title>
<polygon fill="#efefef" stroke="transparent" points="474,-1450.5 474,-1485.5 757,-1485.5 757,-1450.5 474,-1450.5"/>
<polygon fill="none" stroke="#000000" points="474,-1450.5 474,-1485.5 757,-1485.5 757,-1450.5 474,-1450.5"/>
<text text-anchor="start" x="496.6981" y="-1463.3" font-family="Arial Bold" font-size="18.00" fill="#000000">auth.sessions</text>
<text text-anchor="start" x="606.7339" y="-1463.3" font-family="Arial" font-size="14.00" fill="#000000">    </text>
<text text-anchor="start" x="640.9387" y="-1463.3" font-family="Arial" font-size="14.00" fill="#666666">[BASE TABLE]</text>
<polygon fill="none" stroke="#000000" points="474,-1420.5 474,-1450.5 757,-1450.5 757,-1420.5 474,-1420.5"/>
<text text-anchor="start" x="481" y="-1431.9" font-family="Arial" font-size="14.00" fill="#000000">id    </text>
<text text-anchor="start" x="526.094" y="-1431.9" font-family="Arial" font-size="14.00" fill="#666666">[uuid]</text>
<polygon fill="none" stroke="#000000" points="474,-1390.5 474,-1420.5 757,-1420.5 757,-1390.5 474,-1390.5"/>
<text text-anchor="start" x="481" y="-1401.9" font-family="Arial" font-size="14.00" fill="#000000">user_id    </text>
<text text-anchor="start" x="561.1024" y="-1401.9" font-family="Arial" font-size="14.00" fill="#666666">[uuid]</text>
<polygon fill="none" stroke="#000000" points="474,-1360.5 474,-1390.5 757,-1390.5 757,-1360.5 474,-1360.5"/>
<text text-anchor="start" x="481" y="-1371.9" font-family="Arial" font-size="14.00" fill="#000000">created_at    </text>
<text text-anchor="start" x="581.3422" y="-1371.9" font-family="Arial" font-size="14.00" fill="#666666">[timestamp with time zone]</text>
<polygon fill="none" stroke="#000000" points="474,-1330.5 474,-1360.5 757,-1360.5 757,-1330.5 474,-1330.5"/>
<text text-anchor="start" x="480.5344" y="-1341.9" font-family="Arial" font-size="14.00" fill="#000000">updated_at    </text>
<text text-anchor="start" x="584.7812" y="-1341.9" font-family="Arial" font-size="14.00" fill="#666666">[timestamp with time zone]</text>
<polygon fill="none" stroke="#000000" points="474,-1300.5 474,-1330.5 757,-1330.5 757,-1300.5 474,-1300.5"/>
<text text-anchor="start" x="481" y="-1311.9" font-family="Arial" font-size="14.00" fill="#000000">factor_id    </text>
<text text-anchor="start" x="568.8836" y="-1311.9" font-family="Arial" font-size="14.00" fill="#666666">[uuid]</text>
<polygon fill="none" stroke="#000000" points="474,-1270.5 474,-1300.5 757,-1300.5 757,-1270.5 474,-1270.5"/>
<text text-anchor="start" x="481" y="-1281.9" font-family="Arial" font-size="14.00" fill="#000000">aal    </text>
<text text-anchor="start" x="533.8766" y="-1281.9" font-family="Arial" font-size="14.00" fill="#666666">[auth.aal_level]</text>
<polygon fill="none" stroke="#000000" points="474,-1240.5 474,-1270.5 757,-1270.5 757,-1240.5 474,-1240.5"/>
<text text-anchor="start" x="481" y="-1251.9" font-family="Arial" font-size="14.00" fill="#000000">not_after    </text>
<text text-anchor="start" x="570.4502" y="-1251.9" font-family="Arial" font-size="14.00" fill="#666666">[timestamp with time zone]</text>
</g>
<!-- auth.sessions&#45;&gt;auth.users -->
<g id="edge2" class="edge">
<title>auth.sessions:user_id&#45;&gt;auth.users:id</title>
<path fill="none" stroke="#000000" d="M766.6101,-1402.5502C799.8181,-1379.9066 780.2349,-1233.5967 757,-1198 726.2169,-1150.8391 671.7831,-1194.1609 641,-1147 610.2694,-1099.9196 584.7778,-1020.5 641,-1020.5"/>
<polygon fill="#000000" stroke="#000000" points="766.5598,-1402.5656 755.6795,-1401.1981 761.7799,-1404.0328 757,-1405.5 757,-1405.5 757,-1405.5 761.7799,-1404.0328 758.3205,-1409.8019 766.5598,-1402.5656 766.5598,-1402.5656"/>
<text text-anchor="start" x="763.936" y="-1415.5" font-family="Arial" font-size="10.00" fill="#000000">FOREIGN KEY (user_id) REFERENCES auth.users(id) ON DELETE CASCADE</text>
</g>
<!-- auth.mfa_factors -->
<g id="node4" class="node">
<title>auth.mfa_factors</title>
<polygon fill="#efefef" stroke="transparent" points="861,-1465.5 861,-1500.5 1144,-1500.5 1144,-1465.5 861,-1465.5"/>
<polygon fill="none" stroke="#000000" points="861,-1465.5 861,-1500.5 1144,-1500.5 1144,-1465.5 861,-1465.5"/>
<text text-anchor="start" x="871.6966" y="-1478.3" font-family="Arial Bold" font-size="18.00" fill="#000000">auth.mfa_factors</text>
<text text-anchor="start" x="1005.7354" y="-1478.3" font-family="Arial" font-size="14.00" fill="#000000">    </text>
<text text-anchor="start" x="1039.9402" y="-1478.3" font-family="Arial" font-size="14.00" fill="#666666">[BASE TABLE]</text>
<polygon fill="none" stroke="#000000" points="861,-1435.5 861,-1465.5 1144,-1465.5 1144,-1435.5 861,-1435.5"/>
<text text-anchor="start" x="868" y="-1446.9" font-family="Arial" font-size="14.00" fill="#000000">id    </text>
<text text-anchor="start" x="913.094" y="-1446.9" font-family="Arial" font-size="14.00" fill="#666666">[uuid]</text>
<polygon fill="none" stroke="#000000" points="861,-1405.5 861,-1435.5 1144,-1435.5 1144,-1405.5 861,-1405.5"/>
<text text-anchor="start" x="868" y="-1416.9" font-family="Arial" font-size="14.00" fill="#000000">user_id    </text>
<text text-anchor="start" x="948.1024" y="-1416.9" font-family="Arial" font-size="14.00" fill="#666666">[uuid]</text>
<polygon fill="none" stroke="#000000" points="861,-1375.5 861,-1405.5 1144,-1405.5 1144,-1375.5 861,-1375.5"/>
<text text-anchor="start" x="868" y="-1386.9" font-family="Arial" font-size="14.00" fill="#000000">friendly_name    </text>
<text text-anchor="start" x="990.108" y="-1386.9" font-family="Arial" font-size="14.00" fill="#666666">[text]</text>
<polygon fill="none" stroke="#000000" points="861,-1345.5 861,-1375.5 1144,-1375.5 1144,-1345.5 861,-1345.5"/>
<text text-anchor="start" x="868" y="-1356.9" font-family="Arial" font-size="14.00" fill="#000000">factor_type    </text>
<text text-anchor="start" x="971.4502" y="-1356.9" font-family="Arial" font-size="14.00" fill="#666666">[auth.factor_type]</text>
<polygon fill="none" stroke="#000000" points="861,-1315.5 861,-1345.5 1144,-1345.5 1144,-1315.5 861,-1315.5"/>
<text text-anchor="start" x="868" y="-1326.9" font-family="Arial" font-size="14.00" fill="#000000">status    </text>
<text text-anchor="start" x="939.5512" y="-1326.9" font-family="Arial" font-size="14.00" fill="#666666">[auth.factor_status]</text>
<polygon fill="none" stroke="#000000" points="861,-1285.5 861,-1315.5 1144,-1315.5 1144,-1285.5 861,-1285.5"/>
<text text-anchor="start" x="868" y="-1296.9" font-family="Arial" font-size="14.00" fill="#000000">created_at    </text>
<text text-anchor="start" x="968.3422" y="-1296.9" font-family="Arial" font-size="14.00" fill="#666666">[timestamp with time zone]</text>
<polygon fill="none" stroke="#000000" points="861,-1255.5 861,-1285.5 1144,-1285.5 1144,-1255.5 861,-1255.5"/>
<text text-anchor="start" x="867.5344" y="-1266.9" font-family="Arial" font-size="14.00" fill="#000000">updated_at    </text>
<text text-anchor="start" x="971.7812" y="-1266.9" font-family="Arial" font-size="14.00" fill="#666666">[timestamp with time zone]</text>
<polygon fill="none" stroke="#000000" points="861,-1225.5 861,-1255.5 1144,-1255.5 1144,-1225.5 861,-1225.5"/>
<text text-anchor="start" x="868" y="-1236.9" font-family="Arial" font-size="14.00" fill="#000000">secret    </text>
<text text-anchor="start" x="940.3212" y="-1236.9" font-family="Arial" font-size="14.00" fill="#666666">[text]</text>
</g>
<!-- auth.mfa_factors&#45;&gt;auth.users -->
<g id="edge3" class="edge">
<title>auth.mfa_factors:user_id&#45;&gt;auth.users:id</title>
<path fill="none" stroke="#000000" d="M851.1968,-1417.8772C811.204,-1394.5514 831.836,-1222.5871 861,-1183 893.0178,-1139.5392 944.9822,-1190.4608 977,-1147 1010.347,-1101.735 1033.2222,-1020.5 977,-1020.5"/>
<polygon fill="#000000" stroke="#000000" points="851.3398,-1417.9154 859.8369,-1424.8471 856.1699,-1419.2077 861,-1420.5 861,-1420.5 861,-1420.5 856.1699,-1419.2077 862.1631,-1416.1529 851.3398,-1417.9154 851.3398,-1417.9154"/>
<text text-anchor="start" x="867.936" y="-1430.5" font-family="Arial" font-size="10.00" fill="#000000">FOREIGN KEY (user_id) REFERENCES auth.users(id) ON DELETE CASCADE</text>
</g>
<!-- public.profiles -->
<g id="node5" class="node">
<title>public.profiles</title>
<polygon fill="#efefef" stroke="transparent" points="1248,-1435.5 1248,-1470.5 1531,-1470.5 1531,-1435.5 1248,-1435.5"/>
<polygon fill="none" stroke="#000000" points="1248,-1435.5 1248,-1470.5 1531,-1470.5 1531,-1435.5 1248,-1435.5"/>
<text text-anchor="start" x="1270.7107" y="-1448.3" font-family="Arial Bold" font-size="18.00" fill="#000000">public.profiles</text>
<text text-anchor="start" x="1380.7213" y="-1448.3" font-family="Arial" font-size="14.00" fill="#000000">    </text>
<text text-anchor="start" x="1414.9261" y="-1448.3" font-family="Arial" font-size="14.00" fill="#666666">[BASE TABLE]</text>
<polygon fill="none" stroke="#000000" points="1248,-1405.5 1248,-1435.5 1531,-1435.5 1531,-1405.5 1248,-1405.5"/>
<text text-anchor="start" x="1255" y="-1416.9" font-family="Arial" font-size="14.00" fill="#000000">id    </text>
<text text-anchor="start" x="1300.094" y="-1416.9" font-family="Arial" font-size="14.00" fill="#666666">[uuid]</text>
<polygon fill="none" stroke="#000000" points="1248,-1375.5 1248,-1405.5 1531,-1405.5 1531,-1375.5 1248,-1375.5"/>
<text text-anchor="start" x="1254.5344" y="-1386.9" font-family="Arial" font-size="14.00" fill="#000000">updated_at    </text>
<text text-anchor="start" x="1358.7812" y="-1386.9" font-family="Arial" font-size="14.00" fill="#666666">[timestamp with time zone]</text>
<polygon fill="none" stroke="#000000" points="1248,-1345.5 1248,-1375.5 1531,-1375.5 1531,-1345.5 1248,-1345.5"/>
<text text-anchor="start" x="1255" y="-1356.9" font-family="Arial" font-size="14.00" fill="#000000">username    </text>
<text text-anchor="start" x="1351.439" y="-1356.9" font-family="Arial" font-size="14.00" fill="#666666">[text]</text>
<polygon fill="none" stroke="#000000" points="1248,-1315.5 1248,-1345.5 1531,-1345.5 1531,-1315.5 1248,-1315.5"/>
<text text-anchor="start" x="1255" y="-1326.9" font-family="Arial" font-size="14.00" fill="#000000">full_name    </text>
<text text-anchor="start" x="1349.8822" y="-1326.9" font-family="Arial" font-size="14.00" fill="#666666">[text]</text>
<polygon fill="none" stroke="#000000" points="1248,-1285.5 1248,-1315.5 1531,-1315.5 1531,-1285.5 1248,-1285.5"/>
<text text-anchor="start" x="1255" y="-1296.9" font-family="Arial" font-size="14.00" fill="#000000">avatar_url    </text>
<text text-anchor="start" x="1351.4362" y="-1296.9" font-family="Arial" font-size="14.00" fill="#666666">[text]</text>
<polygon fill="none" stroke="#000000" points="1248,-1255.5 1248,-1285.5 1531,-1285.5 1531,-1255.5 1248,-1255.5"/>
<text text-anchor="start" x="1255" y="-1266.9" font-family="Arial" font-size="14.00" fill="#000000">website    </text>
<text text-anchor="start" x="1336.6564" y="-1266.9" font-family="Arial" font-size="14.00" fill="#666666">[text]</text>
</g>
<!-- public.profiles&#45;&gt;auth.users -->
<g id="edge4" class="edge">
<title>public.profiles:id&#45;&gt;auth.users:id</title>
<path fill="none" stroke="#000000" d="M1237.9589,-1420.022C1147.3715,-1410.8159 1252.7247,-1270.7264 1196,-1183 1130.1894,-1081.2219 1098.2016,-1020.5 977,-1020.5"/>
<polygon fill="#000000" stroke="#000000" points="1238.0113,-1420.0244 1247.786,-1424.9949 1243.0057,-1420.2622 1248,-1420.5 1248,-1420.5 1248,-1420.5 1243.0057,-1420.2622 1248.214,-1416.0051 1238.0113,-1420.0244 1238.0113,-1420.0244"/>
<text text-anchor="start" x="1255.439" y="-1430.5" font-family="Arial" font-size="10.00" fill="#000000">FOREIGN KEY (id) REFERENCES auth.users(id) ON DELETE CASCADE</text>
</g>
</g>
</svg>
