<?xml version="1.0" encoding="UTF-8" standalone="no"?>
<!DOCTYPE svg PUBLIC "-//W3C//DTD SVG 1.1//EN"
 "http://www.w3.org/Graphics/SVG/1.1/DTD/svg11.dtd">
<!-- Generated by graphviz version 2.40.1 (20161225.0304)
 -->
<!-- Title: auth.users Pages: 1 -->
<svg width="1629pt" height="1612pt"
 viewBox="0.00 0.00 1629.00 1612.00" xmlns="http://www.w3.org/2000/svg" xmlns:xlink="http://www.w3.org/1999/xlink">
<g id="graph0" class="graph" transform="scale(1 1) rotate(0) translate(4 1608)">
<title>auth.users</title>
<polygon fill="#ffffff" stroke="transparent" points="-4,4 -4,-1608 1625,-1608 1625,4 -4,4"/>
<!-- auth.users -->
<g id="node1" class="node">
<title>auth.users</title>
<polygon fill="#efefef" stroke="transparent" points="648,-1065.5 648,-1100.5 984,-1100.5 984,-1065.5 648,-1065.5"/>
<polygon fill="none" stroke="#000000" points="648,-1065.5 648,-1100.5 984,-1100.5 984,-1065.5 648,-1065.5"/>
<text text-anchor="start" x="710.2022" y="-1078.3" font-family="Arial Bold" font-size="18.00" fill="#000000">auth.users</text>
<text text-anchor="start" x="794.2298" y="-1078.3" font-family="Arial" font-size="14.00" fill="#000000">    </text>
<text text-anchor="start" x="828.4346" y="-1078.3" font-family="Arial" font-size="14.00" fill="#666666">[BASE TABLE]</text>
<polygon fill="none" stroke="#000000" points="648,-1035.5 648,-1065.5 984,-1065.5 984,-1035.5 648,-1035.5"/>
<text text-anchor="start" x="655" y="-1046.9" font-family="Arial" font-size="14.00" fill="#000000">instance_id </text>
<text text-anchor="start" x="729.69" y="-1046.9" font-family="Arial" font-size="14.00" fill="#666666">[uuid]</text>
<polygon fill="none" stroke="#000000" points="648,-1005.5 648,-1035.5 984,-1035.5 984,-1005.5 648,-1005.5"/>
<text text-anchor="start" x="655" y="-1016.9" font-family="Arial" font-size="14.00" fill="#000000">id </text>
<text text-anchor="start" x="669.7798" y="-1016.9" font-family="Arial" font-size="14.00" fill="#666666">[uuid]</text>
<polygon fill="none" stroke="#000000" points="648,-975.5 648,-1005.5 984,-1005.5 984,-975.5 648,-975.5"/>
<text text-anchor="start" x="655" y="-986.9" font-family="Arial" font-size="14.00" fill="#000000">aud </text>
<text text-anchor="start" x="682.2384" y="-986.9" font-family="Arial" font-size="14.00" fill="#666666">[varchar(255)]</text>
<polygon fill="none" stroke="#000000" points="648,-945.5 648,-975.5 984,-975.5 984,-945.5 648,-945.5"/>
<text text-anchor="start" x="655" y="-956.9" font-family="Arial" font-size="14.00" fill="#000000">role </text>
<text text-anchor="start" x="682.223" y="-956.9" font-family="Arial" font-size="14.00" fill="#666666">[varchar(255)]</text>
<polygon fill="none" stroke="#000000" points="648,-915.5 648,-945.5 984,-945.5 984,-915.5 648,-915.5"/>
<text text-anchor="start" x="655" y="-926.9" font-family="Arial" font-size="14.00" fill="#000000">email </text>
<text text-anchor="start" x="692.3296" y="-926.9" font-family="Arial" font-size="14.00" fill="#666666">[varchar(255)]</text>
<polygon fill="none" stroke="#000000" points="648,-885.5 648,-915.5 984,-915.5 984,-885.5 648,-885.5"/>
<text text-anchor="start" x="655" y="-896.9" font-family="Arial" font-size="14.00" fill="#000000">encrypted_password </text>
<text text-anchor="start" x="788.035" y="-896.9" font-family="Arial" font-size="14.00" fill="#666666">[varchar(255)]</text>
<polygon fill="none" stroke="#000000" points="648,-855.5 648,-885.5 984,-885.5 984,-855.5 648,-855.5"/>
<text text-anchor="start" x="655" y="-866.9" font-family="Arial" font-size="14.00" fill="#000000">email_confirmed_at </text>
<text text-anchor="start" x="781.0168" y="-866.9" font-family="Arial" font-size="14.00" fill="#666666">[timestamp with time zone]</text>
<polygon fill="none" stroke="#000000" points="648,-825.5 648,-855.5 984,-855.5 984,-825.5 648,-825.5"/>
<text text-anchor="start" x="655" y="-836.9" font-family="Arial" font-size="14.00" fill="#000000">invited_at </text>
<text text-anchor="start" x="718.798" y="-836.9" font-family="Arial" font-size="14.00" fill="#666666">[timestamp with time zone]</text>
<polygon fill="none" stroke="#000000" points="648,-795.5 648,-825.5 984,-825.5 984,-795.5 648,-795.5"/>
<text text-anchor="start" x="655" y="-806.9" font-family="Arial" font-size="14.00" fill="#000000">confirmation_token </text>
<text text-anchor="start" x="777.1402" y="-806.9" font-family="Arial" font-size="14.00" fill="#666666">[varchar(255)]</text>
<polygon fill="none" stroke="#000000" points="648,-765.5 648,-795.5 984,-795.5 984,-765.5 648,-765.5"/>
<text text-anchor="start" x="655" y="-776.9" font-family="Arial" font-size="14.00" fill="#000000">confirmation_sent_at </text>
<text text-anchor="start" x="788.8134" y="-776.9" font-family="Arial" font-size="14.00" fill="#666666">[timestamp with time zone]</text>
<polygon fill="none" stroke="#000000" points="648,-735.5 648,-765.5 984,-765.5 984,-735.5 648,-735.5"/>
<text text-anchor="start" x="655" y="-746.9" font-family="Arial" font-size="14.00" fill="#000000">recovery_token </text>
<text text-anchor="start" x="754.5806" y="-746.9" font-family="Arial" font-size="14.00" fill="#666666">[varchar(255)]</text>
<polygon fill="none" stroke="#000000" points="648,-705.5 648,-735.5 984,-735.5 984,-705.5 648,-705.5"/>
<text text-anchor="start" x="655" y="-716.9" font-family="Arial" font-size="14.00" fill="#000000">recovery_sent_at </text>
<text text-anchor="start" x="766.2538" y="-716.9" font-family="Arial" font-size="14.00" fill="#666666">[timestamp with time zone]</text>
<polygon fill="none" stroke="#000000" points="648,-675.5 648,-705.5 984,-705.5 984,-675.5 648,-675.5"/>
<text text-anchor="start" x="655" y="-686.9" font-family="Arial" font-size="14.00" fill="#000000">email_change_token_new </text>
<text text-anchor="start" x="821.5006" y="-686.9" font-family="Arial" font-size="14.00" fill="#666666">[varchar(255)]</text>
<polygon fill="none" stroke="#000000" points="648,-645.5 648,-675.5 984,-675.5 984,-645.5 648,-645.5"/>
<text text-anchor="start" x="655" y="-656.9" font-family="Arial" font-size="14.00" fill="#000000">email_change </text>
<text text-anchor="start" x="746.0252" y="-656.9" font-family="Arial" font-size="14.00" fill="#666666">[varchar(255)]</text>
<polygon fill="none" stroke="#000000" points="648,-615.5 648,-645.5 984,-645.5 984,-615.5 648,-615.5"/>
<text text-anchor="start" x="655" y="-626.9" font-family="Arial" font-size="14.00" fill="#000000">email_change_sent_at </text>
<text text-anchor="start" x="799.7194" y="-626.9" font-family="Arial" font-size="14.00" fill="#666666">[timestamp with time zone]</text>
<polygon fill="none" stroke="#000000" points="648,-585.5 648,-615.5 984,-615.5 984,-585.5 648,-585.5"/>
<text text-anchor="start" x="655" y="-596.9" font-family="Arial" font-size="14.00" fill="#000000">last_sign_in_at </text>
<text text-anchor="start" x="752.2524" y="-596.9" font-family="Arial" font-size="14.00" fill="#666666">[timestamp with time zone]</text>
<polygon fill="none" stroke="#000000" points="648,-555.5 648,-585.5 984,-585.5 984,-555.5 648,-555.5"/>
<text text-anchor="start" x="655" y="-566.9" font-family="Arial" font-size="14.00" fill="#000000">raw_app_meta_data </text>
<text text-anchor="start" x="786.4908" y="-566.9" font-family="Arial" font-size="14.00" fill="#666666">[jsonb]</text>
<polygon fill="none" stroke="#000000" points="648,-525.5 648,-555.5 984,-555.5 984,-525.5 648,-525.5"/>
<text text-anchor="start" x="655" y="-536.9" font-family="Arial" font-size="14.00" fill="#000000">raw_user_meta_data </text>
<text text-anchor="start" x="790.3688" y="-536.9" font-family="Arial" font-size="14.00" fill="#666666">[jsonb]</text>
<polygon fill="none" stroke="#000000" points="648,-495.5 648,-525.5 984,-525.5 984,-495.5 648,-495.5"/>
<text text-anchor="start" x="655" y="-506.9" font-family="Arial" font-size="14.00" fill="#000000">is_super_admin </text>
<text text-anchor="start" x="757.6858" y="-506.9" font-family="Arial" font-size="14.00" fill="#666666">[boolean]</text>
<polygon fill="none" stroke="#000000" points="648,-465.5 648,-495.5 984,-495.5 984,-465.5 648,-465.5"/>
<text text-anchor="start" x="655" y="-476.9" font-family="Arial" font-size="14.00" fill="#000000">created_at </text>
<text text-anchor="start" x="725.028" y="-476.9" font-family="Arial" font-size="14.00" fill="#666666">[timestamp with time zone]</text>
<polygon fill="none" stroke="#000000" points="648,-435.5 648,-465.5 984,-465.5 984,-435.5 648,-435.5"/>
<text text-anchor="start" x="655" y="-446.9" font-family="Arial" font-size="14.00" fill="#000000">updated_at </text>
<text text-anchor="start" x="728.9326" y="-446.9" font-family="Arial" font-size="14.00" fill="#666666">[timestamp with time zone]</text>
<polygon fill="none" stroke="#000000" points="648,-405.5 648,-435.5 984,-435.5 984,-405.5 648,-405.5"/>
<text text-anchor="start" x="655" y="-416.9" font-family="Arial" font-size="14.00" fill="#000000">phone </text>
<text text-anchor="start" x="697.8036" y="-416.9" font-family="Arial" font-size="14.00" fill="#666666">[text]</text>
<polygon fill="none" stroke="#000000" points="648,-375.5 648,-405.5 984,-405.5 984,-375.5 648,-375.5"/>
<text text-anchor="start" x="655" y="-386.9" font-family="Arial" font-size="14.00" fill="#000000">phone_confirmed_at </text>
<text text-anchor="start" x="786.4908" y="-386.9" font-family="Arial" font-size="14.00" fill="#666666">[timestamp with time zone]</text>
<polygon fill="none" stroke="#000000" points="648,-345.5 648,-375.5 984,-375.5 984,-345.5 648,-345.5"/>
<text text-anchor="start" x="655" y="-356.9" font-family="Arial" font-size="14.00" fill="#000000">phone_change </text>
<text text-anchor="start" x="751.4992" y="-356.9" font-family="Arial" font-size="14.00" fill="#666666">[text]</text>
<polygon fill="none" stroke="#000000" points="648,-315.5 648,-345.5 984,-345.5 984,-315.5 648,-315.5"/>
<text text-anchor="start" x="655" y="-326.9" font-family="Arial" font-size="14.00" fill="#000000">phone_change_token </text>
<text text-anchor="start" x="793.5202" y="-326.9" font-family="Arial" font-size="14.00" fill="#666666">[varchar(255)]</text>
<polygon fill="none" stroke="#000000" points="648,-285.5 648,-315.5 984,-315.5 984,-285.5 648,-285.5"/>
<text text-anchor="start" x="655" y="-296.9" font-family="Arial" font-size="14.00" fill="#000000">phone_change_sent_at </text>
<text text-anchor="start" x="805.1934" y="-296.9" font-family="Arial" font-size="14.00" fill="#666666">[timestamp with time zone]</text>
<polygon fill="none" stroke="#000000" points="648,-255.5 648,-285.5 984,-285.5 984,-255.5 648,-255.5"/>
<text text-anchor="start" x="655" y="-266.9" font-family="Arial" font-size="14.00" fill="#000000">confirmed_at </text>
<text text-anchor="start" x="739.7952" y="-266.9" font-family="Arial" font-size="14.00" fill="#666666">[timestamp with time zone]</text>
<polygon fill="none" stroke="#000000" points="648,-225.5 648,-255.5 984,-255.5 984,-225.5 648,-225.5"/>
<text text-anchor="start" x="655" y="-236.9" font-family="Arial" font-size="14.00" fill="#000000">email_change_token_current </text>
<text text-anchor="start" x="839.3884" y="-236.9" font-family="Arial" font-size="14.00" fill="#666666">[varchar(255)]</text>
<polygon fill="none" stroke="#000000" points="648,-195.5 648,-225.5 984,-225.5 984,-195.5 648,-195.5"/>
<text text-anchor="start" x="655" y="-206.9" font-family="Arial" font-size="14.00" fill="#000000">email_change_confirm_status </text>
<text text-anchor="start" x="844.8204" y="-206.9" font-family="Arial" font-size="14.00" fill="#666666">[smallint]</text>
<polygon fill="none" stroke="#000000" points="648,-165.5 648,-195.5 984,-195.5 984,-165.5 648,-165.5"/>
<text text-anchor="start" x="655" y="-176.9" font-family="Arial" font-size="14.00" fill="#000000">banned_until </text>
<text text-anchor="start" x="739.0378" y="-176.9" font-family="Arial" font-size="14.00" fill="#666666">[timestamp with time zone]</text>
<polygon fill="none" stroke="#000000" points="648,-135.5 648,-165.5 984,-165.5 984,-135.5 648,-135.5"/>
<text text-anchor="start" x="655" y="-146.9" font-family="Arial" font-size="14.00" fill="#000000">reauthentication_token </text>
<text text-anchor="start" x="800.5006" y="-146.9" font-family="Arial" font-size="14.00" fill="#666666">[varchar(255)]</text>
<polygon fill="none" stroke="#000000" points="648,-105.5 648,-135.5 984,-135.5 984,-105.5 648,-105.5"/>
<text text-anchor="start" x="654.5709" y="-116.9" font-family="Arial" font-size="14.00" fill="#000000">reauthentication_sent_at </text>
<text text-anchor="start" x="811.7447" y="-116.9" font-family="Arial" font-size="14.00" fill="#666666">[timestamp with time zone]</text>
<polygon fill="none" stroke="#000000" points="648,-75.5 648,-105.5 984,-105.5 984,-75.5 648,-75.5"/>
<text text-anchor="start" x="655" y="-86.9" font-family="Arial" font-size="14.00" fill="#000000">is_sso_user </text>
<text text-anchor="start" x="733.5708" y="-86.9" font-family="Arial" font-size="14.00" fill="#666666">[boolean]</text>
<polygon fill="none" stroke="#000000" points="648,-45.5 648,-75.5 984,-75.5 984,-45.5 648,-45.5"/>
<text text-anchor="start" x="655" y="-56.9" font-family="Arial" font-size="14.00" fill="#000000">deleted_at </text>
<text text-anchor="start" x="724.2566" y="-56.9" font-family="Arial" font-size="14.00" fill="#666666">[timestamp with time zone]</text>
<polygon fill="none" stroke="#000000" stroke-width="3" points="646.5,-44.5 646.5,-1102.5 985.5,-1102.5 985.5,-44.5 646.5,-44.5"/>
</g>
<!-- auth.identities -->
<g id="node2" class="node">
<title>auth.identities</title>
<polygon fill="#efefef" stroke="transparent" points="63,-1495.5 63,-1530.5 370,-1530.5 370,-1495.5 63,-1495.5"/>
<polygon fill="none" stroke="#000000" points="63,-1495.5 63,-1530.5 370,-1530.5 370,-1495.5 63,-1495.5"/>
<text text-anchor="start" x="97.1986" y="-1508.3" font-family="Arial Bold" font-size="18.00" fill="#000000">auth.identities</text>
<text text-anchor="start" x="208.2334" y="-1508.3" font-family="Arial" font-size="14.00" fill="#000000">    </text>
<text text-anchor="start" x="242.4382" y="-1508.3" font-family="Arial" font-size="14.00" fill="#666666">[BASE TABLE]</text>
<polygon fill="none" stroke="#000000" points="63,-1465.5 63,-1495.5 370,-1495.5 370,-1465.5 63,-1465.5"/>
<text text-anchor="start" x="70" y="-1476.9" font-family="Arial" font-size="14.00" fill="#000000">id    </text>
<text text-anchor="start" x="115.094" y="-1476.9" font-family="Arial" font-size="14.00" fill="#666666">[text]</text>
<polygon fill="none" stroke="#000000" points="63,-1435.5 63,-1465.5 370,-1465.5 370,-1435.5 63,-1435.5"/>
<text text-anchor="start" x="70" y="-1446.9" font-family="Arial" font-size="14.00" fill="#000000">user_id    </text>
<text text-anchor="start" x="150.1024" y="-1446.9" font-family="Arial" font-size="14.00" fill="#666666">[uuid]</text>
<polygon fill="none" stroke="#000000" points="63,-1405.5 63,-1435.5 370,-1435.5 370,-1405.5 63,-1405.5"/>
<text text-anchor="start" x="70" y="-1416.9" font-family="Arial" font-size="14.00" fill="#000000">identity_data    </text>
<text text-anchor="start" x="183.568" y="-1416.9" font-family="Arial" font-size="14.00" fill="#666666">[jsonb]</text>
<polygon fill="none" stroke="#000000" points="63,-1375.5 63,-1405.5 370,-1405.5 370,-1375.5 63,-1375.5"/>
<text text-anchor="start" x="70" y="-1386.9" font-family="Arial" font-size="14.00" fill="#000000">provider    </text>
<text text-anchor="start" x="154.763" y="-1386.9" font-family="Arial" font-size="14.00" fill="#666666">[text]</text>
<polygon fill="none" stroke="#000000" points="63,-1345.5 63,-1375.5 370,-1375.5 370,-1345.5 63,-1345.5"/>
<text text-anchor="start" x="69.8745" y="-1356.9" font-family="Arial" font-size="14.00" fill="#000000">last_sign_in_at    </text>
<text text-anchor="start" x="197.4411" y="-1356.9" font-family="Arial" font-size="14.00" fill="#666666">[timestamp with time zone]</text>
<polygon fill="none" stroke="#000000" points="63,-1315.5 63,-1345.5 370,-1345.5 370,-1315.5 63,-1315.5"/>
<text text-anchor="start" x="70" y="-1326.9" font-family="Arial" font-size="14.00" fill="#000000">created_at    </text>
<text text-anchor="start" x="170.3422" y="-1326.9" font-family="Arial" font-size="14.00" fill="#666666">[timestamp with time zone]</text>
<polygon fill="none" stroke="#000000" points="63,-1285.5 63,-1315.5 370,-1315.5 370,-1285.5 63,-1285.5"/>
<text text-anchor="start" x="70" y="-1296.9" font-family="Arial" font-size="14.00" fill="#000000">updated_at    </text>
<text text-anchor="start" x="174.2468" y="-1296.9" font-family="Arial" font-size="14.00" fill="#666666">[timestamp with time zone]</text>
<polygon fill="none" stroke="#000000" points="63,-1255.5 63,-1285.5 370,-1285.5 370,-1255.5 63,-1255.5"/>
<text text-anchor="start" x="70" y="-1266.9" font-family="Arial" font-size="14.00" fill="#000000">email    </text>
<text text-anchor="start" x="137.6438" y="-1266.9" font-family="Arial" font-size="14.00" fill="#666666">[text]</text>
</g>
<!-- auth.identities&#45;&gt;auth.users -->
<g id="edge1" class="edge">
<title>auth.identities:user_id&#45;&gt;auth.users:id</title>
<path fill="none" stroke="#000000" d="M379.9026,-1448.2036C425.6889,-1424.8879 390.3716,-1230.8953 421,-1183 487.8451,-1078.4708 523.925,-1020.5 648,-1020.5"/>
<polygon fill="#000000" stroke="#000000" points="379.7415,-1448.2409 368.9834,-1446.1163 374.8707,-1449.3704 370,-1450.5 370,-1450.5 370,-1450.5 374.8707,-1449.3704 371.0166,-1454.8837 379.7415,-1448.2409 379.7415,-1448.2409"/>
<text text-anchor="start" x="6.936" y="-1460.5" font-family="Arial" font-size="10.00" fill="#000000">FOREIGN KEY (user_id) REFERENCES auth.users(id) ON DELETE CASCADE</text>
</g>
<!-- auth.mfa_factors -->
<g id="node3" class="node">
<title>auth.mfa_factors</title>
<polygon fill="#efefef" stroke="transparent" points="474,-1495.5 474,-1530.5 757,-1530.5 757,-1495.5 474,-1495.5"/>
<polygon fill="none" stroke="#000000" points="474,-1495.5 474,-1530.5 757,-1530.5 757,-1495.5 474,-1495.5"/>
<text text-anchor="start" x="484.6966" y="-1508.3" font-family="Arial Bold" font-size="18.00" fill="#000000">auth.mfa_factors</text>
<text text-anchor="start" x="618.7354" y="-1508.3" font-family="Arial" font-size="14.00" fill="#000000">    </text>
<text text-anchor="start" x="652.9402" y="-1508.3" font-family="Arial" font-size="14.00" fill="#666666">[BASE TABLE]</text>
<polygon fill="none" stroke="#000000" points="474,-1465.5 474,-1495.5 757,-1495.5 757,-1465.5 474,-1465.5"/>
<text text-anchor="start" x="481" y="-1476.9" font-family="Arial" font-size="14.00" fill="#000000">id    </text>
<text text-anchor="start" x="526.094" y="-1476.9" font-family="Arial" font-size="14.00" fill="#666666">[uuid]</text>
<polygon fill="none" stroke="#000000" points="474,-1435.5 474,-1465.5 757,-1465.5 757,-1435.5 474,-1435.5"/>
<text text-anchor="start" x="481" y="-1446.9" font-family="Arial" font-size="14.00" fill="#000000">user_id    </text>
<text text-anchor="start" x="561.1024" y="-1446.9" font-family="Arial" font-size="14.00" fill="#666666">[uuid]</text>
<polygon fill="none" stroke="#000000" points="474,-1405.5 474,-1435.5 757,-1435.5 757,-1405.5 474,-1405.5"/>
<text text-anchor="start" x="481" y="-1416.9" font-family="Arial" font-size="14.00" fill="#000000">friendly_name    </text>
<text text-anchor="start" x="603.108" y="-1416.9" font-family="Arial" font-size="14.00" fill="#666666">[text]</text>
<polygon fill="none" stroke="#000000" points="474,-1375.5 474,-1405.5 757,-1405.5 757,-1375.5 474,-1375.5"/>
<text text-anchor="start" x="481" y="-1386.9" font-family="Arial" font-size="14.00" fill="#000000">factor_type    </text>
<text text-anchor="start" x="584.4502" y="-1386.9" font-family="Arial" font-size="14.00" fill="#666666">[auth.factor_type]</text>
<polygon fill="none" stroke="#000000" points="474,-1345.5 474,-1375.5 757,-1375.5 757,-1345.5 474,-1345.5"/>
<text text-anchor="start" x="481" y="-1356.9" font-family="Arial" font-size="14.00" fill="#000000">status    </text>
<text text-anchor="start" x="552.5512" y="-1356.9" font-family="Arial" font-size="14.00" fill="#666666">[auth.factor_status]</text>
<polygon fill="none" stroke="#000000" points="474,-1315.5 474,-1345.5 757,-1345.5 757,-1315.5 474,-1315.5"/>
<text text-anchor="start" x="481" y="-1326.9" font-family="Arial" font-size="14.00" fill="#000000">created_at    </text>
<text text-anchor="start" x="581.3422" y="-1326.9" font-family="Arial" font-size="14.00" fill="#666666">[timestamp with time zone]</text>
<polygon fill="none" stroke="#000000" points="474,-1285.5 474,-1315.5 757,-1315.5 757,-1285.5 474,-1285.5"/>
<text text-anchor="start" x="480.5344" y="-1296.9" font-family="Arial" font-size="14.00" fill="#000000">updated_at    </text>
<text text-anchor="start" x="584.7812" y="-1296.9" font-family="Arial" font-size="14.00" fill="#666666">[timestamp with time zone]</text>
<polygon fill="none" stroke="#000000" points="474,-1255.5 474,-1285.5 757,-1285.5 757,-1255.5 474,-1255.5"/>
<text text-anchor="start" x="481" y="-1266.9" font-family="Arial" font-size="14.00" fill="#000000">secret    </text>
<text text-anchor="start" x="553.3212" y="-1266.9" font-family="Arial" font-size="14.00" fill="#666666">[text]</text>
</g>
<!-- auth.mfa_factors&#45;&gt;auth.users -->
<g id="edge2" class="edge">
<title>auth.mfa_factors:user_id&#45;&gt;auth.users:id</title>
<path fill="none" stroke="#000000" d="M766.9796,-1447.7766C806.0043,-1424.287 781.0889,-1255.7467 757,-1213 729.1965,-1163.6616 675.8035,-1196.3384 648,-1147 620.3982,-1098.0196 591.7778,-1020.5 648,-1020.5"/>
<polygon fill="#000000" stroke="#000000" points="766.6472,-1447.8672 755.8153,-1446.1587 761.8236,-1449.1836 757,-1450.5 757,-1450.5 757,-1450.5 761.8236,-1449.1836 758.1847,-1454.8413 766.6472,-1447.8672 766.6472,-1447.8672"/>
<text text-anchor="start" x="763.936" y="-1460.5" font-family="Arial" font-size="10.00" fill="#000000">FOREIGN KEY (user_id) REFERENCES auth.users(id) ON DELETE CASCADE</text>
</g>
<!-- auth.sessions -->
<g id="node4" class="node">
<title>auth.sessions</title>
<polygon fill="#efefef" stroke="transparent" points="861,-1525.5 861,-1560.5 1172,-1560.5 1172,-1525.5 861,-1525.5"/>
<polygon fill="none" stroke="#000000" points="861,-1525.5 861,-1560.5 1172,-1560.5 1172,-1525.5 861,-1525.5"/>
<text text-anchor="start" x="897.6981" y="-1538.3" font-family="Arial Bold" font-size="18.00" fill="#000000">auth.sessions</text>
<text text-anchor="start" x="1007.7339" y="-1538.3" font-family="Arial" font-size="14.00" fill="#000000">    </text>
<text text-anchor="start" x="1041.9387" y="-1538.3" font-family="Arial" font-size="14.00" fill="#666666">[BASE TABLE]</text>
<polygon fill="none" stroke="#000000" points="861,-1495.5 861,-1525.5 1172,-1525.5 1172,-1495.5 861,-1495.5"/>
<text text-anchor="start" x="868" y="-1506.9" font-family="Arial" font-size="14.00" fill="#000000">id    </text>
<text text-anchor="start" x="913.094" y="-1506.9" font-family="Arial" font-size="14.00" fill="#666666">[uuid]</text>
<polygon fill="none" stroke="#000000" points="861,-1465.5 861,-1495.5 1172,-1495.5 1172,-1465.5 861,-1465.5"/>
<text text-anchor="start" x="868" y="-1476.9" font-family="Arial" font-size="14.00" fill="#000000">user_id    </text>
<text text-anchor="start" x="948.1024" y="-1476.9" font-family="Arial" font-size="14.00" fill="#666666">[uuid]</text>
<polygon fill="none" stroke="#000000" points="861,-1435.5 861,-1465.5 1172,-1465.5 1172,-1435.5 861,-1435.5"/>
<text text-anchor="start" x="868" y="-1446.9" font-family="Arial" font-size="14.00" fill="#000000">created_at    </text>
<text text-anchor="start" x="968.3422" y="-1446.9" font-family="Arial" font-size="14.00" fill="#666666">[timestamp with time zone]</text>
<polygon fill="none" stroke="#000000" points="861,-1405.5 861,-1435.5 1172,-1435.5 1172,-1405.5 861,-1405.5"/>
<text text-anchor="start" x="868" y="-1416.9" font-family="Arial" font-size="14.00" fill="#000000">updated_at    </text>
<text text-anchor="start" x="972.2468" y="-1416.9" font-family="Arial" font-size="14.00" fill="#666666">[timestamp with time zone]</text>
<polygon fill="none" stroke="#000000" points="861,-1375.5 861,-1405.5 1172,-1405.5 1172,-1375.5 861,-1375.5"/>
<text text-anchor="start" x="868" y="-1386.9" font-family="Arial" font-size="14.00" fill="#000000">factor_id    </text>
<text text-anchor="start" x="955.8836" y="-1386.9" font-family="Arial" font-size="14.00" fill="#666666">[uuid]</text>
<polygon fill="none" stroke="#000000" points="861,-1345.5 861,-1375.5 1172,-1375.5 1172,-1345.5 861,-1345.5"/>
<text text-anchor="start" x="868" y="-1356.9" font-family="Arial" font-size="14.00" fill="#000000">aal    </text>
<text text-anchor="start" x="920.8766" y="-1356.9" font-family="Arial" font-size="14.00" fill="#666666">[auth.aal_level]</text>
<polygon fill="none" stroke="#000000" points="861,-1315.5 861,-1345.5 1172,-1345.5 1172,-1315.5 861,-1315.5"/>
<text text-anchor="start" x="868" y="-1326.9" font-family="Arial" font-size="14.00" fill="#000000">not_after    </text>
<text text-anchor="start" x="957.4502" y="-1326.9" font-family="Arial" font-size="14.00" fill="#666666">[timestamp with time zone]</text>
<polygon fill="none" stroke="#000000" points="861,-1285.5 861,-1315.5 1172,-1315.5 1172,-1285.5 861,-1285.5"/>
<text text-anchor="start" x="867.5372" y="-1296.9" font-family="Arial" font-size="14.00" fill="#000000">refreshed_at    </text>
<text text-anchor="start" x="980.3226" y="-1296.9" font-family="Arial" font-size="14.00" fill="#666666">[timestamp without time zone]</text>
<polygon fill="none" stroke="#000000" points="861,-1255.5 861,-1285.5 1172,-1285.5 1172,-1255.5 861,-1255.5"/>
<text text-anchor="start" x="868" y="-1266.9" font-family="Arial" font-size="14.00" fill="#000000">user_agent    </text>
<text text-anchor="start" x="972.2342" y="-1266.9" font-family="Arial" font-size="14.00" fill="#666666">[text]</text>
<polygon fill="none" stroke="#000000" points="861,-1225.5 861,-1255.5 1172,-1255.5 1172,-1225.5 861,-1225.5"/>
<text text-anchor="start" x="868" y="-1236.9" font-family="Arial" font-size="14.00" fill="#000000">ip    </text>
<text text-anchor="start" x="913.094" y="-1236.9" font-family="Arial" font-size="14.00" fill="#666666">[inet]</text>
</g>
<!-- auth.sessions&#45;&gt;auth.users -->
<g id="edge3" class="edge">
<title>auth.sessions:user_id&#45;&gt;auth.users:id</title>
<path fill="none" stroke="#000000" d="M850.9713,-1478.3768C797.8234,-1454.321 823.526,-1233.0141 861,-1183 895.1547,-1137.416 949.8453,-1192.584 984,-1147 1017.7123,-1102.0064 1040.2222,-1020.5 984,-1020.5"/>
<polygon fill="#000000" stroke="#000000" points="851.2168,-1478.4287 860.0679,-1484.9024 856.1084,-1479.4644 861,-1480.5 861,-1480.5 861,-1480.5 856.1084,-1479.4644 861.9321,-1476.0976 851.2168,-1478.4287 851.2168,-1478.4287"/>
<text text-anchor="start" x="867.936" y="-1490.5" font-family="Arial" font-size="10.00" fill="#000000">FOREIGN KEY (user_id) REFERENCES auth.users(id) ON DELETE CASCADE</text>
</g>
<!-- public.profiles -->
<g id="node5" class="node">
<title>public.profiles</title>
<polygon fill="#efefef" stroke="transparent" points="1276,-1465.5 1276,-1500.5 1559,-1500.5 1559,-1465.5 1276,-1465.5"/>
<polygon fill="none" stroke="#000000" points="1276,-1465.5 1276,-1500.5 1559,-1500.5 1559,-1465.5 1276,-1465.5"/>
<text text-anchor="start" x="1298.7107" y="-1478.3" font-family="Arial Bold" font-size="18.00" fill="#000000">public.profiles</text>
<text text-anchor="start" x="1408.7213" y="-1478.3" font-family="Arial" font-size="14.00" fill="#000000">    </text>
<text text-anchor="start" x="1442.9261" y="-1478.3" font-family="Arial" font-size="14.00" fill="#666666">[BASE TABLE]</text>
<polygon fill="none" stroke="#000000" points="1276,-1435.5 1276,-1465.5 1559,-1465.5 1559,-1435.5 1276,-1435.5"/>
<text text-anchor="start" x="1283" y="-1446.9" font-family="Arial" font-size="14.00" fill="#000000">id    </text>
<text text-anchor="start" x="1328.094" y="-1446.9" font-family="Arial" font-size="14.00" fill="#666666">[uuid]</text>
<polygon fill="none" stroke="#000000" points="1276,-1405.5 1276,-1435.5 1559,-1435.5 1559,-1405.5 1276,-1405.5"/>
<text text-anchor="start" x="1282.5344" y="-1416.9" font-family="Arial" font-size="14.00" fill="#000000">updated_at    </text>
<text text-anchor="start" x="1386.7812" y="-1416.9" font-family="Arial" font-size="14.00" fill="#666666">[timestamp with time zone]</text>
<polygon fill="none" stroke="#000000" points="1276,-1375.5 1276,-1405.5 1559,-1405.5 1559,-1375.5 1276,-1375.5"/>
<text text-anchor="start" x="1283" y="-1386.9" font-family="Arial" font-size="14.00" fill="#000000">username    </text>
<text text-anchor="start" x="1379.439" y="-1386.9" font-family="Arial" font-size="14.00" fill="#666666">[text]</text>
<polygon fill="none" stroke="#000000" points="1276,-1345.5 1276,-1375.5 1559,-1375.5 1559,-1345.5 1276,-1345.5"/>
<text text-anchor="start" x="1283" y="-1356.9" font-family="Arial" font-size="14.00" fill="#000000">full_name    </text>
<text text-anchor="start" x="1377.8822" y="-1356.9" font-family="Arial" font-size="14.00" fill="#666666">[text]</text>
<polygon fill="none" stroke="#000000" points="1276,-1315.5 1276,-1345.5 1559,-1345.5 1559,-1315.5 1276,-1315.5"/>
<text text-anchor="start" x="1283" y="-1326.9" font-family="Arial" font-size="14.00" fill="#000000">avatar_url    </text>
<text text-anchor="start" x="1379.4362" y="-1326.9" font-family="Arial" font-size="14.00" fill="#666666">[text]</text>
<polygon fill="none" stroke="#000000" points="1276,-1285.5 1276,-1315.5 1559,-1315.5 1559,-1285.5 1276,-1285.5"/>
<text text-anchor="start" x="1283" y="-1296.9" font-family="Arial" font-size="14.00" fill="#000000">website    </text>
<text text-anchor="start" x="1364.6564" y="-1296.9" font-family="Arial" font-size="14.00" fill="#666666">[text]</text>
</g>
<!-- public.profiles&#45;&gt;auth.users -->
<g id="edge4" class="edge">
<title>public.profiles:id&#45;&gt;auth.users:id</title>
<path fill="none" stroke="#000000" d="M1266.0881,-1448.1989C1220.245,-1424.8361 1255.3584,-1230.4678 1224,-1183 1152.9954,-1075.5189 1112.817,-1020.5 984,-1020.5"/>
<polygon fill="#000000" stroke="#000000" points="1266.2591,-1448.2385 1274.9823,-1454.8834 1271.1295,-1449.3693 1276,-1450.5 1276,-1450.5 1276,-1450.5 1271.1295,-1449.3693 1277.0177,-1446.1166 1266.2591,-1448.2385 1266.2591,-1448.2385"/>
<text text-anchor="start" x="1283.439" y="-1460.5" font-family="Arial" font-size="10.00" fill="#000000">FOREIGN KEY (id) REFERENCES auth.users(id) ON DELETE CASCADE</text>
</g>
</g>
</svg>
