<?xml version="1.0" encoding="UTF-8" standalone="no"?>
<!DOCTYPE svg PUBLIC "-//W3C//DTD SVG 1.1//EN"
 "http://www.w3.org/Graphics/SVG/1.1/DTD/svg11.dtd">
<!-- Generated by graphviz version 2.40.1 (20161225.0304)
 -->
<!-- Title: public.sportmans Pages: 1 -->
<svg width="607pt" height="412pt"
 viewBox="0.00 0.00 606.50 412.00" xmlns="http://www.w3.org/2000/svg" xmlns:xlink="http://www.w3.org/1999/xlink">
<g id="graph0" class="graph" transform="scale(1 1) rotate(0) translate(4 408)">
<title>public.sportmans</title>
<polygon fill="#ffffff" stroke="transparent" points="-4,4 -4,-408 602.5,-408 602.5,4 -4,4"/>
<!-- public.sportmans -->
<g id="node1" class="node">
<title>public.sportmans</title>
<polygon fill="#efefef" stroke="transparent" points="276,-105.5 276,-140.5 553,-140.5 553,-105.5 276,-105.5"/>
<polygon fill="none" stroke="#000000" points="276,-105.5 276,-140.5 553,-140.5 553,-105.5 276,-105.5"/>
<text text-anchor="start" x="282.7057" y="-118.3" font-family="Arial Bold" font-size="18.00" fill="#000000">public.sportmans</text>
<text text-anchor="start" x="418.7263" y="-118.3" font-family="Arial" font-size="14.00" fill="#000000">    </text>
<text text-anchor="start" x="452.9311" y="-118.3" font-family="Arial" font-size="14.00" fill="#666666">[BASE TABLE]</text>
<polygon fill="none" stroke="#000000" points="276,-75.5 276,-105.5 553,-105.5 553,-75.5 276,-75.5"/>
<text text-anchor="start" x="283" y="-86.9" font-family="Arial" font-size="14.00" fill="#000000">id </text>
<text text-anchor="start" x="297.7798" y="-86.9" font-family="Arial" font-size="14.00" fill="#666666">[integer]</text>
<polygon fill="none" stroke="#000000" points="276,-45.5 276,-75.5 553,-75.5 553,-45.5 276,-45.5"/>
<text text-anchor="start" x="283" y="-56.9" font-family="Arial" font-size="14.00" fill="#000000">name </text>
<text text-anchor="start" x="321.899" y="-56.9" font-family="Arial" font-size="14.00" fill="#666666">[text]</text>
<polygon fill="none" stroke="#000000" stroke-width="3" points="274,-44.5 274,-142.5 554,-142.5 554,-44.5 274,-44.5"/>
</g>
<!-- public.members -->
<g id="node2" class="node">
<title>public.members</title>
<polygon fill="#efefef" stroke="transparent" points="281,-325.5 281,-360.5 549,-360.5 549,-325.5 281,-325.5"/>
<polygon fill="none" stroke="#000000" points="281,-325.5 281,-360.5 549,-360.5 549,-325.5 281,-325.5"/>
<text text-anchor="start" x="287.7138" y="-338.3" font-family="Arial Bold" font-size="18.00" fill="#000000">public.members</text>
<text text-anchor="start" x="414.7182" y="-338.3" font-family="Arial" font-size="14.00" fill="#000000">    </text>
<text text-anchor="start" x="448.923" y="-338.3" font-family="Arial" font-size="14.00" fill="#666666">[BASE TABLE]</text>
<polygon fill="none" stroke="#000000" points="281,-295.5 281,-325.5 549,-325.5 549,-295.5 281,-295.5"/>
<text text-anchor="start" x="288" y="-306.9" font-family="Arial" font-size="14.00" fill="#000000">sportman_id    </text>
<text text-anchor="start" x="399.2188" y="-306.9" font-family="Arial" font-size="14.00" fill="#666666">[integer]</text>
<polygon fill="none" stroke="#000000" points="281,-265.5 281,-295.5 549,-295.5 549,-265.5 281,-265.5"/>
<text text-anchor="start" x="288" y="-276.9" font-family="Arial" font-size="14.00" fill="#000000">team_id    </text>
<text text-anchor="start" x="371.993" y="-276.9" font-family="Arial" font-size="14.00" fill="#666666">[integer]</text>
</g>
<!-- public.members&#45;&gt;public.sportmans -->
<g id="edge1" class="edge">
<title>public.members:sportman_id&#45;&gt;public.sportmans:id</title>
<path fill="none" stroke="#000000" d="M271.0617,-308.9146C244.8185,-299.3991 257.8719,-249.3909 281,-223 361.3711,-131.2906 472.6289,-278.7094 553,-187 581.2675,-154.7447 595.8889,-90.5 553,-90.5"/>
<polygon fill="#000000" stroke="#000000" points="271.1249,-308.9246 280.2911,-314.9438 276.0624,-309.7123 281,-310.5 281,-310.5 281,-310.5 276.0624,-309.7123 281.7089,-306.0562 271.1249,-308.9246 271.1249,-308.9246"/>
<text text-anchor="start" x="7.1085" y="-320.5" font-family="Arial" font-size="10.00" fill="#000000">FOREIGN KEY (sportman_id) REFERENCES sportmans(id)</text>
</g>
</g>
</svg>
