<?xml version="1.0" encoding="UTF-8" standalone="no"?>
<!DOCTYPE svg PUBLIC "-//W3C//DTD SVG 1.1//EN"
 "http://www.w3.org/Graphics/SVG/1.1/DTD/svg11.dtd">
<!-- Generated by graphviz version 2.40.1 (20161225.0304)
 -->
<!-- Title: public.teams Pages: 1 -->
<svg width="427pt" height="412pt"
 viewBox="0.00 0.00 427.00 412.00" xmlns="http://www.w3.org/2000/svg" xmlns:xlink="http://www.w3.org/1999/xlink">
<g id="graph0" class="graph" transform="scale(1 1) rotate(0) translate(4 408)">
<title>public.teams</title>
<polygon fill="#ffffff" stroke="transparent" points="-4,4 -4,-408 423,-408 423,4 -4,4"/>
<!-- public.teams -->
<g id="node1" class="node">
<title>public.teams</title>
<polygon fill="#efefef" stroke="transparent" points="121,-105.5 121,-140.5 363,-140.5 363,-105.5 121,-105.5"/>
<polygon fill="none" stroke="#000000" points="121,-105.5 121,-140.5 363,-140.5 363,-105.5 121,-105.5"/>
<text text-anchor="start" x="127.708" y="-118.3" font-family="Arial Bold" font-size="18.00" fill="#000000">public.teams</text>
<text text-anchor="start" x="228.724" y="-118.3" font-family="Arial" font-size="14.00" fill="#000000">    </text>
<text text-anchor="start" x="262.9288" y="-118.3" font-family="Arial" font-size="14.00" fill="#666666">[BASE TABLE]</text>
<polygon fill="none" stroke="#000000" points="121,-75.5 121,-105.5 363,-105.5 363,-75.5 121,-75.5"/>
<text text-anchor="start" x="128" y="-86.9" font-family="Arial" font-size="14.00" fill="#000000">id </text>
<text text-anchor="start" x="142.7798" y="-86.9" font-family="Arial" font-size="14.00" fill="#666666">[integer]</text>
<polygon fill="none" stroke="#000000" points="121,-45.5 121,-75.5 363,-75.5 363,-45.5 121,-45.5"/>
<text text-anchor="start" x="128" y="-56.9" font-family="Arial" font-size="14.00" fill="#000000">team_name </text>
<text text-anchor="start" x="205.798" y="-56.9" font-family="Arial" font-size="14.00" fill="#666666">[text]</text>
<polygon fill="none" stroke="#000000" stroke-width="3" points="119.5,-44.5 119.5,-142.5 364.5,-142.5 364.5,-44.5 119.5,-44.5"/>
</g>
<!-- public.members -->
<g id="node2" class="node">
<title>public.members</title>
<polygon fill="#efefef" stroke="transparent" points="108,-325.5 108,-360.5 376,-360.5 376,-325.5 108,-325.5"/>
<polygon fill="none" stroke="#000000" points="108,-325.5 108,-360.5 376,-360.5 376,-325.5 108,-325.5"/>
<text text-anchor="start" x="114.7138" y="-338.3" font-family="Arial Bold" font-size="18.00" fill="#000000">public.members</text>
<text text-anchor="start" x="241.7182" y="-338.3" font-family="Arial" font-size="14.00" fill="#000000">    </text>
<text text-anchor="start" x="275.923" y="-338.3" font-family="Arial" font-size="14.00" fill="#666666">[BASE TABLE]</text>
<polygon fill="none" stroke="#000000" points="108,-295.5 108,-325.5 376,-325.5 376,-295.5 108,-295.5"/>
<text text-anchor="start" x="115" y="-306.9" font-family="Arial" font-size="14.00" fill="#000000">sportman_id    </text>
<text text-anchor="start" x="226.2188" y="-306.9" font-family="Arial" font-size="14.00" fill="#666666">[integer]</text>
<polygon fill="none" stroke="#000000" points="108,-265.5 108,-295.5 376,-295.5 376,-265.5 108,-265.5"/>
<text text-anchor="start" x="115" y="-276.9" font-family="Arial" font-size="14.00" fill="#000000">team_id    </text>
<text text-anchor="start" x="198.993" y="-276.9" font-family="Arial" font-size="14.00" fill="#666666">[integer]</text>
</g>
<!-- public.members&#45;&gt;public.teams -->
<g id="edge1" class="edge">
<title>public.members:team_id&#45;&gt;public.teams:id</title>
<path fill="none" stroke="#000000" d="M242.9009,-255.2828C252.3884,-205.9729 334.1925,-240.028 363,-187 383.4734,-149.3132 405.8889,-90.5 363,-90.5"/>
<polygon fill="#000000" stroke="#000000" points="242.8784,-255.5386 237.5174,-265.1047 242.4392,-260.5193 242,-265.5 242,-265.5 242,-265.5 242.4392,-260.5193 246.4826,-265.8953 242.8784,-255.5386 242.8784,-255.5386"/>
<text text-anchor="start" x="6.5555" y="-275.5" font-family="Arial" font-size="10.00" fill="#000000">FOREIGN KEY (team_id) REFERENCES teams(id)</text>
</g>
</g>
</svg>
