<?xml version="1.0" encoding="UTF-8" standalone="no"?>
<!DOCTYPE svg PUBLIC "-//W3C//DTD SVG 1.1//EN"
 "http://www.w3.org/Graphics/SVG/1.1/DTD/svg11.dtd">
<!-- Generated by graphviz version 2.40.1 (20161225.0304)
 -->
<!-- Title: public.members Pages: 1 -->
<svg width="799pt" height="412pt"
 viewBox="0.00 0.00 799.00 412.00" xmlns="http://www.w3.org/2000/svg" xmlns:xlink="http://www.w3.org/1999/xlink">
<g id="graph0" class="graph" transform="scale(1 1) rotate(0) translate(4 408)">
<title>public.members</title>
<polygon fill="#ffffff" stroke="transparent" points="-4,4 -4,-408 795,-408 795,4 -4,4"/>
<!-- public.members -->
<g id="node1" class="node">
<title>public.members</title>
<polygon fill="#efefef" stroke="transparent" points="281,-322.5 281,-357.5 549,-357.5 549,-322.5 281,-322.5"/>
<polygon fill="none" stroke="#000000" points="281,-322.5 281,-357.5 549,-357.5 549,-322.5 281,-322.5"/>
<text text-anchor="start" x="287.7138" y="-335.3" font-family="Arial Bold" font-size="18.00" fill="#000000">public.members</text>
<text text-anchor="start" x="414.7182" y="-335.3" font-family="Arial" font-size="14.00" fill="#000000">    </text>
<text text-anchor="start" x="448.923" y="-335.3" font-family="Arial" font-size="14.00" fill="#666666">[BASE TABLE]</text>
<polygon fill="none" stroke="#000000" points="281,-292.5 281,-322.5 549,-322.5 549,-292.5 281,-292.5"/>
<text text-anchor="start" x="288" y="-303.9" font-family="Arial" font-size="14.00" fill="#000000">sportman_id </text>
<text text-anchor="start" x="368.9046" y="-303.9" font-family="Arial" font-size="14.00" fill="#666666">[integer]</text>
<polygon fill="none" stroke="#000000" points="281,-262.5 281,-292.5 549,-292.5 549,-262.5 281,-262.5"/>
<text text-anchor="start" x="288" y="-273.9" font-family="Arial" font-size="14.00" fill="#000000">team_id </text>
<text text-anchor="start" x="341.6788" y="-273.9" font-family="Arial" font-size="14.00" fill="#666666">[integer]</text>
<polygon fill="none" stroke="#000000" stroke-width="3" points="279.5,-261.5 279.5,-359.5 550.5,-359.5 550.5,-261.5 279.5,-261.5"/>
</g>
<!-- public.sportmans -->
<g id="node2" class="node">
<title>public.sportmans</title>
<polygon fill="#efefef" stroke="transparent" points="95,-102.5 95,-137.5 372,-137.5 372,-102.5 95,-102.5"/>
<polygon fill="none" stroke="#000000" points="95,-102.5 95,-137.5 372,-137.5 372,-102.5 95,-102.5"/>
<text text-anchor="start" x="101.7057" y="-115.3" font-family="Arial Bold" font-size="18.00" fill="#000000">public.sportmans</text>
<text text-anchor="start" x="237.7263" y="-115.3" font-family="Arial" font-size="14.00" fill="#000000">    </text>
<text text-anchor="start" x="271.9311" y="-115.3" font-family="Arial" font-size="14.00" fill="#666666">[BASE TABLE]</text>
<polygon fill="none" stroke="#000000" points="95,-72.5 95,-102.5 372,-102.5 372,-72.5 95,-72.5"/>
<text text-anchor="start" x="102" y="-83.9" font-family="Arial" font-size="14.00" fill="#000000">id    </text>
<text text-anchor="start" x="147.094" y="-83.9" font-family="Arial" font-size="14.00" fill="#666666">[integer]</text>
<polygon fill="none" stroke="#000000" points="95,-42.5 95,-72.5 372,-72.5 372,-42.5 95,-42.5"/>
<text text-anchor="start" x="102" y="-53.9" font-family="Arial" font-size="14.00" fill="#000000">name    </text>
<text text-anchor="start" x="171.2132" y="-53.9" font-family="Arial" font-size="14.00" fill="#666666">[text]</text>
</g>
<!-- public.members&#45;&gt;public.sportmans -->
<g id="edge1" class="edge">
<title>public.members:sportman_id&#45;&gt;public.sportmans:id</title>
<path fill="none" stroke="#000000" d="M270.8215,-305.9381C244.2648,-296.5497 260.5954,-247.0154 281,-217 305.4524,-181.0301 347.5476,-216.9699 372,-181 395.3625,-146.6335 413.5556,-87.5 372,-87.5"/>
<polygon fill="#000000" stroke="#000000" points="271.1157,-305.9832 280.3174,-311.9479 276.0578,-306.7416 281,-307.5 281,-307.5 281,-307.5 276.0578,-306.7416 281.6826,-303.0521 271.1157,-305.9832 271.1157,-305.9832"/>
<text text-anchor="start" x="7.1085" y="-317.5" font-family="Arial" font-size="10.00" fill="#000000">FOREIGN KEY (sportman_id) REFERENCES sportmans(id)</text>
</g>
<!-- public.teams -->
<g id="node3" class="node">
<title>public.teams</title>
<polygon fill="#efefef" stroke="transparent" points="476,-102.5 476,-137.5 718,-137.5 718,-102.5 476,-102.5"/>
<polygon fill="none" stroke="#000000" points="476,-102.5 476,-137.5 718,-137.5 718,-102.5 476,-102.5"/>
<text text-anchor="start" x="482.708" y="-115.3" font-family="Arial Bold" font-size="18.00" fill="#000000">public.teams</text>
<text text-anchor="start" x="583.724" y="-115.3" font-family="Arial" font-size="14.00" fill="#000000">    </text>
<text text-anchor="start" x="617.9288" y="-115.3" font-family="Arial" font-size="14.00" fill="#666666">[BASE TABLE]</text>
<polygon fill="none" stroke="#000000" points="476,-72.5 476,-102.5 718,-102.5 718,-72.5 476,-72.5"/>
<text text-anchor="start" x="483" y="-83.9" font-family="Arial" font-size="14.00" fill="#000000">id    </text>
<text text-anchor="start" x="528.094" y="-83.9" font-family="Arial" font-size="14.00" fill="#666666">[integer]</text>
<polygon fill="none" stroke="#000000" points="476,-42.5 476,-72.5 718,-72.5 718,-42.5 476,-42.5"/>
<text text-anchor="start" x="483" y="-53.9" font-family="Arial" font-size="14.00" fill="#000000">team_name    </text>
<text text-anchor="start" x="591.1122" y="-53.9" font-family="Arial" font-size="14.00" fill="#666666">[text]</text>
</g>
<!-- public.members&#45;&gt;public.teams -->
<g id="edge2" class="edge">
<title>public.members:team_id&#45;&gt;public.teams:id</title>
<path fill="none" stroke="#000000" d="M558.8506,-274.9415C571.8865,-266.0915 560.9805,-236.2663 549,-217 529.8971,-186.2799 495.1029,-211.7201 476,-181 454.0559,-145.7109 434.4444,-87.5 476,-87.5"/>
<polygon fill="#000000" stroke="#000000" points="558.6789,-274.9861 547.8687,-273.1445 553.8394,-276.243 549,-277.5 549,-277.5 549,-277.5 553.8394,-276.243 550.1313,-281.8555 558.6789,-274.9861 558.6789,-274.9861"/>
<text text-anchor="start" x="555.5555" y="-287.5" font-family="Arial" font-size="10.00" fill="#000000">FOREIGN KEY (team_id) REFERENCES teams(id)</text>
</g>
</g>
</svg>
