<?xml version="1.0" encoding="UTF-8" standalone="no"?>
<!DOCTYPE svg PUBLIC "-//W3C//DTD SVG 1.1//EN"
 "http://www.w3.org/Graphics/SVG/1.1/DTD/svg11.dtd">
<!-- Generated by graphviz version 2.40.1 (20161225.0304)
 -->
<!-- Title: public.profiles Pages: 1 -->
<svg width="706pt" height="1492pt"
 viewBox="0.00 0.00 705.50 1492.00" xmlns="http://www.w3.org/2000/svg" xmlns:xlink="http://www.w3.org/1999/xlink">
<g id="graph0" class="graph" transform="scale(1 1) rotate(0) translate(4 1488)">
<title>public.profiles</title>
<polygon fill="#ffffff" stroke="transparent" points="-4,4 -4,-1488 701.5,-1488 701.5,4 -4,4"/>
<!-- public.profiles -->
<g id="node1" class="node">
<title>public.profiles</title>
<polygon fill="#efefef" stroke="transparent" points="345,-1402.5 345,-1437.5 598,-1437.5 598,-1402.5 345,-1402.5"/>
<polygon fill="none" stroke="#000000" points="345,-1402.5 345,-1437.5 598,-1437.5 598,-1402.5 345,-1402.5"/>
<text text-anchor="start" x="352.7107" y="-1415.3" font-family="Arial Bold" font-size="18.00" fill="#000000">public.profiles</text>
<text text-anchor="start" x="462.7213" y="-1415.3" font-family="Arial" font-size="14.00" fill="#000000">    </text>
<text text-anchor="start" x="496.9261" y="-1415.3" font-family="Arial" font-size="14.00" fill="#666666">[BASE TABLE]</text>
<polygon fill="none" stroke="#000000" points="345,-1372.5 345,-1402.5 598,-1402.5 598,-1372.5 345,-1372.5"/>
<text text-anchor="start" x="352" y="-1383.9" font-family="Arial" font-size="14.00" fill="#000000">id </text>
<text text-anchor="start" x="366.7798" y="-1383.9" font-family="Arial" font-size="14.00" fill="#666666">[uuid]</text>
<polygon fill="none" stroke="#000000" points="345,-1342.5 345,-1372.5 598,-1372.5 598,-1342.5 345,-1342.5"/>
<text text-anchor="start" x="351.6915" y="-1353.9" font-family="Arial" font-size="14.00" fill="#000000">updated_at </text>
<text text-anchor="start" x="425.6241" y="-1353.9" font-family="Arial" font-size="14.00" fill="#666666">[timestamp with time zone]</text>
<polygon fill="none" stroke="#000000" points="345,-1312.5 345,-1342.5 598,-1342.5 598,-1312.5 345,-1312.5"/>
<text text-anchor="start" x="352" y="-1323.9" font-family="Arial" font-size="14.00" fill="#000000">username </text>
<text text-anchor="start" x="418.1248" y="-1323.9" font-family="Arial" font-size="14.00" fill="#666666">[text]</text>
<polygon fill="none" stroke="#000000" points="345,-1282.5 345,-1312.5 598,-1312.5 598,-1282.5 345,-1282.5"/>
<text text-anchor="start" x="352" y="-1293.9" font-family="Arial" font-size="14.00" fill="#000000">full_name </text>
<text text-anchor="start" x="416.568" y="-1293.9" font-family="Arial" font-size="14.00" fill="#666666">[text]</text>
<polygon fill="none" stroke="#000000" points="345,-1252.5 345,-1282.5 598,-1282.5 598,-1252.5 345,-1252.5"/>
<text text-anchor="start" x="352" y="-1263.9" font-family="Arial" font-size="14.00" fill="#000000">avatar_url </text>
<text text-anchor="start" x="418.122" y="-1263.9" font-family="Arial" font-size="14.00" fill="#666666">[text]</text>
<polygon fill="none" stroke="#000000" points="345,-1222.5 345,-1252.5 598,-1252.5 598,-1222.5 345,-1222.5"/>
<text text-anchor="start" x="352" y="-1233.9" font-family="Arial" font-size="14.00" fill="#000000">website </text>
<text text-anchor="start" x="403.3422" y="-1233.9" font-family="Arial" font-size="14.00" fill="#666666">[text]</text>
<polygon fill="none" stroke="#000000" stroke-width="3" points="343,-1221.5 343,-1439.5 599,-1439.5 599,-1221.5 343,-1221.5"/>
</g>
<!-- auth.users -->
<g id="node2" class="node">
<title>auth.users</title>
<polygon fill="#efefef" stroke="transparent" points="288,-1062.5 288,-1097.5 655,-1097.5 655,-1062.5 288,-1062.5"/>
<polygon fill="none" stroke="#000000" points="288,-1062.5 288,-1097.5 655,-1097.5 655,-1062.5 288,-1062.5"/>
<text text-anchor="start" x="365.7022" y="-1075.3" font-family="Arial Bold" font-size="18.00" fill="#000000">auth.users</text>
<text text-anchor="start" x="449.7298" y="-1075.3" font-family="Arial" font-size="14.00" fill="#000000">    </text>
<text text-anchor="start" x="483.9346" y="-1075.3" font-family="Arial" font-size="14.00" fill="#666666">[BASE TABLE]</text>
<polygon fill="none" stroke="#000000" points="288,-1032.5 288,-1062.5 655,-1062.5 655,-1032.5 288,-1032.5"/>
<text text-anchor="start" x="295" y="-1043.9" font-family="Arial" font-size="14.00" fill="#000000">instance_id    </text>
<text text-anchor="start" x="400.0042" y="-1043.9" font-family="Arial" font-size="14.00" fill="#666666">[uuid]</text>
<polygon fill="none" stroke="#000000" points="288,-1002.5 288,-1032.5 655,-1032.5 655,-1002.5 288,-1002.5"/>
<text text-anchor="start" x="295" y="-1013.9" font-family="Arial" font-size="14.00" fill="#000000">id    </text>
<text text-anchor="start" x="340.094" y="-1013.9" font-family="Arial" font-size="14.00" fill="#666666">[uuid]</text>
<polygon fill="none" stroke="#000000" points="288,-972.5 288,-1002.5 655,-1002.5 655,-972.5 288,-972.5"/>
<text text-anchor="start" x="295" y="-983.9" font-family="Arial" font-size="14.00" fill="#000000">aud    </text>
<text text-anchor="start" x="352.5526" y="-983.9" font-family="Arial" font-size="14.00" fill="#666666">[varchar(255)]</text>
<polygon fill="none" stroke="#000000" points="288,-942.5 288,-972.5 655,-972.5 655,-942.5 288,-942.5"/>
<text text-anchor="start" x="295" y="-953.9" font-family="Arial" font-size="14.00" fill="#000000">role    </text>
<text text-anchor="start" x="352.5372" y="-953.9" font-family="Arial" font-size="14.00" fill="#666666">[varchar(255)]</text>
<polygon fill="none" stroke="#000000" points="288,-912.5 288,-942.5 655,-942.5 655,-912.5 288,-912.5"/>
<text text-anchor="start" x="295" y="-923.9" font-family="Arial" font-size="14.00" fill="#000000">email    </text>
<text text-anchor="start" x="362.6438" y="-923.9" font-family="Arial" font-size="14.00" fill="#666666">[varchar(255)]</text>
<polygon fill="none" stroke="#000000" points="288,-882.5 288,-912.5 655,-912.5 655,-882.5 288,-882.5"/>
<text text-anchor="start" x="295" y="-893.9" font-family="Arial" font-size="14.00" fill="#000000">encrypted_password    </text>
<text text-anchor="start" x="458.3492" y="-893.9" font-family="Arial" font-size="14.00" fill="#666666">[varchar(255)]</text>
<polygon fill="none" stroke="#000000" points="288,-852.5 288,-882.5 655,-882.5 655,-852.5 288,-852.5"/>
<text text-anchor="start" x="295" y="-863.9" font-family="Arial" font-size="14.00" fill="#000000">email_confirmed_at    </text>
<text text-anchor="start" x="451.331" y="-863.9" font-family="Arial" font-size="14.00" fill="#666666">[timestamp with time zone]</text>
<polygon fill="none" stroke="#000000" points="288,-822.5 288,-852.5 655,-852.5 655,-822.5 288,-822.5"/>
<text text-anchor="start" x="295" y="-833.9" font-family="Arial" font-size="14.00" fill="#000000">invited_at    </text>
<text text-anchor="start" x="389.1122" y="-833.9" font-family="Arial" font-size="14.00" fill="#666666">[timestamp with time zone]</text>
<polygon fill="none" stroke="#000000" points="288,-792.5 288,-822.5 655,-822.5 655,-792.5 288,-792.5"/>
<text text-anchor="start" x="295" y="-803.9" font-family="Arial" font-size="14.00" fill="#000000">confirmation_token    </text>
<text text-anchor="start" x="447.4544" y="-803.9" font-family="Arial" font-size="14.00" fill="#666666">[varchar(255)]</text>
<polygon fill="none" stroke="#000000" points="288,-762.5 288,-792.5 655,-792.5 655,-762.5 288,-762.5"/>
<text text-anchor="start" x="295" y="-773.9" font-family="Arial" font-size="14.00" fill="#000000">confirmation_sent_at    </text>
<text text-anchor="start" x="459.1276" y="-773.9" font-family="Arial" font-size="14.00" fill="#666666">[timestamp with time zone]</text>
<polygon fill="none" stroke="#000000" points="288,-732.5 288,-762.5 655,-762.5 655,-732.5 288,-732.5"/>
<text text-anchor="start" x="295" y="-743.9" font-family="Arial" font-size="14.00" fill="#000000">recovery_token    </text>
<text text-anchor="start" x="424.8948" y="-743.9" font-family="Arial" font-size="14.00" fill="#666666">[varchar(255)]</text>
<polygon fill="none" stroke="#000000" points="288,-702.5 288,-732.5 655,-732.5 655,-702.5 288,-702.5"/>
<text text-anchor="start" x="295" y="-713.9" font-family="Arial" font-size="14.00" fill="#000000">recovery_sent_at    </text>
<text text-anchor="start" x="436.568" y="-713.9" font-family="Arial" font-size="14.00" fill="#666666">[timestamp with time zone]</text>
<polygon fill="none" stroke="#000000" points="288,-672.5 288,-702.5 655,-702.5 655,-672.5 288,-672.5"/>
<text text-anchor="start" x="295" y="-683.9" font-family="Arial" font-size="14.00" fill="#000000">email_change_token_new    </text>
<text text-anchor="start" x="491.8148" y="-683.9" font-family="Arial" font-size="14.00" fill="#666666">[varchar(255)]</text>
<polygon fill="none" stroke="#000000" points="288,-642.5 288,-672.5 655,-672.5 655,-642.5 288,-642.5"/>
<text text-anchor="start" x="295" y="-653.9" font-family="Arial" font-size="14.00" fill="#000000">email_change    </text>
<text text-anchor="start" x="416.3394" y="-653.9" font-family="Arial" font-size="14.00" fill="#666666">[varchar(255)]</text>
<polygon fill="none" stroke="#000000" points="288,-612.5 288,-642.5 655,-642.5 655,-612.5 288,-612.5"/>
<text text-anchor="start" x="295" y="-623.9" font-family="Arial" font-size="14.00" fill="#000000">email_change_sent_at    </text>
<text text-anchor="start" x="470.0336" y="-623.9" font-family="Arial" font-size="14.00" fill="#666666">[timestamp with time zone]</text>
<polygon fill="none" stroke="#000000" points="288,-582.5 288,-612.5 655,-612.5 655,-582.5 288,-582.5"/>
<text text-anchor="start" x="295" y="-593.9" font-family="Arial" font-size="14.00" fill="#000000">last_sign_in_at    </text>
<text text-anchor="start" x="422.5666" y="-593.9" font-family="Arial" font-size="14.00" fill="#666666">[timestamp with time zone]</text>
<polygon fill="none" stroke="#000000" points="288,-552.5 288,-582.5 655,-582.5 655,-552.5 288,-552.5"/>
<text text-anchor="start" x="295" y="-563.9" font-family="Arial" font-size="14.00" fill="#000000">raw_app_meta_data    </text>
<text text-anchor="start" x="456.805" y="-563.9" font-family="Arial" font-size="14.00" fill="#666666">[jsonb]</text>
<polygon fill="none" stroke="#000000" points="288,-522.5 288,-552.5 655,-552.5 655,-522.5 288,-522.5"/>
<text text-anchor="start" x="295" y="-533.9" font-family="Arial" font-size="14.00" fill="#000000">raw_user_meta_data    </text>
<text text-anchor="start" x="460.683" y="-533.9" font-family="Arial" font-size="14.00" fill="#666666">[jsonb]</text>
<polygon fill="none" stroke="#000000" points="288,-492.5 288,-522.5 655,-522.5 655,-492.5 288,-492.5"/>
<text text-anchor="start" x="295" y="-503.9" font-family="Arial" font-size="14.00" fill="#000000">is_super_admin    </text>
<text text-anchor="start" x="428" y="-503.9" font-family="Arial" font-size="14.00" fill="#666666">[boolean]</text>
<polygon fill="none" stroke="#000000" points="288,-462.5 288,-492.5 655,-492.5 655,-462.5 288,-462.5"/>
<text text-anchor="start" x="295" y="-473.9" font-family="Arial" font-size="14.00" fill="#000000">created_at    </text>
<text text-anchor="start" x="395.3422" y="-473.9" font-family="Arial" font-size="14.00" fill="#666666">[timestamp with time zone]</text>
<polygon fill="none" stroke="#000000" points="288,-432.5 288,-462.5 655,-462.5 655,-432.5 288,-432.5"/>
<text text-anchor="start" x="295" y="-443.9" font-family="Arial" font-size="14.00" fill="#000000">updated_at    </text>
<text text-anchor="start" x="399.2468" y="-443.9" font-family="Arial" font-size="14.00" fill="#666666">[timestamp with time zone]</text>
<polygon fill="none" stroke="#000000" points="288,-402.5 288,-432.5 655,-432.5 655,-402.5 288,-402.5"/>
<text text-anchor="start" x="295" y="-413.9" font-family="Arial" font-size="14.00" fill="#000000">phone    </text>
<text text-anchor="start" x="368.1178" y="-413.9" font-family="Arial" font-size="14.00" fill="#666666">[text]</text>
<polygon fill="none" stroke="#000000" points="288,-372.5 288,-402.5 655,-402.5 655,-372.5 288,-372.5"/>
<text text-anchor="start" x="295" y="-383.9" font-family="Arial" font-size="14.00" fill="#000000">phone_confirmed_at    </text>
<text text-anchor="start" x="456.805" y="-383.9" font-family="Arial" font-size="14.00" fill="#666666">[timestamp with time zone]</text>
<polygon fill="none" stroke="#000000" points="288,-342.5 288,-372.5 655,-372.5 655,-342.5 288,-342.5"/>
<text text-anchor="start" x="295" y="-353.9" font-family="Arial" font-size="14.00" fill="#000000">phone_change    </text>
<text text-anchor="start" x="421.8134" y="-353.9" font-family="Arial" font-size="14.00" fill="#666666">[text]</text>
<polygon fill="none" stroke="#000000" points="288,-312.5 288,-342.5 655,-342.5 655,-312.5 288,-312.5"/>
<text text-anchor="start" x="295" y="-323.9" font-family="Arial" font-size="14.00" fill="#000000">phone_change_token    </text>
<text text-anchor="start" x="463.8344" y="-323.9" font-family="Arial" font-size="14.00" fill="#666666">[varchar(255)]</text>
<polygon fill="none" stroke="#000000" points="288,-282.5 288,-312.5 655,-312.5 655,-282.5 288,-282.5"/>
<text text-anchor="start" x="295" y="-293.9" font-family="Arial" font-size="14.00" fill="#000000">phone_change_sent_at    </text>
<text text-anchor="start" x="475.5076" y="-293.9" font-family="Arial" font-size="14.00" fill="#666666">[timestamp with time zone]</text>
<polygon fill="none" stroke="#000000" points="288,-252.5 288,-282.5 655,-282.5 655,-252.5 288,-252.5"/>
<text text-anchor="start" x="295" y="-263.9" font-family="Arial" font-size="14.00" fill="#000000">confirmed_at    </text>
<text text-anchor="start" x="410.1094" y="-263.9" font-family="Arial" font-size="14.00" fill="#666666">[timestamp with time zone]</text>
<polygon fill="none" stroke="#000000" points="288,-222.5 288,-252.5 655,-252.5 655,-222.5 288,-222.5"/>
<text text-anchor="start" x="295" y="-233.9" font-family="Arial" font-size="14.00" fill="#000000">email_change_token_current    </text>
<text text-anchor="start" x="509.7026" y="-233.9" font-family="Arial" font-size="14.00" fill="#666666">[varchar(255)]</text>
<polygon fill="none" stroke="#000000" points="288,-192.5 288,-222.5 655,-222.5 655,-192.5 288,-192.5"/>
<text text-anchor="start" x="295" y="-203.9" font-family="Arial" font-size="14.00" fill="#000000">email_change_confirm_status    </text>
<text text-anchor="start" x="515.1346" y="-203.9" font-family="Arial" font-size="14.00" fill="#666666">[smallint]</text>
<polygon fill="none" stroke="#000000" points="288,-162.5 288,-192.5 655,-192.5 655,-162.5 288,-162.5"/>
<text text-anchor="start" x="295" y="-173.9" font-family="Arial" font-size="14.00" fill="#000000">banned_until    </text>
<text text-anchor="start" x="409.352" y="-173.9" font-family="Arial" font-size="14.00" fill="#666666">[timestamp with time zone]</text>
<polygon fill="none" stroke="#000000" points="288,-132.5 288,-162.5 655,-162.5 655,-132.5 288,-132.5"/>
<text text-anchor="start" x="295" y="-143.9" font-family="Arial" font-size="14.00" fill="#000000">reauthentication_token    </text>
<text text-anchor="start" x="470.8148" y="-143.9" font-family="Arial" font-size="14.00" fill="#666666">[varchar(255)]</text>
<polygon fill="none" stroke="#000000" points="288,-102.5 288,-132.5 655,-132.5 655,-102.5 288,-102.5"/>
<text text-anchor="start" x="294.9138" y="-113.9" font-family="Arial" font-size="14.00" fill="#000000">reauthentication_sent_at    </text>
<text text-anchor="start" x="482.4018" y="-113.9" font-family="Arial" font-size="14.00" fill="#666666">[timestamp with time zone]</text>
<polygon fill="none" stroke="#000000" points="288,-72.5 288,-102.5 655,-102.5 655,-72.5 288,-72.5"/>
<text text-anchor="start" x="295" y="-83.9" font-family="Arial" font-size="14.00" fill="#000000">is_sso_user    </text>
<text text-anchor="start" x="403.885" y="-83.9" font-family="Arial" font-size="14.00" fill="#666666">[boolean]</text>
<polygon fill="none" stroke="#000000" points="288,-42.5 288,-72.5 655,-72.5 655,-42.5 288,-42.5"/>
<text text-anchor="start" x="295" y="-53.9" font-family="Arial" font-size="14.00" fill="#000000">deleted_at    </text>
<text text-anchor="start" x="394.5708" y="-53.9" font-family="Arial" font-size="14.00" fill="#666666">[timestamp with time zone]</text>
</g>
<!-- public.profiles&#45;&gt;auth.users -->
<g id="edge1" class="edge">
<title>public.profiles:id&#45;&gt;auth.users:id</title>
<path fill="none" stroke="#000000" d="M334.9035,-1385.6837C257.3679,-1357.7709 208.22,-1017.5 288,-1017.5"/>
<polygon fill="#000000" stroke="#000000" points="335.158,-1385.7294 344.2032,-1391.9289 340.079,-1386.6147 345,-1387.5 345,-1387.5 345,-1387.5 340.079,-1386.6147 345.7968,-1383.0711 335.158,-1385.7294 335.158,-1385.7294"/>
<text text-anchor="start" x="7.439" y="-1397.5" font-family="Arial" font-size="10.00" fill="#000000">FOREIGN KEY (id) REFERENCES auth.users(id) ON DELETE CASCADE</text>
</g>
</g>
</svg>
