<?xml version="1.0" encoding="UTF-8" standalone="no"?>
<!DOCTYPE svg PUBLIC "-//W3C//DTD SVG 1.1//EN"
 "http://www.w3.org/Graphics/SVG/1.1/DTD/svg11.dtd">
<!-- Generated by graphviz version 2.40.1 (20161225.0304)
 -->
<!-- Title: storage.objects Pages: 1 -->
<svg width="638pt" height="922pt"
 viewBox="0.00 0.00 637.50 922.00" xmlns="http://www.w3.org/2000/svg" xmlns:xlink="http://www.w3.org/1999/xlink">
<g id="graph0" class="graph" transform="scale(1 1) rotate(0) translate(4 918)">
<title>storage.objects</title>
<polygon fill="#ffffff" stroke="transparent" points="-4,4 -4,-918 633.5,-918 633.5,4 -4,4"/>
<!-- storage.objects -->
<g id="node1" class="node">
<title>storage.objects</title>
<polygon fill="#efefef" stroke="transparent" points="293,-832.5 293,-867.5 584,-867.5 584,-832.5 293,-832.5"/>
<polygon fill="none" stroke="#000000" points="293,-832.5 293,-867.5 584,-867.5 584,-832.5 293,-832.5"/>
<text text-anchor="start" x="313.6978" y="-845.3" font-family="Arial Bold" font-size="18.00" fill="#000000">storage.objects</text>
<text text-anchor="start" x="435.7342" y="-845.3" font-family="Arial" font-size="14.00" fill="#000000">    </text>
<text text-anchor="start" x="469.939" y="-845.3" font-family="Arial" font-size="14.00" fill="#666666">[BASE TABLE]</text>
<polygon fill="none" stroke="#000000" points="293,-802.5 293,-832.5 584,-832.5 584,-802.5 293,-802.5"/>
<text text-anchor="start" x="300" y="-813.9" font-family="Arial" font-size="14.00" fill="#000000">id </text>
<text text-anchor="start" x="314.7798" y="-813.9" font-family="Arial" font-size="14.00" fill="#666666">[uuid]</text>
<polygon fill="none" stroke="#000000" points="293,-772.5 293,-802.5 584,-802.5 584,-772.5 293,-772.5"/>
<text text-anchor="start" x="300" y="-783.9" font-family="Arial" font-size="14.00" fill="#000000">bucket_id </text>
<text text-anchor="start" x="363.8008" y="-783.9" font-family="Arial" font-size="14.00" fill="#666666">[text]</text>
<polygon fill="none" stroke="#000000" points="293,-742.5 293,-772.5 584,-772.5 584,-742.5 293,-742.5"/>
<text text-anchor="start" x="300" y="-753.9" font-family="Arial" font-size="14.00" fill="#000000">name </text>
<text text-anchor="start" x="338.899" y="-753.9" font-family="Arial" font-size="14.00" fill="#666666">[text]</text>
<polygon fill="none" stroke="#000000" points="293,-712.5 293,-742.5 584,-742.5 584,-712.5 293,-712.5"/>
<text text-anchor="start" x="300" y="-723.9" font-family="Arial" font-size="14.00" fill="#000000">owner </text>
<text text-anchor="start" x="342.0056" y="-723.9" font-family="Arial" font-size="14.00" fill="#666666">[uuid]</text>
<polygon fill="none" stroke="#000000" points="293,-682.5 293,-712.5 584,-712.5 584,-682.5 293,-682.5"/>
<text text-anchor="start" x="300" y="-693.9" font-family="Arial" font-size="14.00" fill="#000000">created_at </text>
<text text-anchor="start" x="370.028" y="-693.9" font-family="Arial" font-size="14.00" fill="#666666">[timestamp with time zone]</text>
<polygon fill="none" stroke="#000000" points="293,-652.5 293,-682.5 584,-682.5 584,-652.5 293,-652.5"/>
<text text-anchor="start" x="300" y="-663.9" font-family="Arial" font-size="14.00" fill="#000000">updated_at </text>
<text text-anchor="start" x="373.9326" y="-663.9" font-family="Arial" font-size="14.00" fill="#666666">[timestamp with time zone]</text>
<polygon fill="none" stroke="#000000" points="293,-622.5 293,-652.5 584,-652.5 584,-622.5 293,-622.5"/>
<text text-anchor="start" x="299.6382" y="-633.9" font-family="Arial" font-size="14.00" fill="#000000">last_accessed_at </text>
<text text-anchor="start" x="411.6774" y="-633.9" font-family="Arial" font-size="14.00" fill="#666666">[timestamp with time zone]</text>
<polygon fill="none" stroke="#000000" points="293,-592.5 293,-622.5 584,-622.5 584,-592.5 293,-592.5"/>
<text text-anchor="start" x="300" y="-603.9" font-family="Arial" font-size="14.00" fill="#000000">metadata </text>
<text text-anchor="start" x="362.2454" y="-603.9" font-family="Arial" font-size="14.00" fill="#666666">[jsonb]</text>
<polygon fill="none" stroke="#000000" points="293,-562.5 293,-592.5 584,-592.5 584,-562.5 293,-562.5"/>
<text text-anchor="start" x="300" y="-573.9" font-family="Arial" font-size="14.00" fill="#000000">path_tokens </text>
<text text-anchor="start" x="380.15" y="-573.9" font-family="Arial" font-size="14.00" fill="#666666">[text[]]</text>
<polygon fill="none" stroke="#000000" points="293,-532.5 293,-562.5 584,-562.5 584,-532.5 293,-532.5"/>
<text text-anchor="start" x="300" y="-543.9" font-family="Arial" font-size="14.00" fill="#000000">version </text>
<text text-anchor="start" x="349.0056" y="-543.9" font-family="Arial" font-size="14.00" fill="#666666">[text]</text>
<polygon fill="none" stroke="#000000" points="293,-502.5 293,-532.5 584,-532.5 584,-502.5 293,-502.5"/>
<text text-anchor="start" x="300" y="-513.9" font-family="Arial" font-size="14.00" fill="#000000">owner_id </text>
<text text-anchor="start" x="360.6774" y="-513.9" font-family="Arial" font-size="14.00" fill="#666666">[text]</text>
<polygon fill="none" stroke="#000000" stroke-width="3" points="291,-501.5 291,-869.5 585,-869.5 585,-501.5 291,-501.5"/>
</g>
<!-- storage.buckets -->
<g id="node2" class="node">
<title>storage.buckets</title>
<polygon fill="#efefef" stroke="transparent" points="297,-342.5 297,-377.5 580,-377.5 580,-342.5 297,-342.5"/>
<polygon fill="none" stroke="#000000" points="297,-342.5 297,-377.5 580,-377.5 580,-342.5 297,-342.5"/>
<text text-anchor="start" x="311.1949" y="-355.3" font-family="Arial Bold" font-size="18.00" fill="#000000">storage.buckets</text>
<text text-anchor="start" x="438.2371" y="-355.3" font-family="Arial" font-size="14.00" fill="#000000">    </text>
<text text-anchor="start" x="472.4419" y="-355.3" font-family="Arial" font-size="14.00" fill="#666666">[BASE TABLE]</text>
<polygon fill="none" stroke="#000000" points="297,-312.5 297,-342.5 580,-342.5 580,-312.5 297,-312.5"/>
<text text-anchor="start" x="304" y="-323.9" font-family="Arial" font-size="14.00" fill="#000000">id    </text>
<text text-anchor="start" x="349.094" y="-323.9" font-family="Arial" font-size="14.00" fill="#666666">[text]</text>
<polygon fill="none" stroke="#000000" points="297,-282.5 297,-312.5 580,-312.5 580,-282.5 297,-282.5"/>
<text text-anchor="start" x="304" y="-293.9" font-family="Arial" font-size="14.00" fill="#000000">name    </text>
<text text-anchor="start" x="373.2132" y="-293.9" font-family="Arial" font-size="14.00" fill="#666666">[text]</text>
<polygon fill="none" stroke="#000000" points="297,-252.5 297,-282.5 580,-282.5 580,-252.5 297,-252.5"/>
<text text-anchor="start" x="304" y="-263.9" font-family="Arial" font-size="14.00" fill="#000000">owner    </text>
<text text-anchor="start" x="376.3198" y="-263.9" font-family="Arial" font-size="14.00" fill="#666666">[uuid]</text>
<polygon fill="none" stroke="#000000" points="297,-222.5 297,-252.5 580,-252.5 580,-222.5 297,-222.5"/>
<text text-anchor="start" x="304" y="-233.9" font-family="Arial" font-size="14.00" fill="#000000">created_at    </text>
<text text-anchor="start" x="404.3422" y="-233.9" font-family="Arial" font-size="14.00" fill="#666666">[timestamp with time zone]</text>
<polygon fill="none" stroke="#000000" points="297,-192.5 297,-222.5 580,-222.5 580,-192.5 297,-192.5"/>
<text text-anchor="start" x="303.5344" y="-203.9" font-family="Arial" font-size="14.00" fill="#000000">updated_at    </text>
<text text-anchor="start" x="407.7812" y="-203.9" font-family="Arial" font-size="14.00" fill="#666666">[timestamp with time zone]</text>
<polygon fill="none" stroke="#000000" points="297,-162.5 297,-192.5 580,-192.5 580,-162.5 297,-162.5"/>
<text text-anchor="start" x="304" y="-173.9" font-family="Arial" font-size="14.00" fill="#000000">public    </text>
<text text-anchor="start" x="374.7658" y="-173.9" font-family="Arial" font-size="14.00" fill="#666666">[boolean]</text>
<polygon fill="none" stroke="#000000" points="297,-132.5 297,-162.5 580,-162.5 580,-132.5 297,-132.5"/>
<text text-anchor="start" x="304" y="-143.9" font-family="Arial" font-size="14.00" fill="#000000">avif_autodetection    </text>
<text text-anchor="start" x="451.8064" y="-143.9" font-family="Arial" font-size="14.00" fill="#666666">[boolean]</text>
<polygon fill="none" stroke="#000000" points="297,-102.5 297,-132.5 580,-132.5 580,-102.5 297,-102.5"/>
<text text-anchor="start" x="304" y="-113.9" font-family="Arial" font-size="14.00" fill="#000000">file_size_limit    </text>
<text text-anchor="start" x="421.4166" y="-113.9" font-family="Arial" font-size="14.00" fill="#666666">[bigint]</text>
<polygon fill="none" stroke="#000000" points="297,-72.5 297,-102.5 580,-102.5 580,-72.5 297,-72.5"/>
<text text-anchor="start" x="304" y="-83.9" font-family="Arial" font-size="14.00" fill="#000000">allowed_mime_types    </text>
<text text-anchor="start" x="468.8864" y="-83.9" font-family="Arial" font-size="14.00" fill="#666666">[text[]]</text>
<polygon fill="none" stroke="#000000" points="297,-42.5 297,-72.5 580,-72.5 580,-42.5 297,-42.5"/>
<text text-anchor="start" x="304" y="-53.9" font-family="Arial" font-size="14.00" fill="#000000">owner_id    </text>
<text text-anchor="start" x="394.9916" y="-53.9" font-family="Arial" font-size="14.00" fill="#666666">[text]</text>
</g>
<!-- storage.objects&#45;&gt;storage.buckets -->
<g id="edge1" class="edge">
<title>storage.objects:bucket_id&#45;&gt;storage.buckets:id</title>
<path fill="none" stroke="#000000" d="M282.8898,-785.9245C191.1621,-756.5921 198.268,-327.5 297,-327.5"/>
<polygon fill="#000000" stroke="#000000" points="283.1192,-785.9602 292.3071,-791.9463 288.0596,-786.7301 293,-787.5 293,-787.5 293,-787.5 288.0596,-786.7301 293.6929,-783.0537 283.1192,-785.9602 283.1192,-785.9602"/>
<text text-anchor="start" x="7.264" y="-797.5" font-family="Arial" font-size="10.00" fill="#000000">FOREIGN KEY (bucket_id) REFERENCES storage.buckets(id)</text>
</g>
</g>
</svg>
