<?xml version="1.0" encoding="UTF-8" standalone="no"?>
<!DOCTYPE svg PUBLIC "-//W3C//DTD SVG 1.1//EN"
 "http://www.w3.org/Graphics/SVG/1.1/DTD/svg11.dtd">
<!-- Generated by graphviz version 2.40.1 (20161225.0304)
 -->
<!-- Title: storage.buckets Pages: 1 -->
<svg width="666pt" height="922pt"
 viewBox="0.00 0.00 666.00 922.00" xmlns="http://www.w3.org/2000/svg" xmlns:xlink="http://www.w3.org/1999/xlink">
<g id="graph0" class="graph" transform="scale(1 1) rotate(0) translate(4 918)">
<title>storage.buckets</title>
<polygon fill="#ffffff" stroke="transparent" points="-4,4 -4,-918 662,-918 662,4 -4,4"/>
<!-- storage.buckets -->
<g id="node1" class="node">
<title>storage.buckets</title>
<polygon fill="#efefef" stroke="transparent" points="70,-345.5 70,-380.5 338,-380.5 338,-345.5 70,-345.5"/>
<polygon fill="none" stroke="#000000" points="70,-345.5 70,-380.5 338,-380.5 338,-345.5 70,-345.5"/>
<text text-anchor="start" x="76.6949" y="-358.3" font-family="Arial Bold" font-size="18.00" fill="#000000">storage.buckets</text>
<text text-anchor="start" x="203.7371" y="-358.3" font-family="Arial" font-size="14.00" fill="#000000">    </text>
<text text-anchor="start" x="237.9419" y="-358.3" font-family="Arial" font-size="14.00" fill="#666666">[BASE TABLE]</text>
<polygon fill="none" stroke="#000000" points="70,-315.5 70,-345.5 338,-345.5 338,-315.5 70,-315.5"/>
<text text-anchor="start" x="77" y="-326.9" font-family="Arial" font-size="14.00" fill="#000000">id </text>
<text text-anchor="start" x="91.7798" y="-326.9" font-family="Arial" font-size="14.00" fill="#666666">[text]</text>
<polygon fill="none" stroke="#000000" points="70,-285.5 70,-315.5 338,-315.5 338,-285.5 70,-285.5"/>
<text text-anchor="start" x="77" y="-296.9" font-family="Arial" font-size="14.00" fill="#000000">name </text>
<text text-anchor="start" x="115.899" y="-296.9" font-family="Arial" font-size="14.00" fill="#666666">[text]</text>
<polygon fill="none" stroke="#000000" points="70,-255.5 70,-285.5 338,-285.5 338,-255.5 70,-255.5"/>
<text text-anchor="start" x="77" y="-266.9" font-family="Arial" font-size="14.00" fill="#000000">owner </text>
<text text-anchor="start" x="119.0056" y="-266.9" font-family="Arial" font-size="14.00" fill="#666666">[uuid]</text>
<polygon fill="none" stroke="#000000" points="70,-225.5 70,-255.5 338,-255.5 338,-225.5 70,-225.5"/>
<text text-anchor="start" x="77" y="-236.9" font-family="Arial" font-size="14.00" fill="#000000">created_at </text>
<text text-anchor="start" x="147.028" y="-236.9" font-family="Arial" font-size="14.00" fill="#666666">[timestamp with time zone]</text>
<polygon fill="none" stroke="#000000" points="70,-195.5 70,-225.5 338,-225.5 338,-195.5 70,-195.5"/>
<text text-anchor="start" x="77" y="-206.9" font-family="Arial" font-size="14.00" fill="#000000">updated_at </text>
<text text-anchor="start" x="150.9326" y="-206.9" font-family="Arial" font-size="14.00" fill="#666666">[timestamp with time zone]</text>
<polygon fill="none" stroke="#000000" points="70,-165.5 70,-195.5 338,-195.5 338,-165.5 70,-165.5"/>
<text text-anchor="start" x="77" y="-176.9" font-family="Arial" font-size="14.00" fill="#000000">public </text>
<text text-anchor="start" x="117.4516" y="-176.9" font-family="Arial" font-size="14.00" fill="#666666">[boolean]</text>
<polygon fill="none" stroke="#000000" points="70,-135.5 70,-165.5 338,-165.5 338,-135.5 70,-135.5"/>
<text text-anchor="start" x="77" y="-146.9" font-family="Arial" font-size="14.00" fill="#000000">avif_autodetection </text>
<text text-anchor="start" x="194.4922" y="-146.9" font-family="Arial" font-size="14.00" fill="#666666">[boolean]</text>
<polygon fill="none" stroke="#000000" points="70,-105.5 70,-135.5 338,-135.5 338,-105.5 70,-105.5"/>
<text text-anchor="start" x="77" y="-116.9" font-family="Arial" font-size="14.00" fill="#000000">file_size_limit </text>
<text text-anchor="start" x="164.1024" y="-116.9" font-family="Arial" font-size="14.00" fill="#666666">[bigint]</text>
<polygon fill="none" stroke="#000000" points="70,-75.5 70,-105.5 338,-105.5 338,-75.5 70,-75.5"/>
<text text-anchor="start" x="77" y="-86.9" font-family="Arial" font-size="14.00" fill="#000000">allowed_mime_types </text>
<text text-anchor="start" x="211.5722" y="-86.9" font-family="Arial" font-size="14.00" fill="#666666">[text[]]</text>
<polygon fill="none" stroke="#000000" points="70,-45.5 70,-75.5 338,-75.5 338,-45.5 70,-45.5"/>
<text text-anchor="start" x="77" y="-56.9" font-family="Arial" font-size="14.00" fill="#000000">owner_id </text>
<text text-anchor="start" x="137.6774" y="-56.9" font-family="Arial" font-size="14.00" fill="#666666">[text]</text>
<polygon fill="none" stroke="#000000" stroke-width="3" points="68.5,-44.5 68.5,-382.5 339.5,-382.5 339.5,-44.5 68.5,-44.5"/>
</g>
<!-- storage.objects -->
<g id="node2" class="node">
<title>storage.objects</title>
<polygon fill="#efefef" stroke="transparent" points="43,-835.5 43,-870.5 365,-870.5 365,-835.5 43,-835.5"/>
<polygon fill="none" stroke="#000000" points="43,-835.5 43,-870.5 365,-870.5 365,-835.5 43,-835.5"/>
<text text-anchor="start" x="79.1978" y="-848.3" font-family="Arial Bold" font-size="18.00" fill="#000000">storage.objects</text>
<text text-anchor="start" x="201.2342" y="-848.3" font-family="Arial" font-size="14.00" fill="#000000">    </text>
<text text-anchor="start" x="235.439" y="-848.3" font-family="Arial" font-size="14.00" fill="#666666">[BASE TABLE]</text>
<polygon fill="none" stroke="#000000" points="43,-805.5 43,-835.5 365,-835.5 365,-805.5 43,-805.5"/>
<text text-anchor="start" x="50" y="-816.9" font-family="Arial" font-size="14.00" fill="#000000">id    </text>
<text text-anchor="start" x="95.094" y="-816.9" font-family="Arial" font-size="14.00" fill="#666666">[uuid]</text>
<polygon fill="none" stroke="#000000" points="43,-775.5 43,-805.5 365,-805.5 365,-775.5 43,-775.5"/>
<text text-anchor="start" x="50" y="-786.9" font-family="Arial" font-size="14.00" fill="#000000">bucket_id    </text>
<text text-anchor="start" x="144.115" y="-786.9" font-family="Arial" font-size="14.00" fill="#666666">[text]</text>
<polygon fill="none" stroke="#000000" points="43,-745.5 43,-775.5 365,-775.5 365,-745.5 43,-745.5"/>
<text text-anchor="start" x="50" y="-756.9" font-family="Arial" font-size="14.00" fill="#000000">name    </text>
<text text-anchor="start" x="119.2132" y="-756.9" font-family="Arial" font-size="14.00" fill="#666666">[text]</text>
<polygon fill="none" stroke="#000000" points="43,-715.5 43,-745.5 365,-745.5 365,-715.5 43,-715.5"/>
<text text-anchor="start" x="50" y="-726.9" font-family="Arial" font-size="14.00" fill="#000000">owner    </text>
<text text-anchor="start" x="122.3198" y="-726.9" font-family="Arial" font-size="14.00" fill="#666666">[uuid]</text>
<polygon fill="none" stroke="#000000" points="43,-685.5 43,-715.5 365,-715.5 365,-685.5 43,-685.5"/>
<text text-anchor="start" x="50" y="-696.9" font-family="Arial" font-size="14.00" fill="#000000">created_at    </text>
<text text-anchor="start" x="150.3422" y="-696.9" font-family="Arial" font-size="14.00" fill="#666666">[timestamp with time zone]</text>
<polygon fill="none" stroke="#000000" points="43,-655.5 43,-685.5 365,-685.5 365,-655.5 43,-655.5"/>
<text text-anchor="start" x="50" y="-666.9" font-family="Arial" font-size="14.00" fill="#000000">updated_at    </text>
<text text-anchor="start" x="154.2468" y="-666.9" font-family="Arial" font-size="14.00" fill="#666666">[timestamp with time zone]</text>
<polygon fill="none" stroke="#000000" points="43,-625.5 43,-655.5 365,-655.5 365,-625.5 43,-625.5"/>
<text text-anchor="start" x="49.9811" y="-636.9" font-family="Arial" font-size="14.00" fill="#000000">last_accessed_at    </text>
<text text-anchor="start" x="192.3345" y="-636.9" font-family="Arial" font-size="14.00" fill="#666666">[timestamp with time zone]</text>
<polygon fill="none" stroke="#000000" points="43,-595.5 43,-625.5 365,-625.5 365,-595.5 43,-595.5"/>
<text text-anchor="start" x="50" y="-606.9" font-family="Arial" font-size="14.00" fill="#000000">metadata    </text>
<text text-anchor="start" x="142.5596" y="-606.9" font-family="Arial" font-size="14.00" fill="#666666">[jsonb]</text>
<polygon fill="none" stroke="#000000" points="43,-565.5 43,-595.5 365,-595.5 365,-565.5 43,-565.5"/>
<text text-anchor="start" x="50" y="-576.9" font-family="Arial" font-size="14.00" fill="#000000">path_tokens    </text>
<text text-anchor="start" x="160.4642" y="-576.9" font-family="Arial" font-size="14.00" fill="#666666">[text[]]</text>
<polygon fill="none" stroke="#000000" points="43,-535.5 43,-565.5 365,-565.5 365,-535.5 43,-535.5"/>
<text text-anchor="start" x="50" y="-546.9" font-family="Arial" font-size="14.00" fill="#000000">version    </text>
<text text-anchor="start" x="129.3198" y="-546.9" font-family="Arial" font-size="14.00" fill="#666666">[text]</text>
<polygon fill="none" stroke="#000000" points="43,-505.5 43,-535.5 365,-535.5 365,-505.5 43,-505.5"/>
<text text-anchor="start" x="50" y="-516.9" font-family="Arial" font-size="14.00" fill="#000000">owner_id    </text>
<text text-anchor="start" x="140.9916" y="-516.9" font-family="Arial" font-size="14.00" fill="#666666">[text]</text>
</g>
<!-- storage.objects&#45;&gt;storage.buckets -->
<g id="edge1" class="edge">
<title>storage.objects:bucket_id&#45;&gt;storage.buckets:id</title>
<path fill="none" stroke="#000000" d="M375.0485,-788.9245C465.4644,-759.5921 436.8982,-330.5 338,-330.5"/>
<polygon fill="#000000" stroke="#000000" points="374.8793,-788.951 364.3029,-786.0543 369.9397,-789.7255 365,-790.5 365,-790.5 365,-790.5 369.9397,-789.7255 365.6971,-794.9457 374.8793,-788.951 374.8793,-788.951"/>
<text text-anchor="start" x="372.264" y="-800.5" font-family="Arial" font-size="10.00" fill="#000000">FOREIGN KEY (bucket_id) REFERENCES storage.buckets(id)</text>
</g>
</g>
</svg>
